<?xml version="1.0" standalone="no"?>
<!DOCTYPE svg PUBLIC "-//W3C//DTD SVG 1.1//EN" "http://www.w3.org/Graphics/SVG/1.1/DTD/svg11.dtd" >
<svg xmlns="http://www.w3.org/2000/svg" xmlns:xlink="http://www.w3.org/1999/xlink" version="1.1">
<metadata></metadata>
<defs>
<font id="hand_of_sean_demoregular" horiz-adv-x="1949" >
<font-face units-per-em="2048" ascent="1638" descent="-410" />
<missing-glyph horiz-adv-x="1031" />
<glyph horiz-adv-x="0" />
<glyph unicode="&#xd;" horiz-adv-x="508" />
<glyph unicode=" "  horiz-adv-x="1031" />
<glyph unicode="&#x09;" horiz-adv-x="1031" />
<glyph unicode="&#xa0;" horiz-adv-x="1031" />
<glyph unicode="!" horiz-adv-x="676" d="M171 70v11q3 54 38 93q42 46 118 52q88 0 142 -49q48 -43 48 -105q0 -60 -47 -100q-51 -42 -137 -42q-28 0 -60 4q-51 10 -80 56q-22 37 -22 80zM185 1772q0 20 2 35q10 183 92 272q47 49 113 49h12q83 -3 114 -42t31 -123q0 -68 -20 -163q-9 -43 -12 -59 q-31 -188 -31 -402v-53q1 -64 1 -112t-1 -81q-1 -48 -1 -90q0 -94 7 -156l5 -51q13 -108 13 -184q0 -53 -6 -91q-28 -148 -126 -148q-51 0 -95 30q-47 34 -65 96q-23 79 -23 216q0 72 7 161l5 -11q6 101 6 238q0 77 -2 164l-2 100q0 24 -7 110q-17 201 -17 295z" />
<glyph unicode="&#x22;" horiz-adv-x="757" d="M-30 1980v12q0 91 42 91h4q28 12 60 12q67 0 153 -52q14 -190 14 -338q0 -235 -36 -361q-27 -42 -115 -42q-27 0 -60 4q-5 -2 -9 -2q-40 0 -45 194q-1 27 -1 59q0 48 2 106l3 110q0 35 -5 104q-7 77 -7 103zM366 1980v12q0 91 42 91h4q28 12 60 12q67 0 153 -52 q15 -192 15 -340q0 -234 -37 -360q-27 -41 -114 -41q-27 0 -61 4q-5 -2 -9 -2q-40 0 -45 194q-1 27 -1 59q0 48 2 106q0 22 2 66q1 32 1 42q0 37 -5 106q-7 77 -7 103z" />
<glyph unicode="#" horiz-adv-x="1690" d="M23 517q0 15 6 52q23 64 139 77q26 3 62 3q58 0 104 -7q48 -4 61 -4h13l13 -1q-3 106 -13 240l-2 32q-34 -1 -65 -1q-218 0 -288 59q-30 45 -30 79q0 15 6 32q23 84 142 102q85 13 132 13q18 0 31 -2q42 -3 57 -4q-2 52 -2 88q30 207 90 279q35 31 71 33h2q56 0 101 -30 q60 -72 60 -295q0 -35 -1 -73q75 4 165 13l33 2q-2 45 -2 75q0 203 90 275q46 31 82 33h2q45 0 70 -30q61 -71 81 -290q0 -23 -1 -48q41 2 78 2q202 -20 274 -80q31 -46 33 -82v-2q0 -35 -30 -80q-72 -61 -309 -61q-28 0 -58 1v-7q-5 -59 -5 -76v-6q0 -30 8 -107 q2 -30 4 -51q41 1 78 1q206 0 279 -60q31 -25 33 -81v-2q0 -36 -30 -110q-73 -61 -306 -61h-41q1 -30 1 -57q-20 -207 -79 -277q-25 -30 -69 -30q-15 0 -32 6q-114 23 -127 139q-3 26 -3 63q0 58 7 93q4 46 4 61v13q-16 1 -33 2q-27 2 -54 2q-43 0 -84 -5h1l-52 -4 q1 -37 1 -71q0 -199 -58 -269q-45 -30 -100 -30q-14 0 -31 6q-75 23 -87 139q-3 26 -3 65q-24 22 -24 68q0 11 1 23q3 39 3 56q-42 -1 -80 -1q-218 30 -289 89q-30 24 -30 79zM695 834q0 -25 8 -113q6 -74 7 -81q72 3 167 12l51 3q5 1 12 1q-3 97 -13 221l-3 51l-15 1 q-77 5 -75 5h-6l-57 -8q-74 -5 -70 -5v-6q0 -3 -1 -5q-5 -57 -5 -76z" />
<glyph unicode="$" horiz-adv-x="1989" d="M-43 1485q0 183 275 305q159 70 360 105q-4 79 -4 146q0 249 61 340q43 64 115 69l12 1h9q78 0 115 -47q36 -45 43 -148q2 -23 2 -49q0 -57 -8 -129q-5 -46 -5 -62q-4 -46 -6 -99q109 -9 220 -40q232 -65 240 -185q1 -6 1 -12t-1 -12q-10 -82 -34 -112q-15 -20 -45 -22 q-9 0 -21 1q-24 2 -108 25q-90 26 -158 36q-43 6 -89 8q3 -67 8 -139q5 -68 11 -140l7 -90l4 -42q38 -8 82 -17q235 -49 345 -77q343 -91 466 -176q113 -77 121 -196q1 -8 1 -16q0 -25 -5 -51q-28 -182 -255 -369q-241 -198 -556 -267q-43 -10 -86 -16q2 -26 4 -50 q5 -70 5 -132t-5 -115q-16 -182 -125 -190h-11q-48 0 -90 31q-54 39 -77 112q-35 115 -51 345v4q-107 20 -211 62q-319 132 -339 389l-1 10q-2 23 -2 45q0 185 123 235q25 9 50 11h12q20 0 40 -5q49 -15 59 -49q2 -7 2 -17q1 -9 1 -20q0 -12 -1 -26q-5 -50 -5 -74v-7l1 -9 q7 -101 95 -161q77 -52 164 -80q0 33 -1 68h4q-3 146 -18 359q-7 105 -17 227q-321 91 -454 159q-249 128 -268 333v5q-1 8 -1 17zM350 1461q8 -113 307 -198l-9 106q-1 23 -13 114q-7 50 -13 97q-14 -2 -28 -5q-239 -44 -244 -100v-14zM981 892q17 -241 17 -261l2 -36 q1 -31 3 -60q6 -87 18 -159l9 -55q3 -12 5 -25q26 4 54 9q319 65 537 322q25 30 25 54v4q-1 19 -18 35q-35 32 -149 63q-58 15 -269 57q-131 28 -234 52z" />
<glyph unicode="%" horiz-adv-x="2118" d="M-15 1938q0 81 21 155q34 124 123 186q78 53 188 53q17 0 36 -1q263 -10 407 -194q123 -158 123 -382v-14q-4 -192 -100 -328q-105 -150 -275 -150q-114 0 -237 74q-151 90 -235 328q-51 145 -51 273zM26 105q0 41 19 84q80 175 412 552l4 -2q153 176 399 506l185 241 q14 19 60 88q394 586 582 629q20 5 39 5q53 0 95 -39q60 -51 60 -105v-5q-5 -94 -177 -247q-33 -29 -44 -41q-174 -164 -432 -507l-51 -68q-62 -82 -111 -143q-5 -7 -89 -113q-143 -184 -158 -202l-23 -27q-76 -93 -126 -173l-28 -44q-195 -317 -354 -464q-78 -72 -140 -72 q-35 0 -63 22q-41 31 -54 84q-5 20 -5 41zM286 1851q0 -70 60 -148q80 -104 142 -104q30 0 52 31q33 48 33 113q0 62 -30 139q-46 120 -129 120q-73 0 -110 -76q-18 -36 -18 -75zM1113 630q0 81 21 155q34 124 124 185q79 54 190 54q16 0 33 -1q263 -10 407 -195 q123 -156 123 -378v-17q-4 -193 -99 -328q-106 -150 -276 -150q-114 0 -237 74q-151 90 -234 328q-52 145 -52 273zM1424 542q0 -70 60 -148q80 -103 142 -103q31 0 52 31q33 48 33 112q0 62 -30 140q-46 119 -129 119q-73 0 -110 -76q-18 -36 -18 -75z" />
<glyph unicode="&#x26;" horiz-adv-x="1905" d="M10 373q0 154 185 285q99 69 292 186q-109 21 -235 114q-127 92 -127 221q0 29 7 61q33 159 182 253q55 36 311 130q137 23 175 189q44 185 86 233q50 57 124 57q41 0 67 -65q31 -72 31 -145q0 -36 -7 -72q-3 -12 -3 -24q-19 -40 -19 -67q0 -50 64 -58q99 -12 182 -25 q82 -14 103 -20q129 -38 151 -129q3 -13 3 -24q0 -75 -126 -97q-37 -6 -96 -6q-123 0 -312 5l-4 -343h11q52 0 107 -11q83 -27 96 -102q2 -12 2 -23q0 -77 -67 -131q-58 -29 -122 -41q-14 -140 -14 -237q0 -68 13 -123q14 -58 87 -58q13 0 29 3q32 3 45 17q59 17 65 18 q328 43 506 295q29 26 52 26q41 0 59 -79q13 -59 13 -115q0 -34 -4 -67q-33 -203 -408 -306q-324 -102 -387 -102q-13 0 -13 -20q0 -1 1 -3q0 -23 8 -113q8 -88 8 -142q0 -18 -1 -33q-9 -146 -100 -146q-72 0 -120 21q-75 68 -99 293q-24 84 -62 126q-52 59 -197 82 q-2 1 -146 28q-103 18 -168 40q-199 64 -223 197q-5 24 -5 47zM374 425q0 -15 13 -27q47 -57 360 -96q0 105 -7 311q-133 -5 -230.5 -60t-115.5 -96q-20 -27 -20 -32zM441 1181q0 -20 19 -37q41 -73 291 -80q-1 59 -1 76q0 18 0.5 61.5t0.5 169.5q-195 -35 -252.5 -85 t-57.5 -105z" />
<glyph unicode="'" horiz-adv-x="331" d="M-29 1983v12q0 91 42 91h4q28 12 60 12q67 0 153 -52q14 -190 14 -338q0 -235 -36 -362q-27 -41 -114 -41q-27 0 -61 4q-5 -2 -9 -2q-40 0 -45 194q-1 27 -1 59q0 48 2 106q0 22 2 66q1 32 1 42q0 37 -5 106q-7 77 -7 103z" />
<glyph unicode="(" horiz-adv-x="1083" d="M168 967q0 475 256 957q302 569 738 569q13 0 26 -1q43 -25 45 -60v-4q0 -79 -142 -215q-113 -109 -245 -195q-171 -135 -289 -438q-110 -283 -110 -535q-2 -37 -2 -73q0 -200 56 -394q67 -228 195 -384q36 -45 179 -154q140 -107 198 -164q92 -90 92 -147q0 -5 -1 -10 q-9 -59 -136 -106q-44 -13 -89 -13q-149 0 -297 139q-133 127 -245 347q-229 449 -229 881z" />
<glyph unicode=")" horiz-adv-x="1119" d="M-96 -253q0 81 125 164q322 216 491 646q104 266 104 516q0 180 -55 352q-81 252 -347 565q-151 179 -219 287q-22 35 -22 72q0 35 20 71q44 79 115 80q199 0 541 -573q159 -267 208 -522q24 -129 24 -278q0 -146 -23 -310q-44 -322 -193 -605q-148 -284 -365 -464 q-175 -144 -287 -144q-17 0 -28 8q-88 53 -89 132v3z" />
<glyph unicode="*" horiz-adv-x="898" d="M-89 1640q0 16 8 30q28 53 155 53q57 0 89 -8q14 -4 24 -4q14 0 20 7q16 16 16 96q0 17 -1 37q-1 19 -1 36q0 133 41 175q34 35 92 35h11l11 -9q108 -124 119 -337l20 6q112 33 162 33q68 0 84 -45q13 -33 13 -61q0 -29 -13 -53q-32 -63 -175 -101q22 -27 92 -68 q76 -45 103 -79q34 -43 34 -76q0 -14 -6 -27q-23 -48 -118 -48q-127 0 -188 48q-81 64 -113 69h-6q-25 0 -77 -27q-63 -32 -108 -49q-46 -18 -79 -18q-57 0 -74 47q-7 19 -7 39q0 66 71 143q-12 5 -35 13q-113 41 -145 90q-19 29 -19 53z" />
<glyph unicode="+" horiz-adv-x="1471" d="M107 754q0 27 9 58q28 90 190 90q58 0 172 -15q46 -6 65 -7v15q-1 12 -1 16q-2 41 -2 79q0 218 70 291q54 57 149 57h7q38 0 63 -28q39 -44 39 -185q0 -75 -11 -178q-4 -36 -5 -49q5 1 17 3q12 1 19 2q117 16 178 16q135 0 195 -61q49 -51 49 -142v-11q-2 -91 -175 -91 q-30 0 -82 2q-55 2 -79 2q-79 0 -107 -16q2 -27 11 -89q12 -82 12 -138q0 -49 -9 -79q-30 -106 -170 -150q-20 -6 -38 -6q-39 0 -66 28q-51 53 -51 252q0 45 3 97q2 41 2 58q-46 -3 -95 -3q-259 0 -333 99q-26 36 -26 83z" />
<glyph unicode="," horiz-adv-x="631" d="M-45 -372q0 91 152 389q16 31 21 41q17 37 21 119q5 86 25 117q31 47 113 47q13 0 28 -1q97 0 141 -76q29 -50 29 -122q0 -29 -5 -62q-17 -114 -84 -231q-73 -126 -175 -198q-102 -71 -210 -71h-13q-24 0 -37 20q-6 10 -6 28z" />
<glyph unicode="-" horiz-adv-x="1192" d="M39 523v10q0 38 19 85q19 106 126 113q24 2 54 2q16 1 37 1q22 0 50 -1h39q56 0 87 2l36 3q73 6 145 11l74 5q28 1 54 2q39 3 73 7l59 6q14 1 45 8q33 7 60 9h15q44 0 71 -15q49 -27 52 -142q1 -6 1 -12q0 -15 -4 -31q-14 -73 -70 -88q-93 -24 -137 -27q-15 -1 -39 -1 q-23 0 -54 1h-19q-78 0 -178 -7q-34 -2 -69 -5l-208 -14l-94 -5q-23 -2 -51 -6q-15 -2 -29 -3q-15 -1 -29 -1q-24 0 -47 3q-29 3 -47 27q-19 28 -22 63z" />
<glyph unicode="." horiz-adv-x="600" d="M106 153v10q4 57 43 99q45 48 120 53q92 0 148 -51q50 -47 50 -111q0 -66 -51 -109q-52 -44 -139 -44q-28 0 -57 5q-57 11 -89 60q-25 40 -25 88z" />
<glyph unicode="/" horiz-adv-x="1377" d="M49 -214q0 21 3 43q31 215 253 725l4 -1q101 236 253 667l115 317q8 25 36 114q226 755 400 860q21 13 41 18q18 5 35 5q35 0 70 -20q76 -40 90 -104l1 -5q3 -14 3 -31q0 -106 -111 -297q-23 -40 -32 -56q-123 -230 -283 -678l-31 -90q-36 -101 -69 -188 q-12 -27 -56 -148q-90 -240 -101 -268l-15 -35q-49 -124 -76 -224l-15 -57q-106 -402 -221 -611q-59 -104 -122 -123l-2 -1q-13 -4 -27 -4q-21 0 -43 10q-49 24 -78 80q-11 25 -17 51q-5 25 -5 51z" />
<glyph unicode="0" horiz-adv-x="1503" d="M138 913q0 461 188 731q158 226 361 226h11q361 -13 535 -279q90 -138 166 -467q28 -122 28 -244q0 -242 -110 -485q-85 -187 -220 -293q-152 -122 -347 -122q-330 0 -491 332q-120 247 -121 601zM432 882q4 -224 85 -406q93 -211 248 -211q14 0 28 2q153 17 252 253 q76 183 76 345q0 18 -1 35q0 209 -110 431q-125 250 -294 262h-4q-27 0 -69 -35q-53 -47 -98 -132q-113 -209 -113 -518v-26z" />
<glyph unicode="1" horiz-adv-x="929" d="M69 1053q0 22 5 51q20 111 159 237q160 142 193 208q23 44 64 155q40 105 66 153q73 131 197 131q35 0 82 -13q1 -26 1 -52q0 -174 -59 -628q-56 -433 -62 -654q0 -25 6 -117q5 -239 5 -291v-16q-5 -188 -96 -235q-43 -22 -79 -22q-109 0 -128 198q-4 43 -4 99 q0 47 3 264q2 28 6 87q3 45 3 60q5 319 14 432l-203 -104q-60 -28 -99 -28q-74 0 -74 85z" />
<glyph unicode="2" horiz-adv-x="1524" d="M33 227q0 100 137 196q543 379 824 771q50 68 53 129v6q0 51 -33 86q-47 47 -121 47q-51 0 -118 -22q-167 -56 -299 -295q-20 -38 -69 -57q-34 -13 -71 -13q-11 0 -22 1q-52 7 -80 38q-23 26 -23 60q0 13 3 26q48 245 285 414q220 155 466 155h21q248 0 356 -194 q53 -97 53 -205q0 -95 -40 -199q-87 -218 -356 -448q-350 -297 -409 -370q289 -33 466 -42h7q47 0 191 21q77 11 129 11q43 0 68 -7q87 0 109 -63q6 -19 6 -45q0 -34 -10 -78q-18 -83 -162 -119q-59 -15 -208 -28q-150 -13 -310 -13q-284 0 -602 41q-196 25 -234 149 q-7 24 -7 47z" />
<glyph unicode="3" horiz-adv-x="1630" d="M60 493q0 11 2 21q11 46 73 103q21 18 52 18q43 0 103 -38q14 -8 119 -91q152 -119 345 -183q132 -43 240 -43q76 0 140 21q96 33 109 85q2 10 2 19q0 40 -39 88q-96 114 -245 157q-218 64 -294 117q-64 46 -64 97q0 66 109 138q14 9 210 110q116 59 176 141q10 20 54 88 v6q0 46 -21 73q-16 11 -48 11q-43 0 -108 -21q-20 -7 -232 -95q-139 -58 -206 -58h-4q-98 4 -98 111v7q0 153 309 261q237 82 400 82h11q200 0 276 -108q43 -61 43 -147q0 -63 -22 -139q-34 -118 -138 -223q-24 -24 -93 -86q-60 -54 -85 -81q180 -70 320 -225 q134 -149 134 -294q0 -35 -7 -69q-41 -186 -252 -281q-165 -75 -372 -75h-11q-235 0 -479 99q-284 116 -377 299q-32 63 -32 105z" />
<glyph unicode="4" horiz-adv-x="1698" d="M59 719q0 26 9 58q33 110 170 233q42 36 119 96q80 64 109 90l464 405q11 9 88 96q77 86 128 130q78 66 135 66q77 0 103 -113q-3 -49 -35 -141q-33 -91 -37 -141q-18 -236 -18 -372q0 -71 4 -103q44 2 149 14q108 13 147 15q15 1 29 1q122 0 122 -64q0 -5 -1 -9 q-4 -32 -64 -108q-73 -93 -142 -109q-203 -45 -243 -55q-35 -9 -35 -133q0 -46 5 -105q6 -71 21 -172q17 -107 17 -108q3 -25 3 -47q0 -73 -29 -113t-76 -40q-13 0 -28 4q-60 15 -104 79q-47 69 -54 164q-2 29 -4 214q-1 130 -38 205q-1 4 -7 4q-56 0 -194 -18 q-57 -8 -174 -24q-93 -13 -112 -15q-150 -12 -225 -12q-34 0 -53 2q-149 21 -149 126zM593 962q322 21 424 37q3 41 3 100q0 111 -9 228q-17 -14 -93 -71q-105 -78 -127 -94q-149 -117 -198 -200z" />
<glyph unicode="5" horiz-adv-x="1488" d="M112 526q0 18 2 35q18 130 173 140h6q64 0 104 -70q15 -28 61 -147q36 -99 72 -140q43 -49 106 -49q9 0 19 1q267 29 386 201q70 100 70 218q0 83 -34 174q-154 246 -294 246q-13 0 -26 -2q-48 -7 -140 -40q-114 -39 -151 -48q-60 -17 -109 -17q-101 0 -151 69 q-9 13 -9 135q0 147 12 460q4 107 47 156q40 43 118 47q9 1 20 1q43 0 134 -10q72 -7 124 -7q26 0 47 2q61 5 125 5q146 0 303 -26q219 -37 229 -82q0 -2 6 -109v-9q0 -57 -36 -85q-62 -48 -157 -48q-35 0 -74 6q-40 6 -120 28q-77 19 -112 25q-135 23 -218 23 q-58 0 -90 -11q-73 -25 -73 -108q0 -61 36 -143q169 11 295 11q141 0 213 -15q270 -59 358 -331q40 -125 40 -250q0 -193 -98 -385q-164 -320 -471 -377q-56 -10 -111 -10q-146 0 -285 72q-163 85 -265 237q-82 124 -82 227z" />
<glyph unicode="6" horiz-adv-x="1700" d="M146 692q0 363 163 737q201 464 517 464q94 0 133 -45q27 -28 27 -71q0 -11 -2 -22q-6 -52 -38 -101q-31 -49 -64 -60q-137 -50 -266 -211q-152 -190 -173 -531q54 102 323 333q91 78 231 123q113 36 214 36q26 0 51 -2q218 0 313 -155q60 -99 60 -242q0 -54 -8 -113 q-29 -212 -149 -411q-125 -210 -297 -315q-173 -106 -365 -106q-180 0 -334 92q-153 91 -243 246q-93 161 -93 354zM565 500q0 -150 163 -186q49 -11 94 -11q89 0 165 44q156 91 249 279q63 129 63 241q0 64 -20 121q-18 50 -76 50q-84 0 -254 -96q-123 -70 -230 -189 q-115 -128 -154 -253z" />
<glyph unicode="7" horiz-adv-x="1556" d="M-20 1608q0 22 3 48q10 84 246 117q170 8 342 14q70 3 271 20q178 15 274 15q178 0 178 5q109 -20 109 -131v-12q-7 -141 -95 -325q-16 -32 -78 -153q-48 -93 -59 -117q-2 -4 -2 -7q0 -18 64 -18q38 0 96 -1q125 -2 184 -36q52 -31 52 -64q0 -49 -110 -100 q-151 -71 -239 -71q-122 -1 -132 -3q-42 -12 -79 -86q-35 -73 -80 -196q-62 -168 -75 -201q-76 -186 -143 -256q-49 -37 -156 -56q-26 -4 -47 -4q-77 0 -77 54q0 8 2 17q21 104 202 484q8 16 40 67q30 49 42 75q13 30 13 53q0 36 -38 49q-20 7 -109 7q-34 0 -76 -1h-6 q-75 0 -127 50q-34 33 -34 70q0 26 16 52q44 75 113 88l19 -1q32 0 123 2q156 3 204 23q78 31 114 152q72 233 72 288q0 16 -7 16q-5 0 -12 -7q-327 -11 -480 -46q0 -3 -135 -14q-76 -25 -135 -25q-24 0 -42 4q-18 -2 -36 -2q-170 0 -170 163z" />
<glyph unicode="8" horiz-adv-x="1440" d="M55 1503v8q0 348 568 348h16q238 0 416 -64q257 -93 257 -292q0 -131 -161 -277q-26 -24 -93 -66q-68 -44 -92 -64q-41 -35 -41 -69q0 -36 46 -70q291 -221 298 -229q115 -118 115 -271q0 -36 -6 -74q-32 -185 -212 -297q-152 -96 -337 -96h-22q-154 0 -336 99 q-194 106 -244 239q-25 68 -25 151q0 43 7 92q19 122 93 245q9 15 61 88q42 58 42 84q0 21 -27 21q-119 88 -203 192q-120 148 -120 302zM375 1516q40 -144 263 -305q15 -11 35 -11q44 0 112 48q79 56 146 140q6 6 6 16q0 33 -70 91q-86 70 -138 81q-56 12 -111 12 q-40 0 -80 -6q-105 -16 -163 -66zM508 490q0 -74 77 -135t194 -84q50 -10 94 -10q58 0 104 17q91 34 98 124q1 9 1 17q0 87 -76 165q-53 52 -170 119q-25 15 -72 48q-41 31 -59 40q-19 9 -35 9q-31 0 -59 -37q-96 -131 -96 -258q-1 -8 -1 -15z" />
<glyph unicode="9" horiz-adv-x="1265" d="M61 1171q0 311 269 542q254 218 561 218h14q111 -4 189 -56q48 -31 48 -67q0 -40 -47 -74q69 -41 69 -193q0 -63 -13 -145q-13 -76 -46 -210q-29 -120 -33 -152q-35 -316 -35 -467v-7q0 -281 82 -446q-52 -124 -152 -124q-17 0 -35 3q-115 23 -165 155q-18 109 -18 249 q0 58 3 123l23 443l-20 57q-213 -125 -401 -142q-22 -2 -42 -2q-251 0 -251 295zM367 1193q0 -32 1 -37l12 -20q180 0 324 171q130 152 181 360q-41 11 -90 11q-156 0 -285 -141q-143 -154 -143 -344z" />
<glyph unicode=":" horiz-adv-x="512" d="M57 153v10q4 57 43 99q45 48 120 53q92 0 148 -51q50 -47 50 -111q0 -66 -51 -109q-52 -44 -139 -44q-28 0 -57 5q-57 11 -89 60q-25 40 -25 88zM57 747v10q4 58 43 99q45 48 120 54q92 0 148 -52q50 -47 50 -111q0 -65 -51 -109q-52 -44 -139 -44q-28 0 -57 5 q-57 11 -89 60q-25 40 -25 88z" />
<glyph unicode=";" horiz-adv-x="547" d="M-86 -302q0 91 152 389q17 34 21 41q17 37 21 119q5 86 25 117q31 48 115 48q13 0 26 -1q97 0 141 -77q29 -50 29 -122q0 -29 -5 -62q-17 -114 -84 -231q-73 -126 -175 -198q-103 -71 -210 -71h-13q-24 0 -37 20q-6 10 -6 28zM82 857v10q3 58 43 99q45 48 120 54 q92 0 148 -52q50 -47 50 -111q0 -65 -51 -109q-52 -44 -139 -44q-28 0 -57 5q-57 11 -89 60q-25 40 -25 88z" />
<glyph unicode="&#x3c;" horiz-adv-x="1126" d="M-4 720q0 71 67 130q363 319 799 543l10 5l10 -4q117 -40 126 -119q1 -6 1 -12q0 -97 -168 -236q-122 -102 -387 -265q-65 -40 -83 -52q92 -54 251 -166q14 -10 88 -56q356 -220 364 -290q4 -31 4 -57q0 -78 -32 -113q-25 -28 -67 -28q-81 0 -321 171q-61 43 -90 63 q-21 14 -105 61q-202 111 -294 181q-161 122 -172 227q-1 9 -1 17z" />
<glyph unicode="=" horiz-adv-x="1208" d="M-1 840q0 27 14 61q48 114 262 114h177q272 0 431 -18q70 -8 156 -56q102 -55 106 -113v-5q0 -65 -120 -99q-76 -21 -179 -21q-83 0 -252 19q-154 17 -223 17q-16 0 -59 -3q-78 -7 -119 -7q-140 0 -178 58q-16 23 -16 53zM91 406v2q0 66 74 122q79 60 189 63l162 1 q317 0 480 -51q98 -30 98 -90q0 -6 -1 -12q-9 -59 -105 -111q-89 -49 -164 -49h-12q-181 13 -532 14q-111 1 -158 44q-31 27 -31 67z" />
<glyph unicode="&#x3e;" horiz-adv-x="1106" d="M-7 111q0 82 190 224q326 244 507 359q-25 16 -66 42q-523 329 -536 416q-18 42 -18 78t19 65q27 42 88 52q14 2 28 2q46 0 89 -22q104 -53 345 -239q188 -146 267 -193q150 -92 150 -196v-3q-1 -121 -208 -239q-118 -68 -296 -196q-22 -16 -87 -74q-210 -187 -294 -187 h-4q-153 23 -172 95q-2 8 -2 16z" />
<glyph unicode="?" horiz-adv-x="1296" d="M5 1889v6q1 60 45 109q68 77 170 101q60 13 172 13h34q242 0 517 -107q326 -125 326 -314q0 -13 -2 -28q-44 -353 -619 -462q-13 -2 -56 -6q-57 -5 -81 -8q-106 -13 -124 -35q46 -372 46 -433q-1 -97 -14 -132q-20 -51 -96 -89q-49 -24 -85 -24q-54 0 -77 56 q-5 9 -34 194q-9 61 -57 234q-40 148 -45 236q-1 12 -1 24q0 164 127 212q22 9 300 43q508 63 508 148q0 30 -61 63q-246 130 -504 159h-9q-48 0 -166 -47q-64 -26 -107 -26q-32 0 -53 13q-54 36 -54 100zM181 34q0 14 2 28q9 68 53 122q46 59 111 71q72 0 105 -48 q24 -32 24 -80q0 -14 -2 -29q-8 -62 -46 -113q-42 -53 -100 -63q-18 -2 -33 -2q-57 0 -87 35q-27 31 -27 79z" />
<glyph unicode="@" horiz-adv-x="1830" d="M60 495q0 133 30 274q39 191 285 400q238 138 460 138q63 0 124 -11q279 -50 437 -243q132 -207 151 -411q-9 -109 -34.5 -191.5t-107.5 -172.5q-84 -94 -226 -94q-107 0 -185 123q-2 3 -82 189q-39 -137 -135 -204q-116 -79 -208 -79q-8 0 -17 1q-137 17 -137 144v2 q1 102 51 229t218 258q79 76 225 113q53 -49 76 -73q43 -45 76 -253q14 -82 41 -126q36 -60 111 -81q82 20 82 158q0 24 -3 52q-13 138 -57 237q-72 163 -288 184q-33 3 -67 3q-145 0 -297 -59q-153 -59 -226 -205q-55 -109 -55 -242q0 -28 2 -57q15 -163 101 -293 q92 -138 233 -186q171 -59 327 -59q147 0 280 53l282 224q125 99 200 99q47 0 75 -38q22 -29 22 -63q0 -80 -119 -187q-114 -103 -251 -173q-249 -125 -535 -125q-56 0 -113 5q-392 32 -596 276q-124 185 -146 370q-4 46 -4 94zM602 407h5q82 0 170 139q57 113 57 174 q-181 -105 -232 -313z" />
<glyph unicode="A" horiz-adv-x="1871" d="M16 232q0 87 124 324q82 155 82 183v2q-1 9 -25 9q-15 0 -51 -5t-52 -5q-38 0 -53 22q-7 11 -7 25q0 16 9 36q33 79 82 118q42 32 131 61q154 49 330 498q7 19 28 78q70 204 124 299q95 169 208 171q224 0 266 -268q49 -316 129 -560q5 -14 12 -40q14 -54 29 -68 q11 -12 37 -12q8 0 17 1q13 1 39 6q52 10 79 10q67 0 105 -44q20 -23 20 -48q0 -12 -5 -25q-27 -78 -203 -133l10 -28q115 -296 206 -415q13 -17 47 -56q80 -90 106 -143q24 -48 24 -94q0 -38 -17 -74q-27 -57 -79 -57q-90 0 -238 192q-91 119 -131 195q-33 63 -92 195 q-64 142 -99 208q-32 60 -150 60q-24 0 -68 -3q-31 -2 -43 -2q-118 -3 -349 -47q-260 -431 -322 -510q-104 -131 -180 -131q-20 0 -38 7q-28 12 -38 41q-4 11 -4 27zM719 1074q47 7 150 31q132 31 193 36l-20 100q-57 300 -107 382q-54 -99 -166 -412q-36 -101 -50 -137z " />
<glyph unicode="B" horiz-adv-x="1681" d="M-95 1776q0 15 7 28q19 35 83 50q15 3 43 4q39 1 49 2q58 5 77 37q47 77 75 101q41 37 101 37q9 0 18 -1q50 0 91 -39q73 -72 72 -71q57 -40 190 -46q34 -2 108 -2q66 0 94 -2q174 -14 235 -31q144 -41 144 -142v-11q-11 -159 -234 -344q4 4 -180 -123q-47 -32 -183 -108 q79 6 167 6q66 0 137 -3q166 -8 232 -13h18q167 0 254 -35q117 -47 117 -165q0 -280 -394 -519q-311 -189 -648 -251q0 -61 -47 -99q-43 -34 -107 -36h-10q-54 0 -72 20q-32 34 -47 41q-22 9 -41 9q-12 0 -24 -4q-38 -13 -62 -13h-3q-44 1 -84 62q-31 46 -31 82q0 10 3 20 q14 47 53 64q15 7 72 15q43 6 60 25q19 22 19 69q0 12 -1 25q-2 22 -2 58q0 27 1 61q1 42 1 73q0 30 -1 49q-10 141 -101 198q-83 52 -83 101q0 11 4 21q18 52 115 117q-3 119 -6 221q-8 282 -14 309q0 1 -49 2q-52 2 -59 3q-101 20 -145 106q-12 23 -12 42zM459 1621 q10 -135 18 -357q377 172 477 360q-122 37 -269 37q-26 0 -54 -1q-110 -3 -172 -39zM513 804l35 -400q545 204 715 425q-15 2 -179 24q-122 16 -204 20q-32 2 -62 2q-201 0 -305 -71z" />
<glyph unicode="C" horiz-adv-x="1952" d="M7 728q0 112 31 234q100 390 427 679q315 279 633 279q14 0 28 -1q62 -5 115 -35q59 -35 76 -88q6 -18 6 -35q0 -101 -203 -185l-74 -30q-303 -123 -440 -252q-136 -127 -217 -275q-82 -149 -82 -278q0 -23 3 -45q20 -177 207 -286q157 -92 369 -92q337 0 607 196 q3 2 44 41q536 509 661 509q37 0 47 -33q7 -23 7 -49q0 -152 -235 -412q-213 -236 -496 -393q-318 -177 -666 -177q-263 0 -468 112q-286 158 -358 434q-22 87 -22 182z" />
<glyph unicode="D" horiz-adv-x="1957" d="M-292 1718v11q11 156 181 156q74 0 230 -41q68 -18 92 -22q4 85 59 144q57 61 138 61h8q58 0 96 -40q49 -51 49 -141v-11q-1 -23 -7 -52q-3 -13 -3 -15q3 -5 32 -24q77 -46 206 -90q209 -70 592 -274l85 -45q323 -171 407 -336q36 -70 36 -144q0 -86 -49 -177 q-75 -140 -235 -247q-245 -164 -677 -273q-38 -10 -130 -32l-41 -10q1 -2 1 -3h-1q2 -13 2 -24q0 -32 -20 -46q-64 -43 -126 -43q-39 0 -110 24q-67 22 -106 26q-14 1 -56 3q-249 6 -309 87q-25 35 -25 81q0 28 9 60q28 100 185 100q42 0 117 -9q3 0 10 -1q6 -1 9 -1 q-49 407 -92 715q-3 22 -3 107q0 265 -37 283q-27 13 -145 31q-176 27 -251 59q-121 53 -121 153zM529 1393q1 -153 38 -455q13 -109 18 -157q1 -17 4 -65q17 -262 67 -310q380 70 598 168l28 12q262 113 269 222v10q0 172 -420 375l-78 38q-328 165 -481 165q-22 0 -43 -3z " />
<glyph unicode="E" horiz-adv-x="1482" d="M18 1701q0 7 1 15q4 35 28 76q45 77 204 126q89 28 125 51q88 58 146 58q6 0 12 -1q56 -6 136 -80q23 -22 72 -27q17 -2 37 -2q83 0 219 33q142 33 207 33q12 0 21 -1l7 -1q97 -11 115 -80q3 -11 3 -23q0 -7 -1 -14q-2 -25 -16 -50q-25 -47 -74 -81q-117 -82 -352 -82 q-21 0 -43 1q-18 1 -68 6q-60 6 -107 6q-135 0 -164 -51q-30 -58 -45 -187q-4 -29 -7 -63q0 -15 -2 -30q321 44 593 45q7 0 32 1q30 1 55 1q41 0 67 -3q84 -10 114 -51q17 -23 17 -48v-7q-1 -10 -6 -19q-17 -50 -93 -98q-62 -39 -110 -51q-110 -28 -333 -28h-15l-42 1 q-16 0 -51 2q-36 2 -64 2q-39 0 -63 -4q-68 -11 -94 -55q-40 -70 -58 -225l-2 -19q-5 -56 -5 -105q0 -113 29 -184q28 -64 78 -76q11 -2 22 -3q15 -2 32 -2q117 0 342 85q64 25 94 35q264 91 454 91q43 0 82 -5q34 -4 64 -11q49 -11 72 -76q9 -24 9 -46q0 -5 -1 -11 q-2 -23 -17 -41q-36 -48 -260 -62q-67 -5 -86 -7q-209 -40 -483 -191l-12 -7q-238 -130 -375 -130h-15l-14 1q-215 25 -270 412q-14 103 -14 238q0 43 1 89q3 92 11 198q-81 14 -113 64q-14 22 -14 48q0 7 1 13q2 19 11 41q13 33 60 93q22 29 29 41q36 58 55 206 q9 72 17 108q-19 0 -35 2q-109 13 -140 74q-10 19 -10 42z" />
<glyph unicode="F" horiz-adv-x="1363" d="M13 1701q0 5 1 11q4 35 27 77q43 78 202 130q88 29 124 54q88 61 147 61q5 0 10 -1q57 -5 138 -76q30 -25 80 -30q9 -1 20 -1q74 0 230 41q144 36 209 36q9 0 17 -1q105 -10 122 -79q4 -11 4 -24q0 -5 -1 -10q-2 -26 -18 -56q-26 -48 -78 -84q-125 -85 -382 -86 q-19 1 -70 5q-54 5 -98 5q-146 0 -171 -52q-30 -59 -42 -189q-3 -30 -5 -64q-1 -21 -2 -32q38 6 81 14q297 54 473 54q47 0 85 -4q93 -9 171 -36q64 -23 64 -65v-5l-1 -2q-7 -57 -127 -123q-106 -58 -161 -61q-31 -2 -81 -2q-37 0 -84 1q-28 1 -54 1q-184 0 -275 -31 q-111 -37 -146 -238q-6 -37 -10 -76q-5 -53 -5 -109q0 -74 9 -154q3 -22 21 -93q38 -143 38 -231q0 -18 -2 -33q-4 -51 -26 -77q-35 -42 -103 -42h-9l-8 1q-143 14 -180 228q-11 67 -11 166q0 74 6 167l1 22q3 40 10 132q11 134 13 204v1q0 20 -54 44q-80 33 -80 84v6l1 5 q7 43 70 103q42 40 52 62q22 45 31 135q3 31 4 66q1 54 5 91q2 25 6 42q-17 1 -36 2q-109 11 -140 70q-12 21 -12 46z" />
<glyph unicode="G" horiz-adv-x="1563" d="M16 1129q0 58 5 119q12 131 48 270q79 301 245 462q148 143 342 143q24 0 49 -2q12 -1 25 -3q164 -15 294 -175q124 -151 133 -323q1 -5 1 -11t-1 -12q-6 -71 -81 -143q-39 -38 -75 -38h-7q-22 2 -42 16q-65 48 -108 197q-9 33 -15 47q-43 131 -131 138q-8 1 -15 1 q-112 0 -211 -150q-118 -179 -142 -449q-5 -62 -6 -128v-9q0 -204 89 -464q113 -336 288 -352q7 -1 14 -1q56 0 119 35q238 135 400 719q-101 -6 -241 -21q-23 -2 -63 -8q-37 -6 -66 -6q-13 0 -24 1q-12 1 -22 3q-50 12 -87 62q-35 48 -35 89v9q1 13 6 26q28 70 160 93l48 9 q251 44 395 44q34 0 62 -2q79 -7 135 -30q43 -18 43 -117q0 -22 -2 -49q-6 -60 -22 -140l-2 -11q-43 -218 -164 -431q-277 -486 -647 -527q-24 -3 -48 -3q-19 0 -38 2q-291 26 -464 439q-123 293 -140 603q-2 38 -2 78z" />
<glyph unicode="H" horiz-adv-x="1585" d="M-51 861q0 32 15 58q22 38 67 49q30 7 77 7l37 -1q28 0 46 3q16 1 16 62q0 37 -6 97q-3 28 -3 37v23q-4 218 -21 418q-2 14 -5 46q-13 117 -13 191q0 25 1 45q11 143 87 186q58 33 103 33q48 0 82 -37q67 -73 67 -327q0 -98 -10 -224q-5 -68 -5 -84v-26q0 -64 -4 -125 q-3 -50 -3 -105q0 -28 1 -57q3 -80 40 -112q31 -26 100 -26q31 0 102 7q68 7 102 8q88 3 117 35q24 25 24 122q0 14 -1 30q-1 30 -2 48q-1 51 -1 116q-2 120 -14 254q-1 11 -7 52q-15 120 -15 209q0 170 54 231q40 46 105 46q76 0 125 -55q88 -97 88 -400q0 -147 -21 -343 q-6 -58 -7 -79l-4 -46q-6 -78 -6 -118q8 -69 29 -90q15 -15 67 -25q43 -9 68 -16q119 -36 125 -106v-5q0 -47 -67 -80q-92 -45 -198 -67h-1v-26q0 -119 33 -264q35 -153 39 -273v-6q0 -63 -41 -104q-45 -47 -122 -47q-19 0 -40 3q-67 12 -92 67q-14 32 -19 105 q-6 90 -16 109q-13 28 -24 116q-2 15 -5 79q-11 241 -32 270q-14 19 -110 19q-80 0 -258 -20q-52 -6 -70 -7q2 -20 8 -87q21 -212 21 -351q0 -177 -34 -236q-33 -56 -114 -56q-50 0 -96 24q-50 26 -65 68q-14 37 -14 127q0 62 7 149q6 80 6 143q0 170 -42 215q-25 26 -68 26 q-27 0 -62 -10q-15 -5 -28 -5q-28 0 -51 19q-35 27 -41 77q-1 9 -1 17z" />
<glyph unicode="I" horiz-adv-x="507" d="M29 1723q0 256 71 336q41 45 102 45h7q86 0 126 -47q31 -38 31 -124q0 -56 -13 -133q-7 -38 -9 -53q-17 -122 -17 -322q0 -154 10 -353q9 -190 11 -281q0 -35 1 -88q0 -193 14 -288l7 -46q18 -113 18 -187q0 -33 -4 -59q-9 -60 -51 -93q-37 -30 -84 -30q-49 0 -88 30 q-40 30 -55 78q-26 86 -26 246q0 44 2 93l2 56q1 44 1 97q0 220 -20 593l-4 91q-1 22 -10 98q-22 198 -22 341z" />
<glyph unicode="J" horiz-adv-x="1361" d="M0 1133q0 54 11 95q26 98 113 98q64 0 138 -53q70 -50 100 -109q5 -22 5 -43q0 -55 -38 -107q17 -95 46 -183q71 -216 194 -359l12 -13q113 -134 169 -134q29 0 50 37q54 97 86 334l7 48q43 304 43 495q0 77 -7 136q-6 51 -22 161q-33 227 -33 392q0 181 40 287 q37 95 112 95q171 0 176 -325l2 -104q4 -329 15 -495q17 -268 17 -439q0 -65 -2 -115q-17 -308 -119 -542q-61 -138 -160 -214q-100 -76 -221 -76q-202 0 -369 198q-147 175 -254 470l-10 28q-101 276 -101 437z" />
<glyph unicode="K" horiz-adv-x="1748" d="M-34 1068q0 21 10 39q22 41 93 85q67 41 93 79q46 63 53 180q1 8 1 23q0 30 -3 87q-2 55 -2 105q0 285 74 362q38 40 95 40q13 0 28 -2q53 -1 84 -39q36 -44 36 -159q0 -120 -39 -318q-15 -80 -19 -107q72 35 215 141q111 81 163 112q49 28 148 107q150 120 230 148 q28 10 57 10t59 -10q60 -20 84 -65q13 -24 13 -49q0 -34 -24 -70q-137 -203 -302 -287q-103 -52 -269 -150q-100 -59 -157 -92q-156 -87 -161 -175v-5q0 -94 172 -219l46 -34q470 -344 704 -395l17 -4q215 -45 255 -148q7 -20 7 -37q0 -21 -10 -38q-25 -42 -100 -51 q-55 -7 -110 -7q-175 0 -340 73q-216 96 -399 239q-15 13 -50 42q-133 115 -204 124q1 -33 20 -147q27 -155 27 -256q0 -118 -37 -161q-32 -39 -89 -39q-11 0 -24 2q-116 12 -155 187q-24 103 -26 346q-3 176 -16 220q-11 40 -114 132q-81 72 -107 109q-27 39 -27 72z" />
<glyph unicode="L" horiz-adv-x="1453" d="M63 683v98q0 244 12 490q1 12 1 37q0 26 -1 64v28q0 163 11 287q25 284 107 359q38 35 86 35q7 0 13 -1q7 0 14 -2q71 -6 107 -57q28 -40 28 -123q0 -23 -2 -49q-8 -85 -40 -206q-15 -59 -19 -80q-13 -72 -21 -164q-12 -137 -12 -318t12 -406q9 -163 13 -247 q87 12 202 23q166 16 320 50q165 38 329 38q63 0 125 -6q163 -15 210 -80q19 -27 19 -61v-9q-1 -11 -4 -23q-18 -74 -126 -100q-61 -15 -191 -16q-41 -1 -55 -2q-205 -15 -478 -87q-106 -28 -164 -42q-18 -4 -69 -20q-150 -46 -229 -46q-11 0 -20 1q-149 13 -149 188v2 q0 72 -14 235q-14 148 -15 210z" />
<glyph unicode="M" horiz-adv-x="2113" d="M41 386q0 199 91 571v-1l100 447q59 261 86 327q53 130 152 181q40 21 78 21q69 0 131 -68q136 -150 202 -600q16 -109 43 -357q23 -208 39 -291q22 129 104 570q71 379 94 533q32 216 53 259q54 115 215 115h11q115 -125 204 -406q132 -419 368 -1282q31 -114 31 -207 q0 -24 -2 -46q-11 -109 -76 -109q-19 0 -43 9q-157 62 -312 672q-34 132 -113 485q-61 275 -92 370q-4 -361 -150 -959q-74 -304 -152 -464q-76 -156 -146 -156q-15 0 -30 7q-152 70 -259 686q-131 750 -149 793q-59 -156 -122 -680q-63 -518 -119 -657q-30 -73 -74 -73 q-26 0 -58 27q-75 65 -96 176q-9 45 -9 107z" />
<glyph unicode="N" horiz-adv-x="1485" d="M58 1369q0 265 21 400q15 96 58 150q42 54 102 54q119 0 198 -183q354 -815 629 -1290v58q0 366 -34 953q-1 19 -3 44q-9 121 -9 220q0 297 80 383q37 40 90 40q60 0 97 -41q64 -71 64 -290q0 -98 -13 -227q-4 -35 -4 -41q-20 -234 -20 -508q0 -252 17 -539 q2 -30 13 -105q15 -106 15 -183q0 -115 -32 -167q-55 -90 -146 -90q-145 0 -264 183q-144 218 -395 749q-106 223 -155 320q-4 -232 -4 -436q0 -347 11 -611v-7q0 -83 -68 -154q-49 -51 -101 -51q-63 0 -103 73q-36 64 -40 217l-1 32q0 58 -1 260v496q0 58 -1 180 q-1 58 -1 111z" />
<glyph unicode="O" horiz-adv-x="1470" d="M42 1059q0 556 226 789q159 164 424 164q330 0 516 -463q101 -252 133 -540q13 -115 13 -218q0 -388 -184 -610q-135 -163 -356 -179q-25 -2 -52 -2q-331 0 -531 310q-176 271 -188 660q-1 45 -1 89zM346 1200q0 -128 25 -290q88 -583 361 -606q14 -1 28 -1q125 0 199 90 q91 112 102 346q1 30 1 60q0 145 -28 283q-80 384 -218 543q-45 51 -94 77q-31 17 -54 17q-21 0 -36 -14q-12 -10 -33 -43q-45 -69 -89 -69q-15 0 -31 5q-133 -104 -133 -398z" />
<glyph unicode="P" horiz-adv-x="1387" d="M-28 1775q0 44 50 99q25 27 83 52q62 27 85 47q69 59 142 59q9 0 18 -1q53 0 79 -41q31 -48 84 -60q325 -76 462 -130q292 -116 395 -236q76 -89 76 -199q0 -99 -60 -214q-102 -198 -397 -291q-101 -32 -263 -63q-244 -47 -256 -49q-49 -11 -49 -120q0 -55 12 -134 q7 -48 35 -187q20 -104 20 -137v-23q0 -151 -38 -198q-24 -29 -58 -29q-40 0 -94 39q-109 64 -128 124q-14 45 -14 211q0 47 1 102q1 30 1 57q0 188 -31 243q-7 13 -59 45q-45 28 -51 65q-1 7 -1 14q0 33 31 62l71 52q-13 294 -16 446q0 17 6 81q8 69 9 106v12q5 31 5 54 q0 62 -40 62h-13q-66 0 -89 46q-8 16 -8 34zM408 1379q0 -274 7 -342q358 57 445 81q294 81 294 201v4q0 126 -292 234q-25 8 -406 97l-47 -6q-1 -176 -1 -269z" />
<glyph unicode="Q" horiz-adv-x="1762" d="M45 798q0 255 66 509q86 328 250 498q157 162 369 162h17q287 0 548 -488q219 -407 219 -707q0 -28 -2 -56q-9 -117 -50 -232q-19 -51 -43 -101q56 -82 116 -132q36 -30 116 -58q77 -26 105 -54q41 -44 41 -133v-16q-5 -110 -109 -110q-76 0 -197 63q-90 47 -145 92 q-81 67 -121 67q-28 0 -115 -32l-7 -3q-144 -53 -293 -53q-136 0 -277 45q-220 70 -349 248t-138 423q-1 34 -1 68zM346 782q0 -84 13 -149q34 -176 163 -273q116 -87 264 -99q21 -2 42 -2q122 0 210 62q-49 62 -210 186q-162 124 -226 196q-107 121 -107 242v2 q2 148 98 148q146 0 438 -327q6 -7 21 -24q132 -163 164 -163q31 32 31 111q0 89 -39 238q-59 227 -155 413q-166 322 -368 337q10 -68 13 -138q1 -19 1 -35q0 -55 -16 -72q-8 -9 -22 -9q-24 0 -65 28q-55 38 -81 38q-6 0 -11 -2q-112 -28 -140 -446q-4 -62 -6 -84 q-12 -98 -12 -178z" />
<glyph unicode="R" horiz-adv-x="1762" d="M-70 1807q0 43 70 93q69 50 224 65q39 4 100 60q54 50 99 50h5q43 0 64 -38q40 -73 41 -74l317 -85q46 -14 162 -43q117 -29 180 -48q217 -66 314 -162q71 -70 71 -180q0 -42 -10 -89q-32 -148 -125 -246q-106 -113 -326 -221q-182 -90 -348 -126q98 -57 662 -342 q371 -180 371 -235v-4q-20 -69 -101 -116q-56 -33 -99 -33q-17 0 -32 5q-392 136 -674 309q-332 204 -382 225q4 -266 4 -316v-12q-8 -213 -72 -230q-53 -14 -93 -14q-106 0 -133 63q-12 29 -12 157v20q0 20 6 98q6 81 7 126v27q0 129 -27 134l-29 -1q-35 -4 -44 -4h-7 q-48 0 -70 28q-17 23 -17 54q0 27 12 59q22 61 61 96q3 0 80 45q25 26 27 80q5 140 6 425q0 218 3 218q-15 83 -113 84q-101 2 -151 52q-21 22 -21 46zM492 1470q0 -277 13 -479q758 187 758 362q0 18 -5 35q-33 115 -512 232q-131 31 -180 31q-11 0 -18 -2 q-56 -20 -56 -179z" />
<glyph unicode="S" horiz-adv-x="1795" d="M-87 1532v5q0 194 296 302q208 75 483 89q29 2 58 2q188 0 376 -67q227 -81 227 -201q0 -12 -2 -24q-15 -81 -41 -109q-17 -19 -47 -19q-9 0 -20 2q-24 4 -106 33q-88 32 -156 46q-101 22 -224 22q-95 0 -202 -13q-242 -28 -250 -83q-1 -7 -1 -14q0 -122 335 -234 q99 -33 336 -98q231 -65 339 -101q336 -114 453 -207q107 -85 107 -204q0 -32 -8 -67q-41 -179 -280 -350q-254 -181 -573 -229q-89 -13 -175 -13q-246 0 -467 109q-309 153 -312 411v10q0 225 140 271q26 8 51 8q26 0 51 -9q48 -18 56 -53q1 -7 1 -17q0 -18 -4 -46 q-10 -57 -10 -80v-9q0 -101 84 -167q175 -137 414 -137q58 0 119 8q323 43 558 284q29 30 29 56q0 19 -15 36q-33 35 -145 73q-57 19 -264 76q-206 58 -342 103q-462 156 -625 254q-239 145 -244 351z" />
<glyph unicode="T" horiz-adv-x="1371" d="M-217 1753q0 89 168 137q136 38 312 40q214 3 607 38q420 38 607 43q65 0 130 -42q53 -34 53 -75q0 -21 -14 -44q-51 -85 -186 -127q-69 -22 -221 -42q-9 -1 -27 -1t-46 1q-77 3 -101 3q-131 0 -156 -37q-54 -79 -54 -289v-8q1 -70 8 -173q9 -137 10 -141 q25 -540 28 -654q0 -23 6 -78q5 -58 6 -87v-23q0 -90 -28 -134q-35 -53 -141 -60h-5q-53 0 -78 87q-3 9 -24 143q-42 258 -48 708q-1 63 -1 146q0 194 5 496v1q0 44 -84 59q-27 4 -112 6h-5q-34 0 -125 -11q-121 -15 -179 -19q-40 -3 -75 -3q-164 0 -204 63q-26 41 -26 77z " />
<glyph unicode="U" horiz-adv-x="1490" d="M35 1101q0 256 51 547q2 8 6 34q19 133 60 180q34 39 111 39q106 0 138 -61q15 -29 15 -74q0 -57 -25 -139q-13 -43 -17 -63q-28 -141 -28 -323q0 -51 2 -105l2 -51q11 -282 42 -426q56 -255 193 -323q84 -42 154 -42q170 0 262 247q65 175 68 367q1 36 1 71 q0 356 -75 601l-10 33q-46 148 -57 227q-5 39 -5 72q0 85 35 133q45 61 142 61q19 0 39 -2l10 -1l7 -8q148 -177 204 -640q23 -188 23 -362q0 -265 -53 -501q-104 -460 -375 -562q-80 -30 -172 -30q-196 0 -385 127q-190 127 -254 301q-109 299 -109 673z" />
<glyph unicode="V" horiz-adv-x="1266" d="M-114 1698q0 85 51 129q44 39 88 39q58 0 116 -67q65 -74 120 -212q0 -1 181 -496q130 -357 199 -487q84 179 182 564q110 432 160 565q112 295 134 330q81 129 204 129q42 0 88 -15q31 -13 31 -65q0 -72 -60 -220q-26 -65 -91 -206q-57 -122 -72 -165 q-166 -473 -248 -796q-73 -287 -209 -641q-32 -84 -80 -84q-43 0 -99 67q-93 113 -134 254q-53 204 -435 1002q-84 177 -106 254q-20 68 -20 121z" />
<glyph unicode="W" horiz-adv-x="1808" d="M6 1404q0 106 14 200q12 85 45 145q43 83 110 83h5q88 -3 110 -53q10 -23 10 -104v-28q-1 -55 -1 -107q0 -496 78 -716q32 88 52 239q29 225 32 244q40 213 51 253q48 163 134 209q29 16 56 16q146 0 265 -428q150 -538 360 -918q102 309 102 895q0 146 -6 310 q-10 264 -42 498q-6 40 -6 71q0 64 24 88q14 14 55 36q54 29 85 49q124 -130 152 -375q9 -71 9 -209q0 -89 -4 -206q-25 -827 -65 -1104q-66 -463 -225 -463q-84 0 -195 131q-136 161 -263 475q-157 387 -221 497v-1q0 -65 -82 -763q-30 -252 -79 -323q-32 -45 -75 -45 t-97 45q-89 75 -120 166q-150 440 -205 686q-63 280 -63 507z" />
<glyph unicode="X" horiz-adv-x="1572" d="M4 154q0 119 134 314q20 30 96 117q234 270 234 370q0 5 -1 10q-14 104 -195 288q-40 41 -58 62q-188 209 -188 372q0 71 36 134q38 67 91 67q18 0 38 -8q79 -31 168 -180q34 -56 94 -169q56 -107 86 -158q83 -139 121 -139q35 0 84 69q30 41 79 111q166 235 262 344 q13 14 41 49q130 166 211 166q55 0 105 -21q71 -30 71 -88q2 -15 2 -31q0 -80 -61 -165q-43 -59 -154 -159q-53 -48 -74 -70l-34 -35q-206 -214 -276 -339q-21 -38 -21 -80q0 -48 26 -101q31 -64 153 -212q103 -126 155 -201q18 -25 92 -83q164 -126 165 -217v-3 q0 -63 -42 -107q-50 -51 -120 -51q-17 0 -36 3q-90 16 -187 135q-59 72 -168 253q-120 199 -175 249q-20 18 -43 18q-119 0 -331 -403l-4 -8q-136 -257 -251 -257q-58 0 -101 67q-24 37 -24 87z" />
<glyph unicode="Y" horiz-adv-x="1671" d="M5 486q0 161 107 237q36 25 68 25q72 0 114 -124q23 -70 44 -220q7 -54 11 -67q36 -148 164 -299q152 -177 309 -177q64 0 125 32q125 67 193 217q49 111 78 304q10 68 10 155q0 231 -72 596q-37 190 -51 284q-32 -26 -97 -164q-12 -27 -16 -34q-97 -177 -274 -282 q-134 -80 -273 -80q-140 0 -229 81q-88 80 -101 218q-1 10 -1 22q0 104 72 328q89 277 194 392q64 71 126 71q47 0 93 -41q40 -34 40 -96q0 -24 -6 -52q-12 -59 -64 -174q-25 -55 -31 -75q-5 -15 -22 -56q-82 -206 -82 -295q0 -41 17 -57q5 -5 15 -5q39 0 120 69 q64 55 101 101q99 124 182 340q19 49 40 191q26 172 54 248q48 129 145 171l5 2l5 -1q124 -24 169 -90q30 -43 51 -169l8 -46q32 -177 86 -532l37 -234q58 -369 65 -558q2 -43 2 -84q0 -268 -73 -470q-74 -205 -219 -339q-173 -159 -396 -159q-44 0 -90 7q-264 37 -474 259 q-189 201 -254 456q-25 97 -25 174z" />
<glyph unicode="Z" horiz-adv-x="2365" d="M-118 266q0 16 3 35q10 71 82 122q43 31 136 103q77 32 104 50q246 162 489 343q468 348 867 709q-413 -35 -973 -143q-17 -3 -60 -17q-84 -26 -125 -26q-73 20 -101 83q-24 53 -24 113q0 11 1 22q7 84 62 120q32 20 109 20q43 0 139 -8q82 -8 119 -8q12 0 19 1 q104 12 308 51q106 20 159 29l133 22q549 95 827 106q40 0 62 -67q14 -45 14 -86q-7 -48 -109 -110q-15 -10 -19 -13q-174 -116 -405 -342q-301 -294 -963 -794q-86 -65 -86 -89q0 -13 25 -14q71 -3 376 -11q974 -25 1436 -142q175 -44 199 -139q5 -21 5 -40q0 -44 -27 -79 q-53 -67 -159 -67q-9 0 -18 1q-68 5 -195 43q-72 22 -107 30q-119 27 -370 48q-118 9 -174 16q-322 36 -971 52l-125 3q-36 0 -160 -27q-211 -46 -306 -46q-119 0 -166 54q-31 35 -31 92z" />
<glyph unicode="[" horiz-adv-x="1053" d="M50 1265q0 283 22 480q6 56 12 177q14 276 58 385q74 185 280 185q19 0 40 -1q18 -2 24 -2l47 2q81 1 119 1q160 0 211 -23q38 -16 53 -71t15 -99q0 -61 -29 -101q-27 -37 -58 -46q-13 -4 -33 -4t-46 4q-55 9 -94 9h-16l-60 -3t-71 -2q-131 -4 -168 -61q-28 -43 -49 -227 l-4 -28q-16 -141 -16 -345q0 -260 26 -622q9 -134 14 -202q3 -47 15 -149q8 -65 9 -287q2 -233 11 -250q38 -49 111 -69q89 -25 270 -25q40 0 109 21q51 16 72 16q74 0 79 -138v-7q0 -82 -47 -132q-70 -71 -274 -71q-94 0 -224 17q-45 6 -63 9q-169 20 -203 54 q-34 35 -54 205l-2 17q-31 256 -50 523q-36 500 -36 860z" />
<glyph unicode="\" horiz-adv-x="1529" d="M21 2338q0 12 2 23l2 6q13 62 91 101q33 18 68 18q18 0 37 -5q21 -6 43 -19q184 -104 454 -848q33 -90 44 -116l133 -311q177 -425 294 -664l4 2q255 -505 297 -717q6 -29 6 -56q0 -25 -5 -48q-5 -22 -14 -41q-27 -56 -79 -79q-21 -9 -42 -9q-15 0 -29 4q-67 18 -132 123 q-131 207 -259 604l-17 57q-34 100 -91 221l-17 35q-6 16 -118 267q-57 129 -63 145q-38 83 -81 186l-37 89q-187 445 -326 672q-10 18 -36 56q-129 198 -129 304z" />
<glyph unicode="]" horiz-adv-x="1089" d="M50 2350v13q0 123 114 130h13q35 0 99 -8q63 -7 97 -7h14q84 4 144 4q250 0 362 -84q142 -108 142 -387q4 -29 4 -221t-4 -547q-5 -510 -47 -975q-24 -266 -60 -519q-13 -93 -84 -123q-50 -21 -192 -24q-67 -2 -100 -5q-171 -13 -209 -13q-182 0 -198 6q-71 27 -71 157 q0 15 1 31q5 97 97 102h7q27 0 75 -6q49 -6 71 -6h6q196 0 321 57q51 24 92 289q32 210 32 349v30q-3 83 -3 138q0 45 2 72l3 37q23 366 30 547q4 97 4 192q0 231 -24 454v4q0 4 1 13t1 16v6q-1 30 -25 51q-74 65 -371 67q-36 0 -127 -8q-39 -4 -67 -4q-24 0 -40 3 q-102 16 -110 169z" />
<glyph unicode="^" horiz-adv-x="964" d="M50 1455q0 54 41 128q168 308 365 457l15 11l14 -10q65 -45 301 -310q39 -44 58 -65q47 -52 63 -114q7 -27 7 -52q0 -32 -12 -59q-25 -57 -85 -57q-37 0 -79 25q-66 39 -156 138q-76 82 -106 82q-46 0 -116 -134q-37 -70 -98 -110q-54 -35 -107 -35q-62 0 -90 47 q-15 25 -15 58z" />
<glyph unicode="_" horiz-adv-x="2083" d="M50 -231q0 60 45 127q36 54 216 54q37 0 97 -2q56 -2 159 -8q160 -9 236 -9l72 1q123 2 242 2q79 0 157 -1h86q82 0 149 1l109 2q27 1 90 7q75 8 114 8q78 0 131 -24q80 -38 80 -118q0 -13 -2 -28q-8 -53 -45 -92q-38 -39 -87 -46q-171 -23 -250 -23q-58 0 -167 8 q-156 9 -373 9q-59 0 -122 -1h-388l-169 1q-42 0 -100 -3q-30 -2 -59 -2q-64 0 -122 8q-60 9 -85 63q-14 32 -14 66z" />
<glyph unicode="`" horiz-adv-x="827" d="M50 1971q0 34 23 64q19 25 37 40q31 27 65 27q36 0 103 -47l6 -4q244 -174 406 -392l5 -7q80 -106 82 -175v-2q0 -64 -65 -120q-30 -25 -60 -25q-31 0 -53 26q-159 126 -409 420q-9 10 -34 34q-66 61 -88 100q-18 32 -18 61z" />
<glyph unicode="a" horiz-adv-x="1305" d="M33 242q0 226 287 555q368 299 556 299h10q76 0 119 -144q25 -81 47 -256q7 -61 10 -75q3 -11 11 -52q27 -137 54 -197q12 -26 50 -78q72 -100 72 -165q-9 -49 -62 -87q-52 -38 -110 -38q-48 0 -80 30q-66 60 -121 234q-42 136 -82 187l-27 -42q-108 -171 -177 -247 q-119 -130 -249 -158q-38 -8 -73 -8q-102 0 -165 65q-64 65 -70 177zM347 299q103 29 216 194q111 161 116 277q-6 4 -14 4q-33 0 -91 -63q-74 -82 -148 -219q-68 -128 -79 -193z" />
<glyph unicode="b" horiz-adv-x="1266" d="M90 1032q0 97 3 174q24 651 251 651h12q76 0 76 -104q0 -41 -12 -98q-12 -56 -42 -154q-26 -86 -28 -102q-14 -138 -14 -256q0 -181 33 -315q123 149 316 184q59 11 132 11q107 0 243 -23q123 -20 123 -196q0 -27 -3 -58q-18 -189 -98 -321q-98 -166 -254 -278 q-165 -118 -347 -142q-37 -5 -71 -5q-119 0 -201 60q-104 77 -104 227q0 12 1 25v23q0 80 -9 347q-7 199 -7 350zM414 268q261 41 380 157q48 46 88 143q26 62 26 104q0 35 -19 55q-51 9 -97 9q-158 0 -257 -107q-119 -126 -121 -361z" />
<glyph unicode="c" horiz-adv-x="955" d="M54 408v24q0 137 52 272q58 150 158 241q106 95 229 95h7q114 0 149 -95q9 -25 9 -47q0 -67 -79 -113q-163 -98 -199 -135q-63 -65 -63 -149q0 -41 16 -88q35 -104 148 -104q18 0 38 3q94 12 293 103q208 94 274 106q21 4 38 4q86 0 91 -93q-31 -191 -506 -372 q-158 -60 -280 -60q-191 0 -296 146q-75 104 -79 262z" />
<glyph unicode="d" horiz-adv-x="1281" d="M29 185q0 290 375 545q20 13 90 41q173 69 173 111q-7 66 -7 197q0 66 2 148q2 103 2 171q0 51 -1 82l-1 10q-2 34 -2 65q0 195 60 257q41 43 109 43q11 0 22 -1q33 -3 62 -58q24 -47 31 -95q16 -105 16 -361v-59q0 -34 -1 -104q-1 -39 -1 -75q0 -233 28 -353 q44 -195 164 -428q82 -94 82 -159q0 -20 -8 -38q-53 -114 -125 -114q-87 0 -234 234q-36 57 -51 77q-97 -208 -379 -285q-131 -36 -241 -36q-156 0 -156 93q-9 46 -9 92zM331 314q0 -23 16 -43l27 -3q88 0 177 97q85 94 98 191q-101 -36 -189 -93q-109 -69 -126 -129 q-3 -10 -3 -20z" />
<glyph unicode="e" horiz-adv-x="1188" d="M34 642q0 83 15 182q27 178 284 235q35 8 69 8q93 0 174 -60q92 -68 157 -203q17 -61 17 -114q0 -157 -147 -253q-24 -16 -64 -30q-45 -16 -54 -20q-21 -11 -21 -28v-2q2 -21 35 -57q70 -76 161 -76q26 0 54 6q117 26 234 164q157 183 198 214q73 54 110 54t37 -56 q-24 -169 -189 -355q-161 -180 -327 -238q-60 -13 -119 -13q-293 0 -540 332q-84 113 -84 310zM282 709q0 -134 68 -184q64 0 105 45q38 41 44 102q1 10 1 20q0 48 -24 85q-32 50 -94 58q-8 1 -15 1q-40 0 -62 -33q-23 -34 -23 -94z" />
<glyph unicode="f" horiz-adv-x="1016" d="M-46 1003q0 26 15 54q6 32 173 62q83 15 99 21q0 317 47 473q82 274 318 274h15q175 0 311 -106q135 -105 206 -298q26 -76 26 -128q0 -46 -20 -74q-34 -47 -121 -47q-68 0 -95 29q-17 18 -31 73q-12 48 -24 78q-98 242 -183 242q-50 0 -94 -92q-39 -82 -59 -198 q-11 -70 -11 -125q0 -18 1 -35q4 -52 15 -56q16 -1 112 -4q328 -11 438 -26q94 -14 94 -44q0 -119 -124 -161q-69 -23 -205 -23q-25 0 -70 1h-52q-31 1 -51 1q-18 1 -34 1q-81 0 -120 -13q19 -260 39 -455q7 -71 24 -166q10 -58 16 -91q1 -4 1 -8q0 -37 -48 -93 q-58 -69 -114 -69q-18 0 -34 9q-73 6 -91 196l-1 17q-10 86 -20 256q-13 221 -29 328q-5 39 -39 54q-24 10 -90 15q-41 3 -60 7q-91 16 -121 81q-9 20 -9 40z" />
<glyph unicode="g" horiz-adv-x="1137" d="M51 480q0 203 140 367q182 213 462 213h25q86 0 182 -27q143 -41 143 -118v-9l-7 -5q-37 -25 -37 -142q0 -64 11 -156q8 -65 9 -88l1 -41q7 -190 7 -342q0 -232 -16 -376q-17 -159 -75 -278q-89 -185 -255 -220q-36 -8 -75 -8q-150 0 -277 102q-62 49 -105 123 q-21 38 -37 61q-85 129 -85 214q0 63 47 101q13 7 25 7q71 0 149 -132q49 -81 120 -139q79 -64 146 -64q93 0 137 129q42 126 42 359q0 82 -5 177q-8 137 -8 224q0 31 1 56q-31 -37 -81 -121q-117 -195 -236 -232q-32 -9 -65 -9q-102 0 -183 87q-75 81 -92 187q-8 51 -8 100 zM295 467q0 -58 36 -87q3 -2 8 -2q71 0 325 391q35 54 42 65q-7 14 -41 14q-64 0 -152 -45q-98 -50 -144 -120q-47 -70 -66 -154q-8 -34 -8 -62z" />
<glyph unicode="h" horiz-adv-x="1145" d="M89 266q0 20 2 41q12 132 12 399q1 94 1 149q4 290 31 540q51 462 158 462q19 0 37 -13q72 -33 74 -225v-7q0 -132 -36 -401q-13 -99 -14 -125q-12 -201 -12 -367q0 -74 2 -140q57 58 110 216q37 114 68 164q51 85 140 122q20 9 39 9q87 0 141 -168q39 -122 69 -367 l6 -48q68 -267 189 -373l6 -5v-8q-7 -111 -105 -111q-111 0 -219 96q-99 115 -154 416q-9 48 -10 55q-24 -45 -78 -185q-73 -190 -115 -265q-72 -127 -142 -127q-73 0 -124 56q-76 84 -76 210z" />
<glyph unicode="i" horiz-adv-x="530" d="M79 1396v3q2 55 55 96q48 36 110 36q12 0 24 -1q64 0 101 -28q35 -26 35 -69q0 -52 -47 -93q-50 -45 -121 -45q-13 0 -28 2q-67 4 -101 37q-28 26 -28 62zM98 286q0 82 12 214q5 54 7 80q7 98 7 203q0 35 -1 71q-1 22 -5 52q-1 9 -1 18q0 48 35 98t123 50q69 0 69 -59 q45 -250 45 -556q0 -36 -1 -74l-6 -301q0 -23 -61 -53q-59 -29 -95 -29q-19 0 -30 9q-81 67 -95 211q-3 28 -3 66z" />
<glyph unicode="j" horiz-adv-x="664" d="M-457 -209q0 29 9 51q15 36 53 36h4q42 -2 100 -48q38 -16 129 -131q146 -183 223 -183q50 0 98 56q107 125 107 724q0 152 -7 335l-1 43q-1 23 -5 71q-4 60 -4 101q0 30 2 50q0 55 40 102q37 43 103 43q83 0 83 -72q37 -208 43 -420q2 -66 3 -255v-99q0 -544 -114 -744 q-114 -201 -332 -201q-190 0 -340 151q-104 105 -159 245q-35 87 -35 145zM196 1263q0 56 40 105q46 60 119 70q24 5 45 5q33 0 59 -13q43 -23 49 -74q1 -7 1 -15q0 -53 -37 -106q-45 -64 -115 -79q-25 -6 -47 -6q-49 0 -80 27q-30 27 -33 73q-1 6 -1 13z" />
<glyph unicode="k" horiz-adv-x="1225" d="M27 655q0 36 25 83q97 186 100 242q1 24 1 128v221q0 160 5 267q22 450 148 450h8q116 -14 116 -404q0 -244 -46 -637q45 15 133 49q101 40 143 55q158 56 265 56q12 0 23 -1q93 0 113 -33q11 -18 11 -110q-28 -61 -287 -137q-195 -44 -271 -75q-110 -44 -110 -89 q0 -30 53 -61q4 0 465 -178q357 -138 379 -246q-2 0 -27 -59q-25 -60 -79 -60q-22 -7 -46 -7q-49 0 -109 27q-27 11 -77 38q-51 28 -74 38h1l-115 56q-97 48 -166 76q-115 46 -174 46q-51 0 -58 -36q-4 -20 -4 -59q0 -27 2 -62q2 -42 2 -73q0 -38 -3 -60q-12 -99 -96 -99 q-37 0 -89 20q-74 28 -85 103q-2 13 -2 29q0 47 17 123q26 119 28 156v9q0 73 -46 106q-65 46 -73 95q-1 6 -1 13z" />
<glyph unicode="l" horiz-adv-x="563" d="M87 1039v61q0 386 38 756l1 8l7 4q71 44 142 44q38 0 63 -27q60 -66 60 -329q0 -136 -16 -324q-5 -61 -6 -75q-4 -76 -4 -153q0 -343 69 -718q11 -59 11 -107q0 -96 -43 -147q-27 -32 -68 -32t-94 34q-114 72 -139 565q-4 79 -7 104q-14 165 -14 336z" />
<glyph unicode="m" horiz-adv-x="1588" d="M78 601v3q0 43 24 88q26 48 26 90q0 54 72 59q88 5 90 6q26 25 71 81q44 54 67 75q43 38 92 38q41 0 87 -27q64 -38 116 -239q65 -251 71 -264q13 27 98 323q59 205 148 246q194 -31 321 -413q32 -96 89 -315q49 -189 77 -259q0 -86 -72 -86q-22 0 -51 8q-111 31 -158 97 q-52 73 -96 242q-47 177 -89 245q0 -1 -43 -152q-34 -119 -65 -197q-96 -245 -213 -250h-2q-93 0 -145 316q-36 217 -36 220q-20 101 -47 101q0 -8 -150 -424q-48 -135 -105 -178q-31 -23 -66 -23q-49 0 -107 44h1q5 0 5 96q0 133 -10 449z" />
<glyph unicode="n" horiz-adv-x="1160" d="M74 300q0 109 24 274q21 144 22 197q1 105 55 154q38 36 96 36q23 0 50 -6q65 -14 70 -45q33 35 86 117q49 76 79 111q23 26 74 58q69 42 122 42q64 0 93 -61q83 -191 142 -598q22 -145 35 -218q4 -24 21 -84q27 -102 27 -165q0 -51 -18 -75q-29 -37 -93 -37q-25 0 -56 6 q-85 15 -135 205q-30 112 -66 387q-25 188 -39 240q-150 -110 -211 -246q-50 -112 -52 -279q-1 -72 -55 -164q-62 -106 -133 -106q-61 0 -109 85q-29 52 -29 172z" />
<glyph unicode="o" horiz-adv-x="1012" d="M59 503q0 40 3 82q16 219 149 349q132 131 337 131h18q159 0 254 -120t95 -321q0 -237 -122 -420q-138 -204 -352 -204q-42 0 -86 9q-169 33 -245 213q-51 122 -51 281zM342 504q2 -91 40 -154q35 -59 84 -59q55 0 117 74q64 76 72 195q1 16 1 31q0 100 -46 173 q-27 42 -71 42q-52 0 -106 -50q-52 -47 -58 -94q-33 -63 -33 -144v-14z" />
<glyph unicode="p" horiz-adv-x="1067" d="M101 524q0 264 14 356q9 126 40 167q22 28 72 28h29q202 0 405 -80q239 -93 303 -246q22 -51 22 -105q0 -144 -156 -306q-153 -158 -333 -194q-70 -14 -82 -31q-7 -9 -7 -39q0 -16 2 -38q5 -57 5 -96l1 -36q3 -341 27 -540q1 -12 1 -23q0 -41 -21 -65q-23 -26 -66 -26 q-59 0 -134 45q-73 44 -97 204q-12 85 -12 252v102q-13 416 -13 671zM388 700q0 -64 9 -166q8 -93 8 -135v-14q104 7 186 82q81 76 98 182q2 10 2 19q0 40 -27 71q-43 51 -134 69q-39 8 -70 8q-34 0 -57 -10q-15 -22 -15 -106z" />
<glyph unicode="q" horiz-adv-x="1121" d="M54 428q0 19 1 39q0 233 202 429q202 197 440 197h17q114 -14 169 -44q54 -30 127 -121q25 -31 25 -92q0 -68 -30 -173q-20 -71 -24 -100q-37 -267 -37 -628q0 -72 1 -148q324 135 597 135q61 0 120 -14q19 -22 19 -45q0 -7 -2 -14q-18 -79 -312 -183 q-130 -75 -211.5 -114t-188.5 -173q-57 -87 -75 -99q-49 -30 -70 -30q-13 0 -50 8q-83 10 -108 62q-16 32 -16 120v20q-1 58 -1 114q0 451 43 795q-237 -225 -435 -225q-83 0 -133 52q-68 72 -68 232zM328 471q0 -43 20 -61q5 -4 15 -4q68 0 210 142q148 149 194 283 q-55 37 -114 37q-141 0 -259 -171q-24 -35 -50 -130q-16 -58 -16 -96z" />
<glyph unicode="r" horiz-adv-x="1012" d="M60 802q19 81 61 111q20 13 41 13q23 0 46 -14q110 -68 126 -317q41 151 189 315q169 187 327 187h2q56 0 114 -43q52 -39 52 -83q0 -11 -4 -23q-206 -105 -344 -287q-152 -199 -210 -465q-42 -195 -121 -195q-34 0 -75 37q-101 92 -158 355q-46 210 -46 409z" />
<glyph unicode="s" horiz-adv-x="1136" d="M26 716q0 146 170 251q159 98 318 98h18q57 0 105 -29q45 -27 62 -67q7 -18 7 -34q0 -23 -13 -43q-26 -39 -97 -56q-173 -28 -174 -28q-94 -23 -94 -55q0 -14 8 -21l8 -7q47 -13 476 -170q157 -58 216 -131q39 -48 39 -107q0 -52 -30 -112q-33 -64 -166 -118 q-124 -50 -284 -73q-95 -14 -174 -14q-56 0 -105 7q-131 18 -156 82q-25 61 -25 111q0 38 14 70q23 54 72 54q26 0 58 -14q148 -63 257 -63q116 0 187 72q-18 0 -405 120q-289 89 -289 236q-3 21 -3 41z" />
<glyph unicode="t" horiz-adv-x="1012" d="M-107 862v6q0 37 25 62q56 58 208 58q34 0 58 -3q19 -2 35 -2q38 0 73 14q-12 132 -12 260q0 99 7 195q23 292 111 389q43 48 102 48h10q24 0 42 -19q40 -43 40 -230q0 -110 -14 -269q-9 -104 -10 -136q-1 -36 -1 -94v-119q0 -16 61 -16q13 0 29 1q93 5 231 32q7 2 31 8 q85 22 130 22q72 0 95 -45q17 -32 17 -61q0 -23 -10 -43q-40 -82 -205 -112q-102 -18 -311 -34l-40 -3q-1 -7 -3 -40q-7 -84 -7 -131q0 -20 1 -33q11 -109 14 -274v-45q0 -229 -39 -242q-2 -6 -52 -6q-121 0 -131 10q-84 82 -84 361q0 85 8 187q1 19 1 37q0 87 -33 123 q-29 32 -128 32h-18q-16 -1 -30 -1q-67 0 -102 12q-69 24 -99 101z" />
<glyph unicode="u" horiz-adv-x="1130" d="M67 328q0 172 65 405q82 299 202 303h1q44 0 68 -29q24 -30 24 -109q0 -117 -51 -340q-39 -172 -39 -225q0 -19 5 -23q5 0 14 5q137 84 203 245q38 93 67 273q18 113 34 152q26 62 79 62q104 0 146 -144q25 -84 36 -279q6 -103 12 -138q11 -61 58 -192q66 -185 66 -270 q0 -104 -89 -104q-61 0 -117 47q-78 65 -122 287q-13 66 -20 94q-73 -132 -201 -235q-137 -110 -248 -110q-90 0 -140 77q-53 83 -53 248z" />
<glyph unicode="v" horiz-adv-x="1065" d="M32 863q0 50 20 81q32 50 112 50q23 0 51 -4q73 -42 210 -413q56 -151 78 -196q54 62 136 333q66 218 108 301q71 138 161 138q19 0 38 -5q49 -4 72 -45q14 -24 14 -65q0 -146 -178 -510q-41 -86 -47 -104l-8 -22q-57 -171 -106 -254q-88 -148 -200 -148q-9 0 -16 1 q-86 8 -159 123q-42 66 -99 210q-17 45 -25 63q-10 24 -32 71q-80 174 -106 261q-24 78 -24 134z" />
<glyph unicode="w" horiz-adv-x="1411" d="M73 549q0 94 13 190q5 63 74 178q80 134 150 134q56 0 88 -84q9 -24 9 -63q0 -69 -29 -185q-29 -113 -29 -180q0 -47 14 -72q39 24 82 144q24 68 40 92q20 30 64 60q51 35 93 35q19 0 34 -7q112 -51 286 -267q61 -75 94 -113q11 39 11 103q0 93 -23 241q-17 112 -17 183 q0 85 24 114q25 28 70 28h11q113 -10 167 -210q35 -133 35 -279v-23q-4 -214 -33 -328q-52 -203 -186 -203q-7 0 -15 1q-90 8 -173 93q-49 50 -135 179q-94 140 -144 182l-6 -14q-214 -478 -352 -478q-34 0 -63 27q-110 104 -142 342q-12 89 -12 180z" />
<glyph unicode="x" horiz-adv-x="1175" d="M22 69v5q0 64 48 131q17 23 99 108q59 63 74 106q7 20 7 41q0 41 -28 83q-80 118 -95 241q-2 18 -2 34q0 129 136 130q48 0 88 -54q20 -26 63 -111q36 -71 62 -93q19 -16 40 -16t44 16q13 10 223 215q140 137 244 137h3q126 0 126 -70q0 -64 -104 -186 q-134 -157 -330 -310q22 -21 86 -70q74 -57 107 -85q124 -107 124 -178v-6q-12 -121 -109 -121q-21 0 -45 5q-107 23 -213 115q-122 105 -181 105h-4q-62 -3 -185 -131q-83 -91 -166 -127q-30 -13 -52 -13q-60 0 -60 99z" />
<glyph unicode="y" horiz-adv-x="1214" d="M68 380q0 103 19 238q11 82 65 238q81 235 170 235q55 0 100 -88l2 -8q0 -106 -51 -308q-49 -196 -49 -309q0 -14 1 -27q86 31 171 169q50 82 136 273q81 180 122 243q67 104 135 104q13 0 26 -4h5q21 0 44 -23q93 -94 93 -753v-136q0 -123 3 -162q4 -63 19 -175 q16 -119 16 -202q0 -69 -11 -112q-41 -154 -233 -267q-94 -56 -200 -56q-258 0 -516 299q-31 40 -43 96q-5 25 -5 46q0 30 10 51q19 38 60 38q29 0 68 -18q148 -70 288 -155q98 -60 166 -60q57 0 93 43q65 79 65 288q0 220 -71 582q-35 -44 -96 -139q-83 -129 -136 -181 q-88 -88 -202 -107q-25 -4 -48 -4q-89 0 -142 61q-74 85 -74 290z" />
<glyph unicode="z" horiz-adv-x="1300" d="M10 134q0 26 17 59q58 115 220 212q43 25 137 77t141 80q164 98 254 193q-19 -2 -141 -18q-120 -16 -199 -22q-54 -4 -98 -4q-167 0 -195 54q-23 44 -23 81q0 54 47 93q56 47 134 47q21 0 43 -3q47 -7 106 -7q118 0 286 29q270 46 380 46h13q139 -27 139 -109 q0 -105 -233 -300q-126 -106 -327 -242q-190 -128 -190 -129q0 -4 191 -10q172 -5 263 -15q233 -28 233 -115q0 -32 -31 -72q-43 -57 -257 -59h-23q-59 0 -143 4q-105 5 -123 5q-74 0 -213 15q-145 16 -212 17q-196 4 -196 93z" />
<glyph unicode="{" horiz-adv-x="1126" d="M50 1051q0 9 1 19q0 83 66 144q39 36 142 91q75 39 106 61q7 5 7 53q0 69 -15 226q-26 256 -26 354q0 34 3 49q62 306 305 415q113 39 214 39q219 0 223 -179v-3l-1 -4q-30 -67 -119 -109q-52 -25 -171 -55q-32 -9 -54 -15q-102 -44 -137 -141q-19 -53 -19 -113 q0 -118 73 -263q22 -44 67 -116q67 -106 71 -156v-10q0 -73 -81 -167q-50 -48 -121 -95q-53 -36 -53 -57q0 -25 116 -97l7 -5q30 -18 59 -36q73 -67 73 -161q0 -28 -6 -57q-16 -79 -105 -243q-102 -189 -113 -279q-2 -18 -2 -36q0 -126 126 -210q40 -27 164 -54 q110 -24 151 -45q58 -30 61 -84v-15q0 -55 -26 -82q-33 -35 -119 -35q-32 0 -105 7l-32 3q-283 26 -403 195q-75 106 -75 253q0 85 25 183q15 57 57 160q53 128 53 189v4q-3 97 -116 166l-23 14q-129 77 -176 127q-72 74 -72 170z" />
<glyph unicode="|" horiz-adv-x="475" d="M50 1920q0 409 90 524q48 61 120 61h12q85 -3 120 -55q33 -48 33 -151q0 -74 -18 -177q-8 -46 -10 -62q-30 -204 -30 -550q0 -68 1 -140l1 -90q1 -69 1 -129v-59q0 -17 -1 -153q0 -245 -1 -265l-1 -36q-1 -31 -1 -60q0 -87 7 -160l6 -55q22 -206 22 -366q0 -141 -17 -246 q-28 -181 -137 -181q-54 0 -99 38q-51 42 -69 117q-27 117 -27 347q0 160 13 376h4q7 146 7 360q0 141 -3 312l-3 314q0 24 -6 115q-14 209 -14 371z" />
<glyph unicode="}" horiz-adv-x="1101" d="M50 2320q0 123 37 152q32 24 167 24h34q269 0 409 -215q114 -175 115 -435q0 -235 -88 -433l-6 -13l14 -6q301 -132 318 -271q1 -8 1 -17q0 -82 -95 -187q-73 -82 -257 -225q-20 -15 -20 -62q0 -114 118 -413q24 -59 27 -69q9 -57 9 -109q0 -276 -254 -377 q-191 -76 -363 -76q-134 0 -152 70q-8 28 -8 52q0 32 15 55q48 72 215 78q189 8 264 143q15 25 15 69q0 98 -75 289q-73 189 -150 324q-16 40 -16 76q0 47 28 87q35 52 155 132q82 56 114 86l18 17l-24 8q-213 70 -255 173q-11 27 -11 60q0 37 14 81q16 51 75 164 q115 220 115 341q0 137 -98 213q-58 45 -211 97q-96 32 -143 55q-34 16 -41 24q-10 11 -10 38z" />
<glyph unicode="~" horiz-adv-x="1134" d="M50 603q0 26 13 54q4 8 12 27q54 119 105 179q91 108 222 124q12 1 24 1q93 0 235 -77q84 -47 111 -47q22 0 38 36q58 121 132 121q32 0 58 -24l12 -11q72 -63 72 -127v-8q-6 -81 -121 -218q-84 -100 -186 -100q-87 0 -233 105q-85 62 -115 66q-17 3 -30 3q-21 0 -31 -10 t-31 -50q-37 -73 -74 -122q-31 -42 -85 -42q-72 0 -110 61q-18 29 -18 59z" />
<glyph unicode="&#xa1;" horiz-adv-x="609" d="M124 64q0 68 20 164q8 42 12 59q29 182 29 388v67q-1 63 -1 111t1 82q1 24 1 46q0 23 -1 44q0 93 -7 156l-5 51q-14 108 -14 183v13q0 46 6 79q27 148 125 148q51 0 95 -30q48 -34 66 -95q22 -79 23 -216q0 -72 -6 -161l-5 11q-6 -102 -6 -239q1 -76 3 -163l3 -100 q0 -25 7 -110q17 -202 17 -295q0 -20 -1 -36q-9 -182 -91 -272q-47 -49 -114 -49h-11q-83 3 -114 42q-32 39 -32 122zM150 1955q0 60 47 100q51 43 136 43q29 0 60 -4q52 -10 81 -56q22 -36 22 -80v-11q-3 -53 -37 -92q-42 -47 -118 -53q-88 0 -143 49q-48 43 -48 104z" />
<glyph unicode="&#xa2;" horiz-adv-x="1610" d="M-10 469q0 37 11 79q60 217 279 333q52 27 399 147q-2 32 -2 64q0 376 195 384q89 0 92 -170v-15q0 -52 -7 -124q-4 -47 -4 -71q0 -30 6 -30v1q13 1 35 1q71 0 131 -23q73 -29 98 -77q9 -18 9 -35q0 -29 -28 -54q-50 -43 -174 -52q-84 -6 -96 -59q3 0 3 -151q0 -2 -4 -68 q-1 -26 -1 -48q0 -21 1 -39q7 -71 58 -72q43 0 261.5 5t274.5 5q167 0 173 -59q0 -142 -501 -258l-189 -45q-28 -24 -28 -147q0 -35 2 -77v-18q0 -115 -85 -120h-9q-80 0 -138 85q-18 27 -18 96q0 29 3 64q3 30 3 50q0 14 -1 23q-6 31 -30 33q-300 24 -513 152 q-206 124 -206 290zM337 497q11 -32 57 -60q59 -32 152 -32q52 0 117 10q2 43 3 170q0 148 -8 148q-184 0 -321 -236z" />
<glyph unicode="&#xa3;" horiz-adv-x="1793" d="M-34 865v6q0 12 3 25q14 74 79 91q108 28 159 33q18 1 46 2q27 1 63 2h22q3 82 7 164q1 12 1 37q0 26 -1 64v28q0 103 11 147q53 423 477 505q67 9 145 9q81 0 175 -10q139 -15 139 -127q0 -34 -12 -76q-32 -107 -111 -107q-58 0 -142 58q-20 2 -40 2q-304 0 -328 -402 q-10 -117 -12 -267l223 21l110 8q27 3 60 9q17 2 33 4q18 1 34 2h19q18 0 37 -1q34 -2 56 -25q23 -27 28 -62v-14q0 -36 -19 -82q-19 -106 -144 -118q-28 -3 -63 -4q-19 -2 -43 -3q-26 -1 -59 -1l-45 -2q-66 -2 -102 -5l-42 -5q-39 -4 -79 -8q3 -82 8 -171q9 -163 13 -247 q87 12 202 23q166 16 325.5 32t323.5 16q63 0 125 -6q163 -35 210 -100q19 -27 19 -61v-9q-1 -11 -4 -23q-18 -74 -126 -80q-61 -15 -191 -16q-41 -1 -55 -2q-205 -15 -478 -47q-106 -28 -164 -42q-18 -4 -69 -20q-150 -46 -229 -46q-11 0 -20 1q-149 13 -179 188v2 q0 72 -14 235q-14 148 -15 210v133q-4 -1 -7 -1l-69 -9q-17 -1 -53 -10q-38 -8 -69 -11l-18 -1h-13q-43 0 -71 12q-58 25 -66 140q-1 6 -1 12z" />
<glyph unicode="&#xa5;" horiz-adv-x="1269" d="M50 591v6q3 43 44 61q25 11 102 20l8 1q126 15 282 21q2 58 8 131q-87 5 -115 7q-13 1 -40 1h-66q-81 0 -122 8q-84 17 -96 73q-5 25 -5 44v6q3 43 44 61q25 11 102 20l8 1q99 12 217 18q-40 71 -95 218q-19 51 -27 70q-13 30 -35 80q-87 197 -115 295q-26 89 -26 152 q0 56 21 91q35 57 121 57q26 0 56 -5q80 -47 228 -465q60 -171 84 -222q58 70 147 376q72 246 118 339q76 157 174 157q20 0 41 -6q53 -5 78 -51q15 -27 15 -73q0 -165 -192 -576q-45 -97 -52 -118l-8 -25q-65 -202 -123 -299q85 -7 106 -9l11 -2q164 -19 223 -61 q48 -34 48 -100v-13q-4 -56 -59 -56h-9q-108 -8 -240 -8q-55 0 -114 1q0 -56 -2 -122q89 -6 142 -12l11 -1q164 -20 223 -62q48 -34 48 -100v-13q-4 -56 -59 -56h-9q-114 -8 -250 -8q-57 0 -118 1q0 -15 -6 -103v-17q0 -21 1 -58q1 -30 1 -55q0 -70 -8 -107q-20 -87 -88 -99 q-31 -5 -53 -5h-7q-53 4 -76 47q-14 27 -26 107l-2 9q-20 132 -29 295q-10 1 -56 4q-34 2 -55 4q-9 1 -27 1t-45 -1h-34q-81 0 -122 8q-84 17 -96 74q-5 24 -5 43z" />
<glyph unicode="&#xa7;" horiz-adv-x="1362" d="M50 961v5q0 149 124 245q-104 118 -107 279v4q0 169 161 272q136 86 338 101q15 1 31 1q80 0 170 -29q119 -39 180 -109q52 -58 52 -127q0 -12 -2 -25q-17 -140 -85 -140q-25 0 -82 29q-58 31 -97 43q-54 17 -129 17q-88 0 -162 -21q-65 -17 -74 -35v-9q0 -65 113 -133 q71 -42 264 -119q146 -59 212 -91q210 -103 285 -191q70 -82 70 -195q0 -31 -5 -64q-19 -118 -109 -241q96 -92 96 -223q0 -31 -5 -64q-25 -164 -175 -320q-161 -166 -363 -210q-51 -11 -104 -11q-195 0 -345 130q-162 140 -164 353v10q0 171 67 238q35 36 80 36 q36 0 64 -24q28 -23 33 -58q2 -8 2 -22q0 -19 -4 -50q-3 -29 -3 -54q0 -87 40 -134q94 -107 229 -107q214 0 375 238q12 18 12 31q0 3 -1 6q-11 35 -207 113q-149 60 -234 101q-278 135 -377 220q-161 137 -164 334zM351 934q0 -66 112 -133q72 -43 265 -120 q147 -59 212 -91l14 -7q47 46 84 102q12 18 12 29q0 4 -1 7q-10 35 -207 114q-147 59 -234 100q-61 30 -113 57q-128 -18 -144 -49v-9z" />
<glyph unicode="&#xa8;" horiz-adv-x="852" d="M50 1898q0 11 1 22q2 28 8 57q15 56 66 84q35 20 76 20q12 0 23 -1q58 -7 97 -49q44 -48 45 -124q-6 -91 -61 -144q-46 -43 -104 -43h-10q-65 5 -105 58q-36 49 -36 120zM486 1898q0 11 1 22q2 28 8 57q15 56 66 84q35 20 76 20q12 0 23 -1q58 -7 97 -49q44 -48 45 -124 q-6 -91 -61 -144q-46 -43 -104 -43h-10q-65 5 -105 58q-36 49 -36 120z" />
<glyph unicode="&#xa9;" horiz-adv-x="2371" d="M162 931q0 133 26 277q67 379 363 625t684 246q83 0 167 -13q333 -49 535 -357q146 -222 191 -524q18 -118 18 -231q0 -176 -44 -341q-77 -288 -322 -451q-245 -162 -601 -162q-281 0 -538 103q-311 125 -423 464q-56 170 -56 364zM482 937q0 -216 80 -384 q142 -295 532 -295q236 0 489 104q149 60 222 239q61 150 61 359q0 55 -4 113q-17 247 -90 415q-66 152 -207 235q-141 84 -332 84q-232 0 -429 -117q-239 -142 -303 -529q-19 -118 -19 -224zM620 940q0 79 29 164q48 141 162 263q115 122 254 180q104 43 181 43q25 0 48 -5 q104 -22 116 -110q1 -10 1 -20q0 -70 -77 -111q-39 -20 -113 -38q-75 -19 -108 -40q-121 -79 -181 -207q-25 -53 -25 -102q0 -54 31 -103q55 -88 173 -88q112 0 287 90q7 4 25 15q106 65 162 65q71 0 92 -70q9 -29 9 -58q0 -54 -34 -105q-63 -91 -233 -154 q-132 -49 -245 -58q-23 -2 -45 -2q-145 0 -266 64t-185 175q-58 100 -58 212z" />
<glyph unicode="&#xab;" horiz-adv-x="1275" d="M50 526q34 49 371 354q72 66 142 66q24 0 47 -8q39 -13 49 -46q3 -10 3 -21q0 -29 -21 -65q-36 -59 -108 -128q-81 -77 -94 -93q-21 -28 -21 -54q0 -17 9 -33q26 -47 137 -105q69 -36 105 -97q28 -45 28 -85q0 -10 -2 -19q-9 -49 -56 -60q-11 -2 -22 -2q-49 0 -118 37 q-303 166 -449 359zM578 526q34 49 371 354q72 66 142 66q24 0 47 -8q40 -13 50 -46q3 -9 3 -20q0 -30 -22 -66q-36 -59 -108 -127q-81 -78 -94 -94q-21 -28 -21 -54q0 -17 9 -33q26 -47 137 -105q69 -36 105 -97q28 -45 28 -85q0 -10 -2 -19q-8 -49 -56 -60q-10 -2 -22 -2 q-49 0 -118 37q-303 166 -449 359z" />
<glyph unicode="&#xad;" horiz-adv-x="1192" d="M39 523v10q0 38 19 85q19 106 126 113q24 2 54 2q16 1 37 1q22 0 50 -1h39q56 0 87 2l36 3q73 6 145 11l74 5q28 1 54 2q39 3 73 7l59 6q14 1 45 8q33 7 60 9h15q44 0 71 -15q49 -27 52 -142q1 -6 1 -12q0 -15 -4 -31q-14 -73 -70 -88q-93 -24 -137 -27q-15 -1 -39 -1 q-23 0 -54 1h-19q-78 0 -178 -7q-34 -2 -69 -5l-208 -14l-94 -5q-23 -2 -51 -6q-15 -2 -29 -3q-15 -1 -29 -1q-24 0 -47 3q-29 3 -47 27q-19 28 -22 63z" />
<glyph unicode="&#xae;" horiz-adv-x="1506" d="M50 1672q0 93 18 195q48 268 258 442q210 175 484 175q60 0 119 -9q236 -35 380 -253q103 -157 135 -372q12 -83 12 -162q0 -126 -31 -244q-54 -204 -228 -319q-173 -115 -426 -115q-199 0 -382 73q-220 88 -299 329q-40 121 -40 260zM276 1675q0 -154 58 -273 q101 -209 377 -209q167 0 347 73q105 43 157 170q43 105 43 252q0 40 -3 83q-12 175 -64 294q-46 108 -146 167t-235 59q-166 0 -304 -83q-170 -100 -216 -375q-14 -83 -14 -158zM487 2062v2q1 37 41 65q35 26 77 26q21 0 44 -7q30 -9 50 -10l22 -2q136 -8 205 -28 q121 -35 148 -119q14 -42 14 -81q0 -55 -27 -106q-52 -96 -185 -153q262 -143 262 -236v-2q-2 -52 -65 -81q-15 -7 -33 -7q-57 0 -168 101q-27 24 -36 30q-59 45 -113 73q1 -27 1 -49q0 -46 -4 -76q-5 -37 -33 -67q-31 -32 -69 -32q-42 0 -68 41q-16 26 -16 79q0 17 2 38 q1 20 2 27v36q0 38 -5 57q0 3 -11 17q-25 32 -25 59q0 10 3 18l5 17q22 68 24 141q1 6 2 30q3 39 3 67q0 63 -15 75q-32 24 -32 57zM703 1969l2 -116q1 -33 3 -78q19 4 59 11.5t74 23.5q48 22 57 63q1 5 1 9q0 15 -10 27q-47 57 -186 60z" />
<glyph unicode="&#xaf;" horiz-adv-x="1036" d="M50 1758q0 8 1 16q3 42 27 66q25 25 106 39l7 1q164 28 320 28q124 0 244 -18l9 -1q131 -19 181 -66q41 -39 41 -110q0 -11 -1 -22q-3 -39 -24 -60q-20 -20 -50 -20h-6q-86 -10 -205 -10q-160 0 -381 18q-6 1 -18 1t-30 -1t-34 -1q-65 0 -99 10q-75 21 -85 92 q-3 21 -3 38z" />
<glyph unicode="&#xb0;" horiz-adv-x="997" d="M50 1682q0 80 20 154q34 124 124 186q78 53 187 53q18 0 36 -1q263 -10 408 -195q122 -156 122 -377v-18q-3 -193 -99 -328q-105 -150 -276 -150q-113 0 -236 74q-152 90 -235 328q-51 146 -51 274zM361 1604q0 -71 60 -149q80 -103 142 -103q30 0 52 31q33 48 33 112 q0 62 -30 140q-46 119 -130 119q-73 0 -110 -76q-17 -36 -17 -74z" />
<glyph unicode="&#xb1;" horiz-adv-x="1303" d="M50 1122q0 27 9 58q28 90 190 90q58 0 172 -14q46 -7 65 -8q-1 27 -1 31q-2 41 -2 79q0 218 70 291q55 57 149 57h7q38 0 63 -28q39 -44 39 -185q0 -75 -11 -178q-4 -36 -5 -49q5 1 17 3q12 1 19 2q117 17 178 17q135 0 195 -62q49 -51 49 -142v-11q-2 -91 -175 -91h-9 q-19 0 -72 2q-56 2 -79 2q-79 0 -108 -16q2 -27 11 -89q12 -84 12 -141q0 -47 -8 -76q-31 -106 -171 -150q-20 -6 -38 -6q-39 0 -66 28q-51 53 -51 253q0 45 3 97q2 40 2 57q-46 -3 -95 -3q-259 0 -332 99q-27 37 -27 83zM67 288q0 66 78 115q74 47 176 47q13 0 27 -1 q35 0 107 1h109q192 0 320 -19q71 -12 140 -60q76 -54 79 -112v-4q0 -76 -129 -108q-70 -17 -164 -17q-83 0 -255 20q-159 18 -233 18h-34q-104 0 -162 32q-59 32 -59 88z" />
<glyph unicode="&#xb4;" horiz-adv-x="827" d="M50 1453v4q2 68 82 175l5 7q162 218 406 392l5 4q67 47 103 47q34 0 66 -27q18 -15 37 -40q23 -30 23 -64q0 -29 -18 -61q-22 -38 -86 -98q-28 -26 -37 -37q-250 -294 -412 -423q-18 -22 -49 -22t-60 25q-65 55 -65 118z" />
<glyph unicode="&#xb6;" horiz-adv-x="1191" d="M50 1676q0 69 30 135q83 182 366 229q439 72 501 72h3q148 -7 172 -241q4 -48 4 -113q0 -37 -1 -80q-4 -121 -4 -146v-7q0 -21 4 -113q5 -114 8 -191q8 -221 8 -400q0 -54 -1 -104q-8 -682 -136 -707q-15 -3 -29 -3q-116 0 -117 213q0 76 15 195l20 150q36 457 36 840 q0 231 -13 435l-182 -34q36 -281 36 -771v-77q-4 -554 -49 -834q-12 -74 -76 -110q-25 -14 -48 -14q-47 0 -89 54q30 166 33 1041v2q0 90 -109 136q-171 71 -186 84q-118 97 -168 222q-28 70 -28 137z" />
<glyph unicode="&#xb8;" horiz-adv-x="671" d="M50 -576q0 21 12 38q29 39 160 46q54 3 65 8q84 30 84 69q0 4 -1 7q-4 24 -38 35q-19 7 -39 7q-16 0 -33 -5q-15 -4 -29 -4q-35 0 -68 24q-46 34 -62 98q-4 14 -4 27q0 37 31 62q24 21 91 45q23 9 29 28q3 8 3 23q0 14 -3 35q-2 17 -2 31q0 47 18 66q23 26 76 26 q8 0 18 -1q65 -4 104 -65q31 -50 38 -126q2 -18 2 -35q0 -48 -13 -89q132 -93 132 -200q0 -27 -8 -55q-30 -99 -151 -171q-114 -68 -228 -68q-152 0 -181 122q-3 12 -3 22z" />
<glyph unicode="&#xbb;" horiz-adv-x="1274" d="M50 201q0 41 27 85q37 61 105 97q111 58 138 105q8 15 8 32q0 26 -21 55q-12 16 -94 93q-72 69 -108 128q-21 36 -21 65q0 11 3 21q10 33 49 46q23 8 47 8q70 0 142 -66q337 -305 371 -354q-146 -193 -449 -359q-69 -37 -117 -37q-12 0 -22 2q-48 11 -56 60q-2 10 -2 19z M578 201q0 41 27 85q37 61 105 97q111 58 138 105q8 15 8 32q0 26 -21 55q-12 16 -94 94q-72 68 -107 127q-22 36 -22 65q0 11 3 21q10 33 49 46q23 8 47 8q70 0 142 -66q338 -305 371 -354q-146 -193 -449 -359q-69 -37 -117 -37q-12 0 -22 2q-48 11 -56 60q-2 10 -2 19z " />
<glyph unicode="&#xbc;" horiz-adv-x="2276" d="M50 1810q0 19 4 41q16 89 141 199q83 73 106 117q15 29 41 99q39 105 70 147q51 71 131 71q28 0 58 -9l23 -6l1 -23q2 -25 2 -56q0 -122 -29 -328q-10 -67 -12 -87q-39 -299 -43 -450q0 -17 3 -67q4 -58 4 -102q0 -43 -4 -71q-15 -97 -76 -128q-34 -18 -64 -18 q-39 0 -65 29q-47 50 -47 221q0 50 4 111q3 33 3 45v27q3 155 7 235q-7 -5 -24 -14q-114 -68 -161 -68q-35 0 -55 23q-18 23 -18 62zM57 148q0 41 19 83q79 175 412 552l4 -2q153 177 399 506l184 241q15 20 61 88q393 586 581 629q20 5 39 5q53 0 95 -39q60 -50 60 -102v-7 q-5 -94 -177 -248q-29 -26 -44 -40q-173 -165 -432 -508l-51 -68q-61 -82 -110 -143q-4 -4 -89 -113q-145 -185 -159 -202l-22 -27q-76 -92 -127 -173l-27 -44q-195 -316 -354 -464q-78 -72 -141 -72q-35 0 -63 22q-40 31 -53 85q-5 20 -5 41zM1014 557q0 22 8 49 q30 102 216 247q46 37 67 55l321 280q9 8 40 44q144 164 217 164q70 0 93 -96l1 -5l-1 -5q-2 -38 -26 -105q-21 -60 -23 -91l-4 -51q-10 -116 -10 -191q0 -32 2 -57q32 3 90 10q84 10 118 10q63 0 87 -27q16 -17 16 -42q0 -5 -1 -11q-3 -30 -50 -90q-55 -70 -110 -82 l-76 -17q-19 -4 -93 -22q-8 -12 -8 -52q0 -72 26 -235l6 -42q2 -19 2 -36q0 -68 -32 -103q-26 -29 -63 -29q-53 0 -97 53q-48 56 -54 142q-3 36 -3 109q0 109 -9 160q-50 0 -246 -28q-69 -10 -84 -11l-28 -3q-72 -8 -112 -8q-120 0 -161 55q-19 26 -19 61zM1459 755 q143 9 219 20q1 26 1 54q0 47 -3 103q-21 -16 -54 -41q-118 -86 -163 -136z" />
<glyph unicode="&#xbd;" horiz-adv-x="2186" d="M50 1814q0 19 4 41q16 88 141 198q83 73 106 118q15 29 41 98q39 106 70 148q51 70 131 70q28 0 58 -8l23 -6l1 -23q2 -25 2 -56q0 -122 -29 -328q-10 -67 -12 -88q-39 -299 -43 -450q0 -16 3 -66q4 -58 4 -102q0 -43 -4 -71q-15 -97 -76 -129q-34 -18 -64 -18 q-39 0 -65 29q-47 50 -47 221q0 50 4 111q3 33 3 45v27q3 156 7 235q-7 -4 -24 -14q-114 -68 -161 -68q-35 0 -55 24q-18 22 -18 62zM57 151q0 41 19 83q79 176 412 553l4 -2q153 177 399 506l184 241q15 19 61 88q393 585 581 629q20 4 38 4q54 0 96 -38q60 -50 60 -103v-7 q-5 -94 -177 -247q-29 -27 -44 -41q-173 -164 -432 -507l-51 -68q-61 -82 -110 -143q-4 -5 -89 -114q-145 -184 -159 -201l-22 -27q-76 -93 -127 -173l-27 -45q-195 -316 -354 -463q-78 -72 -141 -72q-35 0 -63 22q-40 31 -53 84q-5 20 -5 41zM1030 29q0 85 106 159 q372 259 565 527q31 44 31 77q0 15 -6 27q-14 28 -58 35q-13 2 -26 2q-32 0 -69 -12q-108 -36 -194 -193q-34 -60 -116 -60q-59 0 -89 37q-21 24 -21 56q0 12 3 24q36 183 207 304q158 111 336 111h14q166 0 251 -124q55 -81 55 -175q0 -72 -32 -151q-66 -167 -323 -379 q-122 -100 -175 -157q162 -17 272 -23h9q28 0 100 11t118 11q30 0 49 -5q53 -1 79 -34q20 -25 20 -69q0 -26 -7 -58q-23 -101 -262 -120l-15 -1q-100 -9 -212 -9q-204 0 -423 28q-157 21 -183 128q-4 17 -4 33z" />
<glyph unicode="&#xbe;" horiz-adv-x="2575" d="M50 1624q0 12 3 24q10 38 58 81q20 18 49 18q53 0 152 -82l13 -11q194 -152 392 -152q50 0 89 14q61 20 61 47q-1 32 -63 80q-59 47 -116 63l-7 2q-243 70 -256 158q-1 6 -1 13q0 60 87 117q36 24 104 57q114 54 156 112q1 2 4 40q2 26 4 39h-3q-42 0 -177 -58 q-144 -62 -197 -62q-43 0 -68 25q-25 26 -25 76v7q0 123 224 202q168 59 290 59q148 0 209 -80q37 -49 37 -121q0 -47 -16 -104q-29 -102 -157 -217q-26 -23 -39 -36q132 -65 215 -171q78 -99 78 -196q0 -27 -6 -53q-30 -134 -176 -205q-120 -59 -279 -59h-5q-165 0 -337 70 q-204 83 -273 218q-24 48 -24 85zM365 97q0 41 19 83q79 175 410 550l4 -2q153 176 398 503l183 240q15 20 60 88q392 583 579 626q20 5 39 5q54 0 95 -38q60 -51 60 -104v-5q-5 -94 -176 -247q-30 -26 -45 -40q-172 -164 -430 -506l-50 -67q-62 -82 -110 -143 q-4 -4 -89 -112q-144 -184 -158 -201l-22 -27q-76 -92 -126 -172l-28 -44q-194 -315 -352 -462q-78 -72 -140 -72q-35 0 -63 22q-40 31 -53 84q-5 20 -5 41zM1318 506q0 22 8 48q30 101 215 246q46 36 67 54l320 279q8 8 39 44q144 163 216 163q70 0 93 -96l1 -5l-1 -5 q-2 -37 -26 -104q-21 -59 -23 -91l-4 -50q-9 -120 -9 -196q0 -29 1 -51q32 3 90 10q84 10 117 10q63 0 88 -28q15 -17 15 -41q0 -5 -1 -11q-3 -31 -50 -89q-55 -70 -110 -83l-75 -16q-18 -5 -92 -22q-8 -13 -8 -53q0 -73 25 -233l6 -42q2 -19 2 -36q0 -67 -32 -103 q-25 -28 -63 -28q-52 0 -96 52q-47 57 -54 142q-2 36 -2 109q-1 108 -9 159q-51 0 -246 -28q-68 -10 -83 -11l-28 -3q-72 -7 -111 -7q-120 0 -160 54q-20 26 -20 62zM1761 701q143 10 219 20q1 26 1 54q0 47 -3 103l-55 -40q-117 -87 -162 -137z" />
<glyph unicode="&#xbf;" horiz-adv-x="1274" d="M14 333v9q0 9 1 19q40 353 614 469q12 3 56 8q56 5 80 9q106 13 123 36q-50 372 -51 432q0 98 13 133q19 51 94 90q49 25 85 25h2q52 0 76 -55q4 -9 36 -193q10 -62 60 -234q42 -147 48 -235q1 -12 1 -25v-5q0 -159 -124 -208q-22 -9 -300 -46q-506 -70 -506 -155 q1 -30 63 -62q247 -127 505 -153h9q48 1 165 50q64 26 108 27q31 0 53 -13q54 -35 55 -99v-6q-1 -60 -44 -109q-67 -78 -169 -103q-59 -14 -171 -16h-48q-236 0 -504 100q-328 121 -330 310zM787 1912v8q0 11 2 22q7 63 44 114q41 53 99 64q18 2 33 2h3q55 0 84 -33 q28 -32 28 -80v-9q0 -9 -1 -19q-9 -67 -52 -122q-45 -60 -110 -73h-3q-70 0 -103 47q-24 32 -24 79z" />
<glyph unicode="&#xc0;" d="M50 161q0 88 125 325q82 156 82 184v1q-1 9 -25 9q-15 0 -51 -5t-53 -5q-38 0 -52 22q-7 11 -7 26t8 35q34 79 83 118q41 33 130 61q154 49 330 498q8 18 28 78q70 204 124 299q96 169 208 171q225 0 266 -268q50 -317 129 -560q4 -11 12 -40q15 -54 29 -68 q12 -12 38 -12q8 0 17 1q11 1 38 6q53 10 80 10q66 0 104 -44q20 -23 20 -49q0 -12 -4 -24q-27 -77 -204 -133l11 -27q115 -297 206 -416q12 -17 46 -56q80 -90 106 -143q25 -49 25 -95q0 -37 -17 -73q-27 -57 -79 -57q-91 0 -239 192q-91 119 -131 195q-32 63 -92 195 q-64 141 -99 208q-31 60 -150 60q-21 0 -68 -3q-27 -1 -42 -2q-118 -3 -349 -47q-260 -431 -322 -509q-104 -132 -180 -132q-20 0 -38 7q-28 12 -39 41q-4 11 -4 26zM585 2617q0 34 23 64q19 25 37 40q31 27 65 27q36 0 103 -47l6 -4q244 -174 406 -392l5 -7 q80 -106 82 -175v-2q0 -64 -65 -120q-30 -25 -60 -25q-31 0 -53 26q-159 126 -409 420q-9 10 -34 34q-66 61 -88 100q-18 32 -18 61zM754 1004q47 7 149 31q132 31 194 36q-7 30 -20 100q-58 300 -108 382q-53 -98 -165 -412q-36 -99 -50 -137z" />
<glyph unicode="&#xc1;" d="M50 161q0 88 125 325q82 156 82 184v1q-1 9 -25 9q-15 0 -51 -5t-53 -5q-38 0 -52 22q-7 11 -7 26t8 35q34 79 83 118q41 33 130 61q154 49 330 498q8 18 28 78q70 204 124 299q96 169 208 171q225 0 266 -268q50 -317 129 -560q4 -11 12 -40q15 -54 29 -68 q12 -12 38 -12q8 0 17 1q11 1 38 6q53 10 80 10q66 0 104 -44q20 -23 20 -49q0 -12 -4 -24q-27 -77 -204 -133l11 -27q115 -297 206 -416q12 -17 46 -56q80 -90 106 -143q25 -49 25 -95q0 -37 -17 -73q-27 -57 -79 -57q-91 0 -239 192q-91 119 -131 195q-32 63 -92 195 q-64 141 -99 208q-31 60 -150 60q-21 0 -68 -3q-27 -1 -42 -2q-118 -3 -349 -47q-260 -431 -322 -509q-104 -132 -180 -132q-20 0 -38 7q-28 12 -39 41q-4 11 -4 26zM548 2119v4q2 68 82 175l5 7q162 218 406 392l5 4q67 47 103 47q34 0 66 -27q18 -15 37 -40q23 -30 23 -64 q0 -29 -18 -61q-22 -38 -86 -98q-28 -26 -37 -37q-250 -294 -412 -423q-18 -22 -49 -22t-60 25q-65 55 -65 118zM754 1004q47 7 149 31q132 31 194 36q-7 30 -20 100q-58 300 -108 382q-53 -98 -165 -412q-36 -99 -50 -137z" />
<glyph unicode="&#xc2;" d="M50 161q0 88 125 325q82 156 82 184v1q-1 9 -25 9q-15 0 -51 -5t-53 -5q-38 0 -52 22q-7 11 -7 26t8 35q34 79 83 118q41 33 130 61q154 49 330 498q8 18 28 78q70 204 124 299q96 169 208 171q225 0 266 -268q50 -317 129 -560q4 -11 12 -40q15 -54 29 -68 q12 -12 38 -12q8 0 17 1q11 1 38 6q53 10 80 10q66 0 104 -44q20 -23 20 -49q0 -12 -4 -24q-27 -77 -204 -133l11 -27q115 -297 206 -416q12 -17 46 -56q80 -90 106 -143q25 -49 25 -95q0 -37 -17 -73q-27 -57 -79 -57q-91 0 -239 192q-91 119 -131 195q-32 63 -92 195 q-64 141 -99 208q-31 60 -150 60q-21 0 -68 -3q-27 -1 -42 -2q-118 -3 -349 -47q-260 -431 -322 -509q-104 -132 -180 -132q-20 0 -38 7q-28 12 -39 41q-4 11 -4 26zM553 2152q0 54 41 128q168 308 365 457l15 11l14 -10q65 -45 301 -310q39 -44 58 -65q47 -52 63 -114 q7 -27 7 -52q0 -32 -12 -59q-25 -57 -85 -57q-37 0 -79 25q-66 40 -156 138q-76 82 -106 82q-46 0 -116 -134q-37 -70 -98 -110q-54 -35 -107 -35q-62 0 -90 47q-15 25 -15 58zM754 1004q47 7 149 31q132 31 194 36q-7 30 -20 100q-58 300 -108 382q-53 -98 -165 -412 q-36 -99 -50 -137z" />
<glyph unicode="&#xc3;" d="M50 161q0 88 125 325q82 156 82 184v1q-1 9 -25 9q-15 0 -51 -5t-53 -5q-38 0 -52 22q-7 11 -7 26t8 35q34 79 83 118q41 33 130 61q154 49 330 498q8 18 28 78q70 204 124 299q96 169 208 171q225 0 266 -268q50 -317 129 -560q4 -11 12 -40q15 -54 29 -68 q12 -12 38 -12q8 0 17 1q11 1 38 6q53 10 80 10q66 0 104 -44q20 -23 20 -49q0 -12 -4 -24q-27 -77 -204 -133l11 -27q115 -297 206 -416q12 -17 46 -56q80 -90 106 -143q25 -49 25 -95q0 -37 -17 -73q-27 -57 -79 -57q-91 0 -239 192q-91 119 -131 195q-32 63 -92 195 q-64 141 -99 208q-31 60 -150 60q-21 0 -68 -3q-27 -1 -42 -2q-118 -3 -349 -47q-260 -431 -322 -509q-104 -132 -180 -132q-20 0 -38 7q-28 12 -39 41q-4 11 -4 26zM410 2258q0 26 13 54q4 8 12 27q54 119 105 179q91 108 222 124q12 1 24 1q93 0 235 -77q84 -47 111 -47 q22 0 38 36q58 121 132 121q32 0 58 -24l12 -11q72 -63 72 -127v-8q-6 -81 -121 -218q-84 -100 -186 -100q-87 0 -233 105q-85 62 -115 66q-17 3 -30 3q-21 0 -31 -10t-31 -50q-37 -73 -74 -122q-31 -42 -85 -42q-72 0 -110 61q-18 29 -18 59zM754 1004q47 7 149 31 q132 31 194 36q-7 30 -20 100q-58 300 -108 382q-53 -98 -165 -412q-36 -99 -50 -137z" />
<glyph unicode="&#xc4;" d="M50 161q0 88 125 325q82 156 82 184v1q-1 9 -25 9q-15 0 -51 -5t-53 -5q-38 0 -52 22q-7 11 -7 26t8 35q34 79 83 118q41 33 130 61q154 49 330 498q8 18 28 78q70 204 124 299q96 169 208 171q225 0 266 -268q50 -317 129 -560q4 -11 12 -40q15 -54 29 -68 q12 -12 38 -12q8 0 17 1q11 1 38 6q53 10 80 10q66 0 104 -44q20 -23 20 -49q0 -12 -4 -24q-27 -77 -204 -133l11 -27q115 -297 206 -416q12 -17 46 -56q80 -90 106 -143q25 -49 25 -95q0 -37 -17 -73q-27 -57 -79 -57q-91 0 -239 192q-91 119 -131 195q-32 63 -92 195 q-64 141 -99 208q-31 60 -150 60q-21 0 -68 -3q-27 -1 -42 -2q-118 -3 -349 -47q-260 -431 -322 -509q-104 -132 -180 -132q-20 0 -38 7q-28 12 -39 41q-4 11 -4 26zM578 2335q0 11 1 22q2 28 8 57q15 56 66 84q35 20 76 20q12 0 23 -1q58 -7 97 -49q44 -48 45 -124 q-6 -91 -61 -144q-46 -43 -104 -43h-10q-65 5 -105 58q-36 49 -36 120zM754 1004q47 7 149 31q132 31 194 36q-7 30 -20 100q-58 300 -108 382q-53 -98 -165 -412q-36 -99 -50 -137zM1074 2335q0 11 1 22q2 28 8 57q15 56 66 84q35 20 76 20q12 0 23 -1q58 -7 97 -49 q44 -48 45 -124q-6 -91 -61 -144q-46 -43 -104 -43h-10q-65 5 -105 58q-36 49 -36 120z" />
<glyph unicode="&#xc5;" d="M50 161q0 88 125 325q82 156 82 184v1q-1 9 -25 9q-15 0 -51 -5t-53 -5q-38 0 -52 22q-7 11 -7 26t8 35q34 79 83 118q41 33 130 61q154 49 330 498q8 18 28 78q70 204 124 299q96 169 208 171q225 0 266 -268q50 -317 129 -560q4 -11 12 -40q15 -54 29 -68 q12 -12 38 -12q8 0 17 1q11 1 38 6q53 10 80 10q66 0 104 -44q20 -23 20 -49q0 -12 -4 -24q-27 -77 -204 -133l11 -27q115 -297 206 -416q12 -17 46 -56q80 -90 106 -143q25 -49 25 -95q0 -37 -17 -73q-27 -57 -79 -57q-91 0 -239 192q-91 119 -131 195q-32 63 -92 195 q-64 141 -99 208q-31 60 -150 60q-21 0 -68 -3q-27 -1 -42 -2q-118 -3 -349 -47q-260 -431 -322 -509q-104 -132 -180 -132q-20 0 -38 7q-28 12 -39 41q-4 11 -4 26zM519 2361q0 42 15 88q3 11 9 24q46 128 144 199q99 70 231 70q82 0 162 -27q135 -46 210 -145 q56 -74 56 -154q0 -37 -12 -75q-26 -80 -106 -151q-105 -93 -304 -93q-175 0 -291 76q-114 74 -114 188zM754 1004q47 7 149 31q132 31 194 36q-7 30 -20 100q-58 300 -108 382q-53 -98 -165 -412q-36 -99 -50 -137zM780 2424q0 -37 34 -68q37 -36 91 -36q34 0 76 15 q92 34 106 78q2 6 2 12q0 15 -13 31q-46 60 -160 60q-8 0 -17 -1q-96 -5 -114 -64q-5 -14 -5 -27z" />
<glyph unicode="&#xc6;" horiz-adv-x="3044" d="M50 702v1q1 50 132 89q23 7 81 19q159 32 199 72q117 115 283 457q27 55 39 79q24 50 64 174q69 213 132 283q50 57 105 57q57 0 152 -85q72 -64 103 -66q32 11 96 68q85 75 142 75q22 0 45 -8q34 -12 75 -48q42 -35 78 -35h8q90 10 249 59l31 10q142 46 216 46 q78 0 124 -40q18 -27 18 -55q0 -15 -5 -30q-17 -54 -91 -111q-54 -42 -102 -61q-110 -45 -341 -69q-150 -16 -224 -33q-63 -15 -63 -244q0 -29 1 -61v-1l10 3q431 110 651 110q76 0 148 -10q76 -10 77 -54v-1q0 -55 -130 -135q-116 -72 -180 -83q-139 -24 -408 -56 q-19 -5 -56 -13q-62 -12 -71 -26q-5 -8 -5 -24q0 -24 11 -67q36 -146 77 -272q46 -139 75 -184q32 -51 85 -51q56 0 218 68q44 19 138 61q379 173 575 173q77 0 146 -18q17 -5 26 -30q9 -27 10 -72q0 -46 -11 -61l-3 -5l-6 -1q-368 -97 -400 -109q-94 -37 -290 -168 q-325 -219 -496 -219q-149 0 -247 186q-57 106 -119 343q-17 66 -25 91q-34 78 -64 103q-27 22 -80 22q-23 0 -83 -5l-29 -2q-20 -2 -72 -3q-282 -7 -335 -69q-31 -36 -95 -173q-77 -163 -126 -230q-86 -115 -183 -115q-40 0 -82 19q-35 15 -46 47q-4 12 -4 28q0 62 62 188 q46 93 46 121q0 4 -1 6q-2 4 -6 6q-13 6 -59 22q-97 33 -136 54q-54 30 -54 63zM905 962q49 5 145 28q116 27 175 30q-4 17 -8 38q-47 197 -107 268q-142 -224 -205 -364z" />
<glyph unicode="&#xc7;" horiz-adv-x="2104" d="M50 728q0 112 31 234q100 390 427 679q315 279 633 279q14 0 28 -1q62 -5 115 -35q59 -35 76 -88q6 -18 6 -35q0 -101 -203 -185l-74 -30q-303 -123 -440 -252q-136 -127 -217 -275q-82 -149 -82 -278q0 -23 3 -45q20 -177 207 -286q157 -92 369 -92q337 0 607 196 q3 2 44 41q536 509 661 509q37 0 47 -33q7 -23 7 -49q0 -152 -235 -412q-213 -236 -496 -393q-144 -80 -294 -124q18 -45 24 -103q2 -21 2 -41q0 -54 -14 -99q148 -104 148 -225q0 -30 -9 -62q-33 -111 -169 -192q-129 -77 -257 -77q-170 0 -204 137q-3 13 -3 25q0 24 14 43 q32 43 180 52q60 3 73 8q94 34 94 77q0 4 -1 8q-5 27 -43 41q-20 7 -41 7q-20 0 -40 -6q-17 -5 -33 -5q-40 0 -76 28q-52 38 -70 110q-4 16 -4 30q0 42 34 71q27 22 103 50q26 10 32 31q4 10 4 28q0 7 -1 16q-57 -5 -115 -5q-263 0 -468 112q-286 158 -358 434 q-22 87 -22 182z" />
<glyph unicode="&#xc8;" horiz-adv-x="1492" d="M18 1701q0 7 1 15q4 35 28 76q45 77 204 126q89 28 125 51q88 58 146 58q6 0 12 -1q56 -6 136 -80q23 -22 72 -27q17 -2 37 -2q83 0 219 33q142 33 207 33q12 0 21 -1l7 -1q97 -11 115 -80q3 -11 3 -23q0 -7 -1 -14q-2 -25 -16 -50q-25 -47 -74 -81q-117 -82 -352 -82 q-21 0 -43 1q-18 1 -68 6q-60 6 -107 6q-135 0 -164 -51q-30 -58 -45 -187q-4 -29 -7 -63q0 -15 -2 -30q321 44 593 45q7 0 32 1q30 1 55 1q41 0 67 -3q84 -10 114 -51q17 -23 17 -48v-7q-1 -10 -6 -19q-17 -50 -93 -98q-62 -39 -110 -51q-110 -28 -333 -28h-15l-42 1 q-16 0 -51 2q-36 2 -64 2q-39 0 -63 -4q-68 -11 -94 -55q-40 -70 -58 -225l-2 -19q-5 -56 -5 -105q0 -113 29 -184q28 -64 78 -76q11 -2 22 -3q15 -2 32 -2q117 0 342 85q64 25 94 35q264 91 454 91q43 0 82 -5q34 -4 64 -11q49 -11 72 -76q9 -24 9 -46q0 -5 -1 -11 q-2 -23 -17 -41q-36 -48 -260 -62q-67 -5 -86 -7q-209 -40 -483 -191l-12 -7q-238 -130 -375 -130h-15l-14 1q-215 25 -270 412q-14 103 -14 238q0 43 1 89q3 92 11 198q-81 14 -113 64q-14 22 -14 48q0 7 1 13q2 19 11 41q13 33 60 93q22 29 29 41q36 58 55 206 q9 72 17 108q-19 0 -35 2q-109 13 -140 74q-10 19 -10 42zM254 2621q0 34 23 64q19 25 37 40q31 27 65 27q36 0 103 -47l6 -4q244 -174 406 -392l5 -7q80 -106 82 -175v-2q0 -64 -65 -120q-30 -25 -60 -25q-31 0 -53 26q-159 126 -409 420q-9 10 -34 34q-66 61 -88 100 q-18 32 -18 61z" />
<glyph unicode="&#xc9;" horiz-adv-x="1512" d="M18 1701q0 7 1 15q4 35 28 76q45 77 204 126q89 28 125 51q88 58 146 58q6 0 12 -1q56 -6 136 -80q23 -22 72 -27q17 -2 37 -2q83 0 219 33q142 33 207 33q12 0 21 -1l7 -1q97 -11 115 -80q3 -11 3 -23q0 -7 -1 -14q-2 -25 -16 -50q-25 -47 -74 -81q-117 -82 -352 -82 q-21 0 -43 1q-18 1 -68 6q-60 6 -107 6q-135 0 -164 -51q-30 -58 -45 -187q-4 -29 -7 -63q0 -15 -2 -30q321 44 593 45q7 0 32 1q30 1 55 1q41 0 67 -3q84 -10 114 -51q17 -23 17 -48v-7q-1 -10 -6 -19q-17 -50 -93 -98q-62 -39 -110 -51q-110 -28 -333 -28h-15l-42 1 q-16 0 -51 2q-36 2 -64 2q-39 0 -63 -4q-68 -11 -94 -55q-40 -70 -58 -225l-2 -19q-5 -56 -5 -105q0 -113 29 -184q28 -64 78 -76q11 -2 22 -3q15 -2 32 -2q117 0 342 85q64 25 94 35q264 91 454 91q43 0 82 -5q34 -4 64 -11q49 -11 72 -76q9 -24 9 -46q0 -5 -1 -11 q-2 -23 -17 -41q-36 -48 -260 -62q-67 -5 -86 -7q-209 -40 -483 -191l-12 -7q-238 -130 -375 -130h-15l-14 1q-215 25 -270 412q-14 103 -14 238q0 43 1 89q3 92 11 198q-81 14 -113 64q-14 22 -14 48q0 7 1 13q2 19 11 41q13 33 60 93q22 29 29 41q36 58 55 206 q9 72 17 108q-19 0 -35 2q-109 13 -140 74q-10 19 -10 42zM639 2123v4q2 68 82 175l5 7q162 218 406 392l5 4q67 47 103 47q34 0 66 -27q18 -15 37 -40q23 -30 23 -64q0 -29 -18 -61q-22 -38 -86 -98q-28 -26 -37 -37q-250 -294 -412 -423q-18 -22 -49 -22t-60 25 q-65 55 -65 118z" />
<glyph unicode="&#xca;" horiz-adv-x="1491" d="M18 1701q0 7 1 15q4 35 28 76q45 77 204 126q89 28 125 51q88 58 146 58q6 0 12 -1q56 -6 136 -80q23 -22 72 -27q17 -2 37 -2q83 0 219 33q142 33 207 33q12 0 21 -1l7 -1q97 -11 115 -80q3 -11 3 -23q0 -7 -1 -14q-2 -25 -16 -50q-25 -47 -74 -81q-117 -82 -352 -82 q-21 0 -43 1q-18 1 -68 6q-60 6 -107 6q-135 0 -164 -51q-30 -58 -45 -187q-4 -29 -7 -63q0 -15 -2 -30q321 44 593 45q7 0 32 1q30 1 55 1q41 0 67 -3q84 -10 114 -51q17 -23 17 -48v-7q-1 -10 -6 -19q-17 -50 -93 -98q-62 -39 -110 -51q-110 -28 -333 -28h-15l-42 1 q-16 0 -51 2q-36 2 -64 2q-39 0 -63 -4q-68 -11 -94 -55q-40 -70 -58 -225l-2 -19q-5 -56 -5 -105q0 -113 29 -184q28 -64 78 -76q11 -2 22 -3q15 -2 32 -2q117 0 342 85q64 25 94 35q264 91 454 91q43 0 82 -5q34 -4 64 -11q49 -11 72 -76q9 -24 9 -46q0 -5 -1 -11 q-2 -23 -17 -41q-36 -48 -260 -62q-67 -5 -86 -7q-209 -40 -483 -191l-12 -7q-238 -130 -375 -130h-15l-14 1q-215 25 -270 412q-14 103 -14 238q0 43 1 89q3 92 11 198q-81 14 -113 64q-14 22 -14 48q0 7 1 13q2 19 11 41q13 33 60 93q22 29 29 41q36 58 55 206 q9 72 17 108q-19 0 -35 2q-109 13 -140 74q-10 19 -10 42zM274 2148q0 54 41 128q168 308 365 457l15 11l14 -10q65 -45 301 -310q39 -44 58 -65q47 -52 63 -114q7 -27 7 -52q0 -32 -12 -59q-25 -57 -85 -57q-37 0 -79 25q-66 40 -156 138q-76 82 -106 82q-46 0 -116 -134 q-37 -70 -98 -110q-54 -35 -107 -35q-62 0 -90 47q-15 25 -15 58z" />
<glyph unicode="&#xcb;" horiz-adv-x="1491" d="M18 1701q0 7 1 15q4 35 28 76q45 77 204 126q89 28 125 51q88 58 146 58q6 0 12 -1q56 -6 136 -80q23 -22 72 -27q17 -2 37 -2q83 0 219 33q142 33 207 33q12 0 21 -1l7 -1q97 -11 115 -80q3 -11 3 -23q0 -7 -1 -14q-2 -25 -16 -50q-25 -47 -74 -81q-117 -82 -352 -82 q-21 0 -43 1q-18 1 -68 6q-60 6 -107 6q-135 0 -164 -51q-30 -58 -45 -187q-4 -29 -7 -63q0 -15 -2 -30q321 44 593 45q7 0 32 1q30 1 55 1q41 0 67 -3q84 -10 114 -51q17 -23 17 -48v-7q-1 -10 -6 -19q-17 -50 -93 -98q-62 -39 -110 -51q-110 -28 -333 -28h-15l-42 1 q-16 0 -51 2q-36 2 -64 2q-39 0 -63 -4q-68 -11 -94 -55q-40 -70 -58 -225l-2 -19q-5 -56 -5 -105q0 -113 29 -184q28 -64 78 -76q11 -2 22 -3q15 -2 32 -2q117 0 342 85q64 25 94 35q264 91 454 91q43 0 82 -5q34 -4 64 -11q49 -11 72 -76q9 -24 9 -46q0 -5 -1 -11 q-2 -23 -17 -41q-36 -48 -260 -62q-67 -5 -86 -7q-209 -40 -483 -191l-12 -7q-238 -130 -375 -130h-15l-14 1q-215 25 -270 412q-14 103 -14 238q0 43 1 89q3 92 11 198q-81 14 -113 64q-14 22 -14 48q0 7 1 13q2 19 11 41q13 33 60 93q22 29 29 41q36 58 55 206 q9 72 17 108q-19 0 -35 2q-109 13 -140 74q-10 19 -10 42zM283 2372q0 11 1 22q2 28 8 57q15 56 66 84q35 20 76 20q12 0 23 -1q58 -7 97 -49q44 -48 45 -124q-6 -91 -61 -144q-46 -43 -104 -43h-10q-65 5 -105 58q-36 49 -36 120zM811 2372q0 11 1 22q2 28 8 57 q15 56 66 84q36 20 77 20q11 0 22 -1q58 -7 97 -49q44 -48 45 -124q-6 -91 -61 -144q-46 -43 -104 -43h-10q-65 5 -105 58q-36 49 -36 120z" />
<glyph unicode="&#xcc;" horiz-adv-x="827" d="M50 2617q0 34 23 64q19 25 37 40q31 27 65 27q36 0 103 -47l6 -4q244 -174 406 -392l5 -7q80 -106 82 -175v-2q0 -64 -65 -120q-30 -25 -60 -25q-31 0 -53 26q-159 126 -409 420q-9 10 -34 34q-66 61 -88 100q-18 32 -18 61zM175 1728q0 256 71 336q41 45 102 45h7 q86 0 126 -47q31 -38 31 -124q0 -56 -13 -133q-7 -38 -9 -53q-17 -122 -17 -322q0 -154 10 -353q9 -190 11 -281q0 -35 1 -88q0 -193 14 -288l7 -46q18 -113 18 -187q0 -33 -4 -59q-9 -60 -51 -93q-37 -30 -84 -30q-49 0 -88 30q-40 30 -55 78q-26 86 -26 246q0 44 2 93 l2 56q1 44 1 97q0 220 -20 593l-4 91q-1 22 -10 98q-22 198 -22 341z" />
<glyph unicode="&#xcd;" horiz-adv-x="827" d="M50 2114v4q2 68 82 175l5 7q162 218 406 392l5 4q67 47 103 47q34 0 66 -27q18 -15 37 -40q23 -30 23 -64q0 -29 -18 -61q-22 -38 -86 -98q-28 -26 -37 -37q-250 -294 -412 -423q-18 -22 -49 -22t-60 25q-65 55 -65 118zM298 1723q0 256 71 336q41 45 102 45h7 q86 0 126 -47q31 -38 31 -124q0 -56 -13 -133q-7 -38 -9 -53q-17 -122 -17 -322q0 -154 10 -353q9 -190 11 -281q0 -35 1 -88q0 -193 14 -288l7 -46q18 -113 18 -187q0 -33 -4 -59q-9 -60 -51 -93q-37 -30 -84 -30q-49 0 -88 30q-40 30 -55 78q-26 86 -26 246q0 44 2 93 l2 56q1 44 1 97q0 220 -20 593l-4 91q-1 22 -10 98q-22 198 -22 341z" />
<glyph unicode="&#xce;" horiz-adv-x="964" d="M50 2159q0 54 41 128q168 308 365 457l15 11l14 -10q65 -45 301 -310q39 -44 58 -65q47 -52 63 -114q7 -27 7 -52q0 -32 -12 -59q-25 -57 -85 -57q-37 0 -79 25q-66 40 -156 138q-76 82 -106 82q-46 0 -116 -134q-37 -70 -98 -110q-54 -35 -107 -35q-62 0 -90 47 q-15 25 -15 58zM284 1718q0 256 71 336q41 45 102 45h7q86 0 126 -47q31 -38 31 -124q0 -56 -13 -133q-7 -38 -9 -53q-17 -122 -17 -322q0 -154 10 -353q9 -190 11 -281q0 -35 1 -88q0 -193 14 -288l7 -46q18 -113 18 -187q0 -33 -4 -59q-9 -60 -51 -93q-37 -30 -84 -30 q-49 0 -88 30q-40 30 -55 78q-26 86 -26 246q0 44 2 93l2 56q1 44 1 97q0 220 -20 593l-4 91q-1 22 -10 98q-22 198 -22 341z" />
<glyph unicode="&#xcf;" horiz-adv-x="944" d="M50 2392q0 11 1 22q2 28 8 57q15 56 66 84q35 20 76 20q12 0 23 -1q58 -7 97 -49q44 -48 45 -124q-6 -91 -61 -144q-46 -43 -104 -43h-10q-65 5 -105 58q-36 49 -36 120zM260 1723q0 256 71 336q41 45 102 45h7q86 0 126 -47q31 -38 31 -124q0 -56 -13 -133 q-7 -38 -9 -53q-17 -122 -17 -322q0 -154 10 -353q9 -190 11 -281q0 -35 1 -88q0 -193 14 -288l7 -46q18 -113 18 -187q0 -33 -4 -59q-9 -60 -51 -93q-37 -30 -84 -30q-49 0 -88 30q-40 30 -55 78q-26 86 -26 246q0 44 2 93l2 56q1 44 1 97q0 220 -20 593l-4 91 q-1 22 -10 98q-22 198 -22 341zM578 2392q0 11 1 22q2 28 8 57q15 56 66 84q36 20 77 20q11 0 22 -1q58 -7 97 -49q44 -48 45 -124q-6 -91 -61 -144q-46 -43 -104 -43h-10q-65 5 -105 58q-36 49 -36 120z" />
<glyph unicode="&#xd1;" horiz-adv-x="1401" d="M50 1369q0 265 21 400q15 96 58 150q42 54 102 54q119 0 198 -183q354 -815 629 -1290v58q0 366 -34 953q-1 19 -3 44q-9 121 -9 220q0 297 80 383q37 40 90 40q60 0 97 -41q64 -71 64 -290q0 -98 -13 -227q-4 -35 -4 -41q-20 -234 -20 -508q0 -252 17 -539 q2 -30 13 -105q15 -106 15 -183q0 -115 -32 -167q-55 -90 -146 -90q-145 0 -264 183q-144 218 -395 749q-106 223 -155 320q-4 -232 -4 -436q0 -347 11 -611v-7q0 -83 -68 -154q-49 -51 -101 -51q-63 0 -103 73q-36 64 -40 217l-1 32q0 58 -1 260v496q0 58 -1 180 q-1 58 -1 111zM92 2281q0 26 13 54q4 8 12 27q54 119 105 179q91 108 222 124q12 1 24 1q93 0 235 -77q84 -47 111 -47q22 0 38 36q58 121 132 121q32 0 58 -24l12 -11q72 -63 72 -127v-8q-6 -81 -121 -218q-84 -100 -186 -100q-87 0 -233 105q-85 62 -115 66q-17 3 -30 3 q-21 0 -31 -10t-31 -50q-37 -73 -74 -122q-31 -42 -85 -42q-72 0 -110 61q-18 29 -18 59z" />
<glyph unicode="&#xd2;" horiz-adv-x="1412" d="M50 1059q0 556 226 789q159 164 424 164q330 0 516 -463q101 -252 133 -540q13 -115 13 -218q0 -388 -184 -610q-135 -163 -356 -179q-25 -2 -52 -2q-331 0 -531 310q-176 271 -188 660q-1 45 -1 89zM354 1200q0 -128 25 -290q88 -583 361 -606q14 -1 28 -1q125 0 199 90 q91 112 102 346q1 30 1 60q0 145 -28 283q-80 384 -218 543q-45 51 -94 77q-31 17 -54 17q-21 0 -36 -14q-12 -10 -33 -43q-45 -69 -89 -69q-15 0 -31 5q-133 -104 -133 -398zM415 2602q0 34 23 64q19 25 37 40q31 27 65 27q36 0 103 -47l6 -4q244 -174 406 -392l5 -7 q80 -106 82 -175v-2q0 -64 -65 -120q-30 -25 -60 -25q-31 0 -53 26q-159 126 -409 420q-9 10 -34 34q-66 61 -88 100q-18 32 -18 61z" />
<glyph unicode="&#xd3;" horiz-adv-x="1412" d="M50 1059q0 556 226 789q159 164 424 164q330 0 516 -463q101 -252 133 -540q13 -115 13 -218q0 -388 -184 -610q-135 -163 -356 -179q-25 -2 -52 -2q-331 0 -531 310q-176 271 -188 660q-1 45 -1 89zM164 2119v4q2 68 82 175l5 7q162 218 406 392l5 4q67 47 103 47 q34 0 66 -27q18 -15 37 -40q23 -30 23 -64q0 -29 -18 -61q-22 -38 -86 -98q-28 -26 -37 -37q-250 -294 -412 -423q-18 -22 -49 -22t-60 25q-65 55 -65 118zM354 1200q0 -128 25 -290q88 -583 361 -606q14 -1 28 -1q125 0 199 90q91 112 102 346q1 30 1 60q0 145 -28 283 q-80 384 -218 543q-45 51 -94 77q-31 17 -54 17q-21 0 -36 -14q-12 -10 -33 -43q-45 -69 -89 -69q-15 0 -31 5q-133 -104 -133 -398z" />
<glyph unicode="&#xd4;" horiz-adv-x="1412" d="M50 1059q0 556 226 789q159 164 424 164q330 0 516 -463q101 -252 133 -540q13 -115 13 -218q0 -388 -184 -610q-135 -163 -356 -179q-25 -2 -52 -2q-331 0 -531 310q-176 271 -188 660q-1 45 -1 89zM197 2137q0 54 41 128q168 308 365 457l15 11l14 -10q65 -45 301 -310 q39 -44 58 -65q47 -52 63 -114q7 -27 7 -52q0 -32 -12 -59q-25 -57 -85 -57q-37 0 -79 25q-66 40 -156 138q-76 82 -106 82q-46 0 -116 -134q-37 -70 -98 -110q-54 -35 -107 -35q-62 0 -90 47q-15 25 -15 58zM354 1200q0 -128 25 -290q88 -583 361 -606q14 -1 28 -1 q125 0 199 90q91 112 102 346q1 30 1 60q0 145 -28 283q-80 384 -218 543q-45 51 -94 77q-31 17 -54 17q-21 0 -36 -14q-12 -10 -33 -43q-45 -69 -89 -69q-15 0 -31 5q-133 -104 -133 -398z" />
<glyph unicode="&#xd5;" horiz-adv-x="1412" d="M50 1059q0 556 226 789q159 164 424 164q330 0 516 -463q101 -252 133 -540q13 -115 13 -218q0 -388 -184 -610q-135 -163 -356 -179q-25 -2 -52 -2q-331 0 -531 310q-176 271 -188 660q-1 45 -1 89zM154 2238q0 26 13 54q4 8 12 27q54 119 105 179q91 108 222 124 q12 1 24 1q93 0 235 -77q84 -47 111 -47q22 0 38 36q58 121 132 121q32 0 58 -24l12 -11q72 -63 72 -127v-8q-6 -81 -121 -218q-84 -100 -186 -100q-87 0 -233 105q-85 62 -115 66q-17 3 -30 3q-21 0 -31 -10t-31 -50q-37 -73 -74 -122q-31 -42 -85 -42q-72 0 -110 61 q-18 29 -18 59zM354 1200q0 -128 25 -290q88 -583 361 -606q14 -1 28 -1q125 0 199 90q91 112 102 346q1 30 1 60q0 145 -28 283q-80 384 -218 543q-45 51 -94 77q-31 17 -54 17q-21 0 -36 -14q-12 -10 -33 -43q-45 -69 -89 -69q-15 0 -31 5q-133 -104 -133 -398z" />
<glyph unicode="&#xd6;" horiz-adv-x="1412" d="M50 1059q0 556 226 789q159 164 424 164q330 0 516 -463q101 -252 133 -540q13 -115 13 -218q0 -388 -184 -610q-135 -163 -356 -179q-25 -2 -52 -2q-331 0 -531 310q-176 271 -188 660q-1 45 -1 89zM239 2439q0 11 1 22q2 28 8 57q15 56 66 84q35 20 76 20q12 0 23 -1 q58 -7 97 -49q44 -48 45 -124q-6 -91 -61 -144q-46 -43 -104 -43h-10q-65 5 -105 58q-36 49 -36 120zM354 1200q0 -128 25 -290q88 -583 361 -606q14 -1 28 -1q125 0 199 90q91 112 102 346q1 30 1 60q0 145 -28 283q-80 384 -218 543q-45 51 -94 77q-31 17 -54 17 q-21 0 -36 -14q-12 -10 -33 -43q-45 -69 -89 -69q-15 0 -31 5q-133 -104 -133 -398zM767 2439q0 11 1 22q2 28 8 57q15 56 66 84q36 20 77 20q11 0 22 -1q58 -7 97 -49q44 -48 45 -124q-6 -91 -61 -144q-46 -43 -104 -43h-10q-65 5 -105 58q-36 49 -36 120z" />
<glyph unicode="&#xd7;" horiz-adv-x="1189" d="M50 371q0 32 20 78q13 31 91 106q67 65 90 97q26 35 26 61q0 13 -8 24q-41 55 -72 123q-36 81 -36 139q0 37 14 65q34 69 147 69q52 -1 88 -44q20 -25 46 -87q38 -89 72 -97q6 -1 12 -1q63 0 194 136q165 171 264 171h18q102 0 120 -57q3 -10 3 -21q0 -74 -137 -211 q-96 -95 -232 -197q16 -12 56 -38q119 -75 164 -124q58 -62 58 -126q0 -23 -8 -47q-23 -71 -105 -71q-96 0 -236 88q-131 82 -183 82q-55 0 -188 -108q-99 -81 -201 -81q-46 0 -66 30q-11 17 -11 41z" />
<glyph unicode="&#xd8;" horiz-adv-x="1610" d="M-150 -72q0 40 18 81q58 141 360 520q-84 218 -91 468q-2 48 -2 93q0 553 226 785q159 164 425 164q222 0 381 -216q177 220 292 250q23 6 44 6q54 0 98 -38q66 -52 66 -111v-4q-2 -97 -173 -258q-31 -29 -43 -41q-61 -61 -121 -130q78 -225 105 -461q13 -113 13 -216 q0 -390 -185 -613q-135 -162 -355 -178q-27 -2 -52 -2q-262 0 -447 201q-204 -304 -281 -380q-78 -76 -144 -78h-3q-35 0 -66 22q-43 32 -58 87q-7 24 -7 49zM439 1227q0 -128 25 -290q7 -46 16 -92q55 75 174 244l178 246q14 21 58 90q43 68 86 132q-33 56 -67 95 q-44 51 -93 77q-31 16 -55 16q-21 0 -36 -13q-12 -11 -33 -43q-44 -70 -89 -70q-14 0 -31 6q-133 -104 -133 -398zM592 510q94 -168 233 -179q14 -1 28 -1q126 0 200 90q91 112 101 346q1 33 1 65q0 142 -28 277q-9 46 -22 99q-23 -32 -71 -98l-49 -70q-58 -82 -106 -146 q-14 -18 -86 -115q-137 -186 -154 -207l-21 -27q-23 -30 -26 -34z" />
<glyph unicode="&#xd9;" horiz-adv-x="1448" d="M50 1101q0 256 51 547q2 8 6 34q19 133 60 180q34 39 111 39q106 0 138 -61q15 -29 15 -74q0 -57 -25 -139q-13 -43 -17 -63q-28 -141 -28 -323q0 -51 2 -105l2 -51q11 -282 42 -426q56 -255 193 -323q84 -42 154 -42q170 0 262 247q65 175 68 367q1 36 1 71 q0 356 -75 601l-10 33q-46 148 -57 227q-5 39 -5 72q0 85 35 133q45 61 142 61q19 0 39 -2l10 -1l7 -8q148 -177 204 -640q23 -188 23 -362q0 -265 -53 -501q-104 -460 -375 -562q-80 -30 -172 -30q-196 0 -385 127q-190 127 -254 301q-109 299 -109 673zM170 2616 q0 34 23 64q19 25 37 40q31 27 65 27q36 0 103 -47l6 -4q244 -174 406 -392l5 -7q80 -106 82 -175v-2q0 -64 -65 -120q-30 -25 -60 -25q-31 0 -53 26q-159 126 -409 420q-9 10 -34 34q-66 61 -88 100q-18 32 -18 61z" />
<glyph unicode="&#xda;" horiz-adv-x="1448" d="M50 1101q0 256 51 547q2 8 6 34q19 133 60 180q34 39 111 39q106 0 138 -61q15 -29 15 -74q0 -57 -25 -139q-13 -43 -17 -63q-28 -141 -28 -323q0 -51 2 -105l2 -51q11 -282 42 -426q56 -255 193 -323q84 -42 154 -42q170 0 262 247q65 175 68 367q1 36 1 71 q0 356 -75 601l-10 33q-46 148 -57 227q-5 39 -5 72q0 85 35 133q45 61 142 61q19 0 39 -2l10 -1l7 -8q148 -177 204 -640q23 -188 23 -362q0 -265 -53 -501q-104 -460 -375 -562q-80 -30 -172 -30q-196 0 -385 127q-190 127 -254 301q-109 299 -109 673zM241 2140v7 q5 68 88 171l6 7q170 212 420 376l6 4q67 44 102 44h2q34 -2 65 -30q17 -15 35 -41q21 -29 21 -61q0 -31 -20 -64q-23 -38 -89 -95q-30 -26 -39 -35q-261 -284 -427 -407q-18 -21 -48 -21h-3q-30 1 -58 27q-61 57 -61 118z" />
<glyph unicode="&#xdb;" horiz-adv-x="1448" d="M50 1101q0 256 51 547q2 8 6 34q19 133 60 180q34 39 111 39q106 0 138 -61q15 -29 15 -74q0 -57 -25 -139q-13 -43 -17 -63q-28 -141 -28 -323q0 -51 2 -105l2 -51q11 -282 42 -426q56 -255 193 -323q84 -42 154 -42q170 0 262 247q65 175 68 367q1 36 1 71 q0 356 -75 601l-10 33q-46 148 -57 227q-5 39 -5 72q0 85 35 133q45 61 142 61q19 0 39 -2l10 -1l7 -8q148 -177 204 -640q23 -188 23 -362q0 -265 -53 -501q-104 -460 -375 -562q-80 -30 -172 -30q-196 0 -385 127q-190 127 -254 301q-109 299 -109 673zM113 2147 q0 54 41 128q168 308 365 457l15 11l14 -10q65 -45 301 -310q39 -44 58 -65q47 -52 63 -114q7 -27 7 -52q0 -32 -12 -59q-25 -57 -85 -57q-37 0 -79 25q-66 40 -156 138q-76 82 -106 82q-46 0 -116 -134q-37 -70 -98 -110q-54 -35 -107 -35q-62 0 -90 47q-15 25 -15 58z" />
<glyph unicode="&#xdc;" horiz-adv-x="1448" d="M50 1101q0 256 51 547q2 8 6 34q19 133 60 180q34 39 111 39q106 0 138 -61q15 -29 15 -74q0 -57 -25 -139q-13 -43 -17 -63q-28 -141 -28 -323q0 -51 2 -105l2 -51q11 -282 42 -426q56 -255 193 -323q84 -42 154 -42q170 0 262 247q65 175 68 367q1 36 1 71 q0 356 -75 601l-10 33q-46 148 -57 227q-5 39 -5 72q0 85 35 133q45 61 142 61q19 0 39 -2l10 -1l7 -8q148 -177 204 -640q23 -188 23 -362q0 -265 -53 -501q-104 -460 -375 -562q-80 -30 -172 -30q-196 0 -385 127q-190 127 -254 301q-109 299 -109 673zM279 2458 q0 11 1 22q2 28 8 57q15 56 66 84q35 20 76 20q12 0 23 -1q58 -7 97 -49q44 -48 45 -124q-6 -91 -61 -144q-46 -43 -104 -43h-10q-65 5 -105 58q-36 49 -36 120zM807 2458q0 11 1 22q2 28 8 57q15 56 66 84q36 20 77 20q11 0 22 -1q58 -7 97 -49q44 -48 45 -124 q-6 -91 -61 -144q-46 -43 -104 -43h-10q-65 5 -105 58q-36 49 -36 120z" />
<glyph unicode="&#xdd;" horiz-adv-x="1631" d="M50 156q0 161 107 237q36 25 68 25q72 0 114 -124q23 -70 44 -220q7 -54 11 -67q36 -148 164 -299q152 -177 309 -177q64 0 125 32q125 67 193 217q49 111 78 304q10 68 10 155q0 231 -72 596q-37 190 -51 284q-32 -26 -97 -164q-12 -27 -16 -34q-97 -177 -274 -282 q-134 -80 -273 -80q-140 0 -229 81q-88 80 -101 218q-1 10 -1 22q0 104 72 328q89 277 194 392q64 71 126 71q47 0 93 -41q40 -34 40 -96q0 -24 -6 -52q-12 -59 -64 -174q-25 -55 -31 -75q-5 -15 -22 -56q-82 -206 -82 -295q0 -41 17 -57q5 -5 15 -5q39 0 120 69 q64 55 101 101q99 124 182 340q19 49 40 191q26 172 54 248q48 129 145 171l5 2l5 -1q124 -24 169 -90q30 -43 51 -169l8 -46q32 -177 86 -532l37 -234q58 -369 65 -558q2 -43 2 -84q0 -268 -73 -470q-74 -205 -219 -339q-173 -159 -396 -159q-44 0 -90 7q-264 37 -474 259 q-189 201 -254 456q-25 97 -25 174zM335 2197q0 28 11 52q29 62 144 129l7 4q235 137 528 201l6 1q45 10 75 10q24 0 39 -6q31 -14 50 -51q10 -21 18 -52q4 -15 4 -28q0 -50 -49 -88q-35 -27 -117 -57q-36 -13 -48 -19q-346 -172 -545 -227q-13 -7 -28 -7q-13 0 -27 6 q-28 12 -45 46q-23 47 -23 86z" />
<glyph unicode="&#xdf;" horiz-adv-x="1516" d="M50 981q0 34 1 63q14 398 145 654q172 337 535 394q20 1 38 1q165 0 263 -72q99 -72 153 -232q5 -31 5 -63q0 -267 -378 -555q-16 -34 -16 -62q0 -17 6 -32q20 -54 177 -121q27 -11 43 -18q31 -14 99 -39q123 -44 176 -78q88 -57 120 -148q49 -101 49 -206q0 -20 -1 -40 q-12 -126 -79 -247q-53 -87 -160 -138q-107 -52 -233 -52q-173 0 -282 92q-59 49 -59 113v8q4 79 89 136q16 6 29 6q34 0 108 -41q72 -39 105 -39q45 0 110 46q48 68 48 132q0 108 -142 200q-72 68 -251 163q-38 21 -43 23q-190 161 -197 277v11q0 110 148 274q15 16 51 52 q126 123 126 209q0 74 -71 106q-31 14 -60 14q-33 0 -63 -19q-141 -91 -221 -309q-71 -191 -71 -398q0 -509 100 -998q2 -11 16 -51q38 -106 42 -160q1 -11 1 -22q0 -78 -59 -104q-48 -21 -121 -21q-75 0 -101 33q-109 141 -138 621q-5 63 -6 82q-31 355 -31 555z" />
<glyph unicode="&#xe0;" horiz-adv-x="1316" d="M50 242q0 226 287 555q368 299 556 299h10q76 0 119 -144q25 -81 47 -256q7 -61 10 -75q3 -11 11 -52q27 -137 54 -197q12 -26 50 -78q72 -100 72 -165q-9 -49 -62 -87q-52 -38 -110 -38q-48 0 -81 30q-65 60 -120 234q-42 136 -82 187l-27 -42q-108 -171 -177 -247 q-119 -130 -249 -158q-38 -8 -73 -8q-102 0 -166 65q-63 65 -69 177zM164 1804q0 34 23 64q19 25 37 40q31 27 65 27q36 0 103 -47l6 -4q244 -174 406 -392l5 -7q80 -106 82 -175v-2q0 -64 -65 -120q-30 -25 -60 -25q-31 0 -53 26q-159 126 -409 420q-9 10 -34 34 q-66 61 -88 100q-18 32 -18 61zM364 299q103 29 216 194q111 161 116 277q-6 4 -14 4q-33 0 -91 -63q-74 -82 -148 -219q-68 -128 -79 -193z" />
<glyph unicode="&#xe1;" horiz-adv-x="1316" d="M50 242q0 226 287 555q368 299 556 299h10q76 0 119 -144q25 -81 47 -256q7 -61 10 -75q3 -11 11 -52q27 -137 54 -197q12 -26 50 -78q72 -100 72 -165q-9 -49 -62 -87q-52 -38 -110 -38q-48 0 -81 30q-65 60 -120 234q-42 136 -82 187l-27 -42q-108 -171 -177 -247 q-119 -130 -249 -158q-38 -8 -73 -8q-102 0 -166 65q-63 65 -69 177zM297 1254v4q2 68 82 175l5 7q162 218 406 392l5 4q67 47 103 47q34 0 66 -27q18 -15 37 -40q23 -30 23 -64q0 -29 -18 -61q-22 -38 -86 -98q-28 -26 -37 -37q-250 -294 -412 -423q-18 -22 -49 -22t-60 25 q-65 55 -65 118zM364 299q103 29 216 194q111 161 116 277q-6 4 -14 4q-33 0 -91 -63q-74 -82 -148 -219q-68 -128 -79 -193z" />
<glyph unicode="&#xe2;" horiz-adv-x="1316" d="M50 242q0 226 287 555q368 299 556 299h10q76 0 119 -144q25 -81 47 -256q7 -61 10 -75q3 -11 11 -52q27 -137 54 -197q12 -26 50 -78q72 -100 72 -165q-9 -49 -62 -87q-52 -38 -110 -38q-48 0 -81 30q-65 60 -120 234q-42 136 -82 187l-27 -42q-108 -171 -177 -247 q-119 -130 -249 -158q-38 -8 -73 -8q-102 0 -166 65q-63 65 -69 177zM230 1293q0 54 41 128q168 308 365 457l15 11l14 -10q65 -45 301 -310q39 -44 58 -65q47 -52 63 -114q7 -27 7 -52q0 -32 -12 -59q-25 -57 -85 -57q-37 0 -79 25q-66 40 -156 138q-76 82 -106 82 q-46 0 -116 -134q-37 -70 -98 -110q-54 -35 -107 -35q-62 0 -90 47q-15 25 -15 58zM364 299q103 29 216 194q111 161 116 277q-6 4 -14 4q-33 0 -91 -63q-74 -82 -148 -219q-68 -128 -79 -193z" />
<glyph unicode="&#xe3;" horiz-adv-x="1316" d="M50 242q0 226 287 555q368 299 556 299h10q76 0 119 -144q25 -81 47 -256q7 -61 10 -75q3 -11 11 -52q27 -137 54 -197q12 -26 50 -78q72 -100 72 -165q-9 -49 -62 -87q-52 -38 -110 -38q-48 0 -81 30q-65 60 -120 234q-42 136 -82 187l-27 -42q-108 -171 -177 -247 q-119 -130 -249 -158q-38 -8 -73 -8q-102 0 -166 65q-63 65 -69 177zM188 1355q0 26 13 54q4 8 12 27q54 119 105 179q91 108 222 124q12 1 24 1q93 0 235 -77q84 -47 111 -47q22 0 38 36q58 121 132 121q32 0 58 -24l12 -11q72 -63 72 -127v-8q-6 -81 -121 -218 q-84 -100 -186 -100q-87 0 -233 105q-85 62 -115 66q-17 3 -30 3q-21 0 -31 -10t-31 -50q-37 -73 -74 -122q-31 -42 -85 -42q-72 0 -110 61q-18 29 -18 59zM364 299q103 29 216 194q111 161 116 277q-6 4 -14 4q-33 0 -91 -63q-74 -82 -148 -219q-68 -128 -79 -193z" />
<glyph unicode="&#xe4;" horiz-adv-x="1316" d="M50 242q0 226 287 555q368 299 556 299h10q76 0 119 -144q25 -81 47 -256q7 -61 10 -75q3 -11 11 -52q27 -137 54 -197q12 -26 50 -78q72 -100 72 -165q-9 -49 -62 -87q-52 -38 -110 -38q-48 0 -81 30q-65 60 -120 234q-42 136 -82 187l-27 -42q-108 -171 -177 -247 q-119 -130 -249 -158q-38 -8 -73 -8q-102 0 -166 65q-63 65 -69 177zM246 1494q0 11 1 22q2 28 8 57q15 56 66 84q35 20 76 20q12 0 23 -1q58 -7 97 -49q44 -48 45 -124q-6 -91 -61 -144q-46 -43 -104 -43h-10q-65 5 -105 58q-36 49 -36 120zM364 299q103 29 216 194 q111 161 116 277q-6 4 -14 4q-33 0 -91 -63q-74 -82 -148 -219q-68 -128 -79 -193zM774 1494q0 11 1 22q2 28 8 57q15 56 66 84q36 20 77 20q11 0 22 -1q58 -7 97 -49q44 -48 45 -124q-6 -91 -61 -144q-46 -43 -104 -43h-10q-65 5 -105 58q-36 49 -36 120z" />
<glyph unicode="&#xe5;" horiz-adv-x="1316" d="M50 242q0 226 287 555q368 299 556 299h10q76 0 119 -144q25 -81 47 -256q7 -61 10 -75q3 -11 11 -52q27 -137 54 -197q12 -26 50 -78q72 -100 72 -165q-9 -49 -62 -87q-52 -38 -110 -38q-48 0 -81 30q-65 60 -120 234q-42 136 -82 187l-27 -42q-108 -171 -177 -247 q-119 -130 -249 -158q-38 -8 -73 -8q-102 0 -166 65q-63 65 -69 177zM164 1488q0 47 17 100q4 13 10 28q53 145 164 225q112 80 263 80q92 0 184 -31q153 -53 238 -164q64 -84 64 -175q0 -42 -14 -86q-29 -91 -120 -171q-120 -106 -345 -106q-199 0 -332 86 q-129 84 -129 214zM364 299q103 29 216 194q111 161 116 277q-6 4 -14 4q-33 0 -91 -63q-74 -82 -148 -219q-68 -128 -79 -193zM461 1559q0 -41 38 -77q42 -41 103 -41q40 0 88 18q103 38 119 87q2 7 2 14q0 18 -14 36q-52 68 -181 68q-10 0 -21 -1q-108 -6 -129 -73 q-5 -16 -5 -31z" />
<glyph unicode="&#xe6;" horiz-adv-x="2112" d="M20 287q0 55 25 117q88 220 272 384q193 172 382 181q195 9 369 97q167 86 228 86q172 0 303 -169q99 -130 99 -259q0 -40 -9 -80q-15 -68 -91 -131q-5 -3 -137 -95q-72 -50 -80 -87q-2 -5 -2 -9q0 -46 79 -96q65 -43 134 -43q193 0 425 327q121 137 220 155q13 3 25 3 q45 0 45 -43q-32 -228 -257 -457q-235 -238 -459 -238q-17 -1 -33 -1q-223 0 -379 148q-47 -55 -196 -66h-3q-62 0 -120 104q-59 105 -59 239q0 19 1 38q-69 -188 -206 -260q-117 -63 -340 -63q-145 0 -205 105q-31 53 -31 113zM283 336q0 -17 12 -24q23 -14 52 -15 q36 0 83 22q73 35 148 114q73 75 109 152q24 50 24 85q0 23 -9 39q-6 8 -19 8q-27 0 -81 -33q-72 -46 -159 -128q-87 -84 -131 -150q-29 -45 -29 -70zM1160 747q0 -105 48 -147q26 -23 58 -23q18 0 40 8q56 22 84 83q16 35 16 73q0 33 -13 70q-26 70 -67 95q-22 14 -44 14 q-16 0 -33 -7q-89 -37 -89 -166z" />
<glyph unicode="&#xe7;" horiz-adv-x="1261" d="M50 408v19q0 140 53 277q58 150 158 241q106 95 229 95h7q114 0 149 -95q9 -25 9 -47q0 -67 -79 -113q-164 -98 -200 -135q-62 -64 -62 -148q0 -42 16 -89q35 -104 148 -104q18 0 38 3q94 12 293 103q208 94 274 106q21 4 38 4q85 0 90 -93q-30 -191 -506 -372 q-8 -3 -17 -6q23 -49 29 -114q2 -21 2 -41q0 -54 -14 -99q148 -104 148 -225q0 -30 -9 -62q-33 -111 -169 -192q-129 -77 -257 -77q-170 0 -204 137q-3 13 -3 25q0 24 14 43q32 43 180 52q60 3 73 8q94 34 94 77q0 4 -1 8q-5 27 -43 41q-20 7 -41 7q-20 0 -40 -6 q-17 -5 -33 -5q-40 0 -76 28q-52 38 -70 110q-4 16 -4 30q0 42 34 71q27 22 103 50q26 10 32 31q3 9 3 26q0 10 -1 23h-10q-191 0 -295 146q-75 104 -80 262z" />
<glyph unicode="&#xe8;" horiz-adv-x="1208" d="M50 643q0 83 15 181q27 178 284 235q35 8 69 8q93 0 174 -60q93 -68 157 -203q17 -61 17 -114q0 -157 -147 -253q-23 -16 -64 -30q-44 -16 -53 -20q-21 -11 -21 -27v-3q1 -21 34 -57q70 -76 162 -76q26 0 54 6q117 26 234 164q156 183 197 214q73 54 110 54t37 -56 q-23 -169 -189 -355q-160 -180 -327 -238q-60 -13 -119 -13q-292 0 -539 332q-85 113 -85 311zM126 1804q0 34 23 64q19 25 37 40q31 27 65 27q36 0 103 -47l6 -4q244 -174 406 -392l5 -7q80 -106 82 -175v-2q0 -64 -65 -120q-30 -25 -60 -25q-31 0 -53 26 q-159 126 -409 420q-9 10 -34 34q-66 61 -88 100q-18 32 -18 61zM299 709q0 -134 68 -184q63 0 105 45q37 41 43 102q1 12 1 23q0 46 -23 82q-32 50 -95 58q-8 1 -15 1q-39 0 -61 -33q-23 -34 -23 -94z" />
<glyph unicode="&#xe9;" horiz-adv-x="1208" d="M50 643q0 83 15 181q27 178 284 235q35 8 69 8q93 0 174 -60q93 -68 157 -203q17 -61 17 -114q0 -157 -147 -253q-23 -16 -64 -30q-44 -16 -53 -20q-21 -11 -21 -27v-3q1 -21 34 -57q70 -76 162 -76q26 0 54 6q117 26 234 164q156 183 197 214q73 54 110 54t37 -56 q-23 -169 -189 -355q-160 -180 -327 -238q-60 -13 -119 -13q-292 0 -539 332q-85 113 -85 311zM83 1273v4q2 68 82 175l5 7q162 218 406 392l5 4q67 47 103 47q34 0 66 -27q18 -15 37 -40q23 -30 23 -64q0 -29 -18 -61q-22 -38 -86 -98q-28 -26 -37 -37q-250 -294 -412 -423 q-18 -22 -49 -22t-60 25q-65 55 -65 118zM299 709q0 -134 68 -184q63 0 105 45q37 41 43 102q1 12 1 23q0 46 -23 82q-32 50 -95 58q-8 1 -15 1q-39 0 -61 -33q-23 -34 -23 -94z" />
<glyph unicode="&#xea;" horiz-adv-x="1183" d="M50 643q0 83 15 181q27 178 284 235q35 8 69 8q93 0 174 -60q93 -68 157 -203q17 -61 17 -114q0 -157 -147 -253q-23 -16 -64 -30q-44 -16 -53 -20q-21 -11 -21 -27v-3q1 -21 34 -57q70 -76 162 -76q26 0 54 6q117 26 234 164q156 183 197 214q73 54 110 54t37 -56 q-23 -169 -189 -355q-160 -180 -327 -238q-60 -13 -119 -13q-292 0 -539 332q-85 113 -85 311zM159 1240q0 54 41 128q168 308 365 457l15 11l14 -10q65 -45 301 -310q39 -44 58 -65q47 -52 63 -114q7 -27 7 -52q0 -32 -12 -59q-25 -57 -85 -57q-37 0 -79 25 q-66 40 -156 138q-76 82 -106 82q-46 0 -116 -134q-37 -70 -98 -110q-54 -35 -107 -35q-62 0 -90 47q-15 25 -15 58zM299 709q0 -134 68 -184q63 0 105 45q37 41 43 102q1 12 1 23q0 46 -23 82q-32 50 -95 58q-8 1 -15 1q-39 0 -61 -33q-23 -34 -23 -94z" />
<glyph unicode="&#xeb;" horiz-adv-x="1208" d="M50 643q0 83 15 181q27 178 284 235q35 8 69 8q93 0 174 -60q93 -68 157 -203q17 -61 17 -114q0 -157 -147 -253q-23 -16 -64 -30q-44 -16 -53 -20q-21 -11 -21 -27v-3q1 -21 34 -57q70 -76 162 -76q26 0 54 6q117 26 234 164q156 183 197 214q73 54 110 54t37 -56 q-23 -169 -189 -355q-160 -180 -327 -238q-60 -13 -119 -13q-292 0 -539 332q-85 113 -85 311zM113 1418q0 11 1 22q2 28 8 57q15 56 66 84q35 20 76 20q12 0 23 -1q58 -7 97 -49q44 -48 45 -124q-6 -91 -61 -144q-46 -43 -104 -43h-10q-65 5 -105 58q-36 49 -36 120z M299 709q0 -134 68 -184q63 0 105 45q37 41 43 102q1 12 1 23q0 46 -23 82q-32 50 -95 58q-8 1 -15 1q-39 0 -61 -33q-23 -34 -23 -94zM641 1418q0 11 1 22q2 28 8 57q15 56 66 84q36 20 77 20q11 0 22 -1q58 -7 97 -49q44 -48 45 -124q-6 -91 -61 -144q-46 -43 -104 -43 h-10q-65 5 -105 58q-36 49 -36 120z" />
<glyph unicode="&#xec;" horiz-adv-x="827" d="M50 1733q0 34 23 64q19 25 37 40q31 27 65 27q36 0 103 -47l6 -4q244 -174 406 -392l5 -7q80 -106 82 -175v-2q0 -64 -65 -120q-30 -25 -60 -25q-31 0 -53 26q-159 126 -409 420q-9 10 -34 34q-66 61 -88 100q-18 32 -18 61zM203 296q0 82 12 214q5 54 7 80q7 98 7 203 q0 35 -1 71q-1 22 -5 52q-1 9 -1 18q0 48 35 98t123 50q69 0 69 -59q45 -250 45 -556q0 -36 -1 -74l-6 -301q0 -23 -61 -53q-59 -29 -95 -29q-19 0 -30 9q-81 67 -95 211q-3 28 -3 66z" />
<glyph unicode="&#xed;" horiz-adv-x="827" d="M50 1240v4q2 68 82 175l5 7q162 218 406 392l5 4q67 47 103 47q34 0 66 -27q18 -15 37 -40q23 -30 23 -64q0 -29 -18 -61q-22 -38 -86 -98q-28 -26 -37 -37q-250 -294 -412 -423q-18 -22 -49 -22t-60 25q-65 55 -65 118zM237 286q0 82 12 214q5 54 7 80q7 98 7 203 q0 35 -1 71q-1 22 -5 52q-1 9 -1 18q0 48 35 98t123 50q69 0 69 -59q45 -250 45 -556q0 -36 -1 -74l-6 -301q0 -23 -61 -53q-59 -29 -95 -29q-19 0 -30 9q-81 67 -95 211q-3 28 -3 66z" />
<glyph unicode="&#xee;" horiz-adv-x="964" d="M50 1255q0 54 41 128q168 308 365 457l15 11l14 -10q65 -45 301 -310q39 -44 58 -65q47 -52 63 -114q7 -27 7 -52q0 -32 -12 -59q-25 -57 -85 -57q-37 0 -79 25q-66 39 -156 138q-76 82 -106 82q-46 0 -116 -134q-37 -70 -98 -110q-54 -35 -107 -35q-62 0 -90 47 q-15 25 -15 58zM295 295q0 82 12 214q5 54 7 80q7 98 7 203q0 35 -1 71q-1 22 -5 52q-1 9 -1 18q0 48 35 98t123 50q69 0 69 -59q45 -250 45 -556q0 -36 -1 -74l-6 -301q0 -23 -61 -53q-59 -29 -95 -29q-19 0 -30 9q-81 67 -95 211q-3 28 -3 66z" />
<glyph unicode="&#xef;" horiz-adv-x="944" d="M50 1503q0 11 1 22q2 28 8 57q15 56 66 84q35 20 76 20q12 0 23 -1q58 -7 97 -49q44 -48 45 -124q-6 -91 -61 -144q-46 -43 -104 -43h-10q-65 5 -105 58q-36 49 -36 120zM303 296q0 82 12 214q5 54 7 80q7 98 7 203q0 35 -1 71q-1 22 -5 52q-1 9 -1 18q0 48 35 98t123 50 q69 0 69 -59q45 -250 45 -556q0 -36 -1 -74l-6 -301q0 -23 -61 -53q-59 -29 -95 -29q-19 0 -30 9q-81 67 -95 211q-3 28 -3 66zM578 1503q0 11 1 22q2 28 8 57q15 56 66 84q36 20 77 20q11 0 22 -1q58 -7 97 -49q44 -48 45 -124q-6 -91 -61 -144q-46 -43 -104 -43h-10 q-65 5 -105 58q-36 49 -36 120z" />
<glyph unicode="&#xf0;" horiz-adv-x="1103" d="M50 408q0 293 170 416q142 102 434 102h6q-62 103 -94 135q-40 40 -79 40q-25 0 -50 -16q-54 -34 -154 -113q-53 -42 -97 -42h-8q-57 6 -57 88q0 105 177 221q-16 7 -81 29q-61 20 -91 36q-61 32 -61 78q0 29 25 63q42 58 126 58q40 0 91 -14q104 -28 221 -102 q12 7 63 45q45 34 74 49q37 19 66 19q45 0 71 -46q29 -37 29 -69q0 -30 -23 -56q-18 -21 -111 -79q276 -294 341 -614q15 -73 15 -139q0 -293 -298 -435q-132 -62 -259 -62q-102 0 -201 39q-245 96 -245 369zM293 430q0 -20 3 -39q10 -111 101 -144q33 -12 69 -12 q55 0 118 27q106 44 161 132q38 61 38 125q0 41 -15 83q-37 104 -124 127q-24 6 -49 6q-56 0 -118 -32q-87 -46 -140 -130q-44 -71 -44 -143z" />
<glyph unicode="&#xf1;" horiz-adv-x="1134" d="M50 1464q0 26 13 54q4 8 12 27q54 119 105 179q91 108 222 124q12 1 24 1q93 0 235 -77q84 -47 111 -47q22 0 38 36q58 121 132 121q32 0 58 -24l12 -11q72 -63 72 -127v-8q-6 -81 -121 -218q-84 -100 -186 -100q-87 0 -233 105q-85 62 -115 66q-17 3 -30 3 q-21 0 -31 -10t-31 -50q-37 -73 -74 -122q-31 -42 -85 -42q-72 0 -110 61q-18 29 -18 59zM78 300q0 109 24 274q21 144 22 197q1 105 55 154q38 36 96 36q23 0 50 -6q65 -14 70 -45q33 35 86 117q49 76 79 111q23 26 74 58q69 42 122 42q64 0 93 -61q83 -191 142 -598 q22 -145 35 -218q4 -24 21 -84q27 -102 27 -165q0 -51 -18 -75q-29 -37 -93 -37q-25 0 -56 6q-85 15 -135 205q-30 112 -66 387q-25 188 -39 240q-150 -110 -211 -246q-50 -112 -52 -279q-1 -72 -55 -164q-62 -106 -133 -106q-61 0 -109 85q-29 52 -29 172z" />
<glyph unicode="&#xf2;" horiz-adv-x="956" d="M50 503q0 40 3 82q16 219 149 349q132 131 337 131h18q159 0 254 -120t95 -321q0 -237 -122 -420q-138 -204 -352 -204q-42 0 -86 9q-169 33 -245 213q-51 122 -51 281zM94 1790q0 34 23 64q19 25 37 40q31 27 65 27q36 0 103 -47l6 -4q244 -174 406 -392l5 -7 q80 -106 82 -175v-2q0 -64 -65 -120q-30 -25 -60 -25q-31 0 -53 26q-159 126 -409 420q-9 10 -34 34q-66 61 -88 100q-18 32 -18 61zM333 504q2 -91 40 -154q35 -59 84 -59q55 0 117 74q64 76 72 195q1 16 1 31q0 100 -46 173q-27 42 -71 42q-52 0 -106 -50q-52 -47 -58 -94 q-33 -63 -33 -144v-14z" />
<glyph unicode="&#xf3;" horiz-adv-x="956" d="M50 503q0 40 3 82q16 219 149 349q132 131 337 131h18q159 0 254 -120t95 -321q0 -237 -122 -420q-138 -204 -352 -204q-42 0 -86 9q-169 33 -245 213q-51 122 -51 281zM113 1278v4q2 68 82 175l5 7q162 218 406 392l5 4q67 47 103 47q34 0 66 -27q18 -15 37 -40 q23 -30 23 -64q0 -29 -18 -61q-22 -38 -86 -98q-28 -26 -37 -37q-250 -294 -412 -423q-18 -22 -49 -22t-60 25q-65 55 -65 118zM333 504q2 -91 40 -154q35 -59 84 -59q55 0 117 74q64 76 72 195q1 16 1 31q0 100 -46 173q-27 42 -71 42q-52 0 -106 -50q-52 -47 -58 -94 q-33 -63 -33 -144v-14z" />
<glyph unicode="&#xf4;" horiz-adv-x="969" d="M50 1335q0 54 41 128q168 308 365 457l15 11l14 -10q65 -45 301 -310q39 -44 58 -65q47 -52 63 -114q7 -27 7 -52q0 -32 -12 -59q-25 -57 -85 -57q-37 0 -79 25q-66 39 -156 138q-76 82 -106 82q-46 0 -116 -134q-37 -70 -98 -110q-54 -35 -107 -35q-62 0 -90 47 q-15 25 -15 58zM63 503q0 40 3 82q16 219 149 349q132 131 337 131h18q159 0 254 -120t95 -321q0 -237 -122 -420q-138 -204 -352 -204q-42 0 -86 9q-169 33 -245 213q-51 122 -51 281zM346 504q2 -91 40 -154q35 -59 84 -59q55 0 117 74q64 76 72 195q1 16 1 31 q0 100 -46 173q-27 42 -71 42q-52 0 -106 -50q-52 -47 -58 -94q-33 -63 -33 -144v-14z" />
<glyph unicode="&#xf5;" horiz-adv-x="1134" d="M50 1289q0 26 13 54q4 8 12 27q54 119 105 179q91 108 222 124q12 1 24 1q93 0 235 -77q84 -47 111 -47q22 0 38 36q58 121 132 121q32 0 58 -24l12 -11q72 -63 72 -127v-8q-6 -81 -121 -218q-84 -100 -186 -100q-87 0 -233 105q-85 62 -115 66q-17 3 -30 3 q-21 0 -31 -10t-31 -50q-37 -73 -74 -122q-31 -42 -85 -42q-72 0 -110 61q-18 29 -18 59zM124 503q0 40 3 82q16 219 149 349q132 131 337 131h18q159 0 254 -120t95 -321q0 -237 -122 -420q-138 -204 -352 -204q-42 0 -86 9q-169 33 -245 213q-51 122 -51 281zM398 504 q2 -91 40 -154q35 -59 84 -59q55 0 117 74q64 76 72 195q1 16 1 31q0 100 -46 173q-27 42 -71 42q-52 0 -106 -50q-52 -47 -58 -94q-33 -63 -33 -144v-14z" />
<glyph unicode="&#xf6;" horiz-adv-x="968" d="M50 503q0 40 3 82q16 219 149 349q132 131 337 131h18q159 0 254 -120t95 -321q0 -237 -122 -420q-138 -204 -352 -204q-42 0 -86 9q-169 33 -245 213q-51 122 -51 281zM74 1530q0 11 1 22q2 28 8 57q15 56 66 84q35 20 76 20q12 0 23 -1q58 -7 97 -49q44 -48 45 -124 q-6 -91 -61 -144q-46 -43 -104 -43h-10q-65 5 -105 58q-36 49 -36 120zM333 504q2 -91 40 -154q35 -59 84 -59q55 0 117 74q64 76 72 195q1 16 1 31q0 100 -46 173q-27 42 -71 42q-52 0 -106 -50q-52 -47 -58 -94q-33 -63 -33 -144v-14zM602 1530q0 11 1 22q2 28 8 57 q15 56 66 84q36 20 77 20q11 0 22 -1q58 -7 97 -49q44 -48 45 -124q-6 -91 -61 -144q-46 -43 -104 -43h-10q-65 5 -105 58q-36 49 -36 120z" />
<glyph unicode="&#xf7;" horiz-adv-x="1322" d="M50 804q0 60 35 98q60 66 274 67h33q97 0 287 -24q118 -15 175 -20q11 -1 26 -1q30 0 79 3q53 2 82 2q124 0 188 -49q43 -32 43 -77q0 -11 -3 -23q-9 -47 -58 -91q-45 -41 -92 -53q-53 -13 -125 -13q-54 0 -161 10q-50 5 -73 7q-40 3 -107 9q-148 14 -220 14 q-75 0 -140 -10q-39 -6 -71 -6q-159 0 -171 139q-1 9 -1 18zM477 404v3q0 69 53 130q56 65 133 67q72 -1 108 -39q31 -33 31 -82q0 -69 -53 -129q-57 -64 -129 -64q-10 0 -20 2h-1q-61 0 -94 35q-28 31 -28 77zM492 1121q0 75 55 137q58 66 138 66q74 -1 112 -40 q32 -33 32 -84q0 -71 -56 -134q-58 -66 -133 -66q-11 0 -21 1q-64 0 -98 38q-29 33 -29 82z" />
<glyph unicode="&#xf8;" horiz-adv-x="1296" d="M50 109q0 38 22 76q28 49 183 189q-89 145 -89 289q0 35 5 70q27 179 185 301l14 11q91 70 196 70q19 0 38 -2q125 -15 239 -122q81 94 131 127q54 36 134 46q8 1 16 1q50 0 84 -38q38 -39 38 -77q0 -6 -1 -12q-11 -70 -150 -170q-27 -19 -35 -25q-42 -32 -69 -49 q76 -145 86 -291q1 -21 1 -42q0 -214 -154 -335q-33 -25 -74 -46q-71 -36 -143 -36q-151 0 -309 152l-17 -21q-54 -70 -136 -132q-59 -43 -103 -43h-9q-28 3 -48 23q-28 27 -34 69q-1 9 -1 17zM451 675q0 -39 15 -66q1 -5 6 -23q48 51 116 124l76 80q-39 30 -75 43 q-18 7 -34 7q-26 0 -47 -17q-41 -31 -53 -103q-4 -24 -4 -45zM595 407q34 -27 68 -40q29 -11 53 -11q28 0 49 16q43 33 48 130v9q0 47 -19 100q-30 -31 -62 -64q-11 -11 -74 -76q-12 -12 -31 -32z" />
<glyph unicode="&#xf9;" horiz-adv-x="1090" d="M50 328q0 172 65 405q82 299 202 303h1q44 0 68 -29q24 -30 24 -109q0 -117 -51 -340q-39 -172 -39 -225q0 -19 5 -23q5 0 14 5q137 84 203 245q38 93 67 273q18 113 34 152q26 62 79 62q104 0 146 -144q25 -84 36 -279q6 -103 12 -138q11 -61 58 -192q66 -185 66 -270 q0 -104 -89 -104q-61 0 -117 47q-78 65 -122 287q-13 66 -20 94q-73 -132 -201 -235q-137 -110 -248 -110q-90 0 -140 77q-53 83 -53 248zM121 1805q0 34 23 64q19 25 37 40q31 27 65 27q36 0 103 -47l6 -4q244 -174 406 -392l5 -7q80 -106 82 -175v-2q0 -64 -65 -120 q-30 -25 -60 -25q-31 0 -53 26q-159 126 -409 420q-9 10 -34 34q-66 61 -88 100q-18 32 -18 61z" />
<glyph unicode="&#xfa;" horiz-adv-x="1090" d="M50 328q0 172 65 405q82 299 202 303h1q44 0 68 -29q24 -30 24 -109q0 -117 -51 -340q-39 -172 -39 -225q0 -19 5 -23q5 0 14 5q137 84 203 245q38 93 67 273q18 113 34 152q26 62 79 62q104 0 146 -144q25 -84 36 -279q6 -103 12 -138q11 -61 58 -192q66 -185 66 -270 q0 -104 -89 -104q-61 0 -117 47q-78 65 -122 287q-13 66 -20 94q-73 -132 -201 -235q-137 -110 -248 -110q-90 0 -140 77q-53 83 -53 248zM116 1306v4q2 68 82 175l5 7q162 218 406 392l5 4q67 47 103 47q34 0 66 -27q18 -15 37 -40q23 -30 23 -64q0 -29 -18 -61 q-22 -38 -86 -98q-28 -26 -37 -37q-250 -294 -412 -423q-18 -22 -49 -22t-60 25q-65 55 -65 118z" />
<glyph unicode="&#xfb;" horiz-adv-x="1090" d="M50 328q0 172 65 405q82 299 202 303h1q44 0 68 -29q24 -30 24 -109q0 -117 -51 -340q-39 -172 -39 -225q0 -19 5 -23q5 0 14 5q137 84 203 245q38 93 67 273q18 113 34 152q26 62 79 62q104 0 146 -144q25 -84 36 -279q6 -103 12 -138q11 -61 58 -192q66 -185 66 -270 q0 -104 -89 -104q-61 0 -117 47q-78 65 -122 287q-13 66 -20 94q-73 -132 -201 -235q-137 -110 -248 -110q-90 0 -140 77q-53 83 -53 248zM92 1345q0 54 41 128q168 308 365 457l15 11l14 -10q65 -45 301 -310q39 -44 58 -65q47 -52 63 -114q7 -27 7 -52q0 -32 -12 -59 q-25 -57 -85 -57q-37 0 -79 25q-66 40 -156 138q-76 82 -106 82q-46 0 -116 -134q-37 -70 -98 -110q-54 -35 -107 -35q-62 0 -90 47q-15 25 -15 58z" />
<glyph unicode="&#xfc;" horiz-adv-x="1090" d="M50 328q0 172 65 405q82 299 202 303h1q44 0 68 -29q24 -30 24 -109q0 -117 -51 -340q-39 -172 -39 -225q0 -19 5 -23q5 0 14 5q137 84 203 245q38 93 67 273q18 113 34 152q26 62 79 62q104 0 146 -144q25 -84 36 -279q6 -103 12 -138q11 -61 58 -192q66 -185 66 -270 q0 -104 -89 -104q-61 0 -117 47q-78 65 -122 287q-13 66 -20 94q-73 -132 -201 -235q-137 -110 -248 -110q-90 0 -140 77q-53 83 -53 248zM83 1520q0 11 1 22q2 28 8 57q15 56 66 84q35 20 76 20q12 0 23 -1q58 -7 97 -49q44 -48 45 -124q-6 -91 -61 -144q-46 -43 -104 -43 h-10q-65 5 -105 58q-36 49 -36 120zM611 1520q0 11 1 22q2 28 8 57q15 56 66 84q36 20 77 20q11 0 22 -1q58 -7 97 -49q44 -48 45 -124q-6 -91 -61 -144q-46 -43 -104 -43h-10q-65 5 -105 58q-36 49 -36 120z" />
<glyph unicode="&#xfd;" horiz-adv-x="1127" d="M50 380q0 103 19 238q11 82 65 238q81 235 170 235q55 0 100 -88l2 -8q0 -106 -51 -308q-49 -196 -49 -309q0 -14 1 -27q86 31 171 169q50 82 136 273q81 180 122 243q67 104 135 104q13 0 26 -4h5q21 0 44 -23q93 -94 93 -753v-136q0 -123 3 -162q4 -63 19 -175 q16 -119 16 -202q0 -69 -11 -112q-41 -154 -233 -267q-94 -56 -200 -56q-258 0 -516 299q-31 40 -43 96q-5 25 -5 46q0 30 10 51q19 38 60 38q29 0 68 -18q148 -70 288 -155q98 -60 166 -60q57 0 93 43q65 79 65 288q0 220 -71 582q-35 -44 -96 -139q-83 -129 -136 -181 q-88 -88 -202 -107q-25 -4 -48 -4q-89 0 -142 61q-74 85 -74 290zM161 1316v4q2 68 82 175l5 7q162 218 406 392l5 4q67 47 103 47q34 0 66 -27q18 -15 37 -40q23 -30 23 -64q0 -29 -18 -61q-22 -38 -86 -98q-28 -26 -37 -37q-250 -294 -412 -423q-18 -22 -49 -22t-60 25 q-65 55 -65 118z" />
<glyph unicode="&#xff;" horiz-adv-x="1127" d="M50 380q0 103 19 238q11 82 65 238q81 235 170 235q55 0 100 -88l2 -8q0 -106 -51 -308q-49 -196 -49 -309q0 -14 1 -27q86 31 171 169q50 82 136 273q81 180 122 243q67 104 135 104q13 0 26 -4h5q21 0 44 -23q93 -94 93 -753v-136q0 -123 3 -162q4 -63 19 -175 q16 -119 16 -202q0 -69 -11 -112q-41 -154 -233 -267q-94 -56 -200 -56q-258 0 -516 299q-31 40 -43 96q-5 25 -5 46q0 30 10 51q19 38 60 38q29 0 68 -18q148 -70 288 -155q98 -60 166 -60q57 0 93 43q65 79 65 288q0 220 -71 582q-35 -44 -96 -139q-83 -129 -136 -181 q-88 -88 -202 -107q-25 -4 -48 -4q-89 0 -142 61q-74 85 -74 290zM160 1550q0 11 1 22q2 28 8 57q15 56 66 84q35 20 76 20q12 0 23 -1q58 -7 97 -49q44 -48 45 -124q-6 -91 -61 -144q-46 -43 -104 -43h-10q-65 5 -105 58q-36 49 -36 120zM688 1550q0 11 1 22q2 28 8 57 q15 56 66 84q36 20 77 20q11 0 22 -1q58 -7 97 -49q44 -48 45 -124q-6 -91 -61 -144q-46 -43 -104 -43h-10q-65 5 -105 58q-36 49 -36 120z" />
<glyph unicode="&#x2000;" horiz-adv-x="1377" />
<glyph unicode="&#x2001;" horiz-adv-x="2755" />
<glyph unicode="&#x2002;" horiz-adv-x="1377" />
<glyph unicode="&#x2003;" horiz-adv-x="2755" />
<glyph unicode="&#x2004;" horiz-adv-x="918" />
<glyph unicode="&#x2005;" horiz-adv-x="688" />
<glyph unicode="&#x2006;" horiz-adv-x="459" />
<glyph unicode="&#x2007;" horiz-adv-x="459" />
<glyph unicode="&#x2008;" horiz-adv-x="344" />
<glyph unicode="&#x2009;" horiz-adv-x="551" />
<glyph unicode="&#x200a;" horiz-adv-x="153" />
<glyph unicode="&#x2010;" horiz-adv-x="1192" d="M39 523v10q0 38 19 85q19 106 126 113q24 2 54 2q16 1 37 1q22 0 50 -1h39q56 0 87 2l36 3q73 6 145 11l74 5q28 1 54 2q39 3 73 7l59 6q14 1 45 8q33 7 60 9h15q44 0 71 -15q49 -27 52 -142q1 -6 1 -12q0 -15 -4 -31q-14 -73 -70 -88q-93 -24 -137 -27q-15 -1 -39 -1 q-23 0 -54 1h-19q-78 0 -178 -7q-34 -2 -69 -5l-208 -14l-94 -5q-23 -2 -51 -6q-15 -2 -29 -3q-15 -1 -29 -1q-24 0 -47 3q-29 3 -47 27q-19 28 -22 63z" />
<glyph unicode="&#x2011;" horiz-adv-x="1192" d="M39 523v10q0 38 19 85q19 106 126 113q24 2 54 2q16 1 37 1q22 0 50 -1h39q56 0 87 2l36 3q73 6 145 11l74 5q28 1 54 2q39 3 73 7l59 6q14 1 45 8q33 7 60 9h15q44 0 71 -15q49 -27 52 -142q1 -6 1 -12q0 -15 -4 -31q-14 -73 -70 -88q-93 -24 -137 -27q-15 -1 -39 -1 q-23 0 -54 1h-19q-78 0 -178 -7q-34 -2 -69 -5l-208 -14l-94 -5q-23 -2 -51 -6q-15 -2 -29 -3q-15 -1 -29 -1q-24 0 -47 3q-29 3 -47 27q-19 28 -22 63z" />
<glyph unicode="&#x2012;" horiz-adv-x="1192" d="M39 523v10q0 38 19 85q19 106 126 113q24 2 54 2q16 1 37 1q22 0 50 -1h39q56 0 87 2l36 3q73 6 145 11l74 5q28 1 54 2q39 3 73 7l59 6q14 1 45 8q33 7 60 9h15q44 0 71 -15q49 -27 52 -142q1 -6 1 -12q0 -15 -4 -31q-14 -73 -70 -88q-93 -24 -137 -27q-15 -1 -39 -1 q-23 0 -54 1h-19q-78 0 -178 -7q-34 -2 -69 -5l-208 -14l-94 -5q-23 -2 -51 -6q-15 -2 -29 -3q-15 -1 -29 -1q-24 0 -47 3q-29 3 -47 27q-19 28 -22 63z" />
<glyph unicode="&#x2013;" horiz-adv-x="1119" d="M39 523v10q0 38 18 85q17 106 117 113q23 2 51 2q15 1 34 1q21 0 47 -1h36q53 0 82 2l33 3q68 6 136 11l69 5q26 1 50 2q36 3 68 7l55 6q13 1 42 8q31 7 56 9h14q41 0 67 -15q45 -27 48 -142q1 -6 1 -12q0 -15 -4 -31q-13 -73 -65 -88q-87 -24 -128 -27q-14 -1 -36 -1 t-51 1h-18q-72 0 -166 -7q-31 -2 -64 -5l-194 -14l-88 -5q-21 -2 -48 -6q-14 -2 -27 -3q-14 -1 -27 -1q-22 0 -44 3q-27 3 -43 27q-18 28 -21 63z" />
<glyph unicode="&#x2014;" horiz-adv-x="2143" d="M39 523v10q0 38 35 85q36 106 236 113q45 2 101 2q29 1 69 1q41 0 93 -1h73q104 0 162 2l67 3q137 6 271 11l138 5q53 1 101 2q73 3 136 7l110 6q27 1 84 8q62 7 113 9h28q82 0 132 -15q92 -27 97 -142q2 -6 2 -12q0 -15 -7 -31q-27 -73 -131 -88q-174 -24 -256 -27 q-28 -1 -73 -1q-43 0 -101 1h-35q-146 0 -332 -7q-64 -2 -129 -5l-388 -14l-176 -5q-43 -2 -95 -6q-28 -2 -54 -3q-28 -1 -54 -1q-45 0 -88 3q-54 3 -88 27q-35 28 -41 63z" />
<glyph unicode="&#x2018;" horiz-adv-x="577" d="M50 1976q0 35 7 66q27 112 140 112h2q11 1 22 1q52 0 78 -21q26 -19 33 -65q27 -177 27 -185l19 -38q19 -39 29 -59q43 -87 69 -150q51 -120 51 -167q0 -30 -21 -30h-9q-129 0 -245 107q-106 99 -163 247q-39 102 -39 182z" />
<glyph unicode="&#x2019;" horiz-adv-x="577" d="M50 1440q0 47 51 167q26 63 69 150q10 20 29 59l19 38q0 8 27 185q7 46 33 65q26 21 78 21q11 0 22 -1h2q113 0 140 -112q7 -31 7 -66q0 -80 -39 -182q-57 -148 -163 -247q-116 -107 -245 -107h-9q-21 0 -21 30z" />
<glyph unicode="&#x201a;" horiz-adv-x="577" d="M50 -380q0 47 51 167q26 63 69 150q10 20 29 59l19 38q0 8 27 185q7 46 33 65q26 21 78 21q11 0 22 -1h2q113 0 140 -112q7 -31 7 -66q0 -80 -39 -182q-57 -148 -163 -247q-116 -107 -245 -107h-9q-21 0 -21 30z" />
<glyph unicode="&#x201c;" horiz-adv-x="1039" d="M50 1976q0 35 7 66q27 112 140 112h2q11 1 22 1q52 0 78 -21q26 -19 33 -65q27 -177 27 -185l19 -38q19 -39 29 -59q43 -87 69 -150q51 -120 51 -167q0 -30 -21 -30h-9q-129 0 -245 107q-106 99 -163 247q-39 102 -39 182zM512 1974q0 36 8 68q26 112 139 112h2 q11 1 22 1q52 0 79 -21q25 -19 32 -65q27 -172 27 -184v-1l19 -38q19 -39 29 -59q43 -87 69 -150q51 -120 51 -167q0 -30 -21 -30h-9q-129 0 -245 107q-106 99 -163 247q-39 100 -39 180z" />
<glyph unicode="&#x201d;" horiz-adv-x="1039" d="M50 1440q0 47 51 167q26 63 69 150q10 20 29 59l19 38q0 8 27 185q7 46 33 65q26 21 78 21q11 0 22 -1h2q113 0 140 -112q7 -31 7 -66q0 -80 -39 -182q-57 -148 -163 -247q-116 -107 -245 -107h-9q-21 0 -21 30zM512 1440q0 47 51 167q27 63 69 150q10 20 29 59l19 38 q0 8 27 185q7 46 33 65q26 21 78 21q11 0 22 -1h2q113 0 140 -112q7 -31 7 -66q0 -80 -39 -182q-57 -148 -163 -247q-116 -107 -245 -107h-9q-21 0 -21 30z" />
<glyph unicode="&#x201e;" horiz-adv-x="1039" d="M50 -390q0 47 51 167q26 63 69 150q10 20 29 59l19 38q0 8 27 185q7 46 33 65q26 21 78 21q11 0 22 -1h2q113 0 140 -112q7 -31 7 -66q0 -80 -39 -182q-57 -148 -163 -247q-116 -107 -245 -107h-9q-21 0 -21 30zM512 -390q0 47 51 167q27 63 69 150q10 20 29 59l19 38 q0 8 27 185q7 46 33 65q26 21 78 21q11 0 22 -1h2q113 0 140 -112q7 -31 7 -66q0 -80 -39 -182q-57 -148 -163 -247q-116 -107 -245 -107h-9q-21 0 -21 30z" />
<glyph unicode="&#x202f;" horiz-adv-x="551" />
<glyph unicode="&#x205f;" horiz-adv-x="688" />
<glyph unicode="&#x20ac;" horiz-adv-x="2190" d="M-1 744v5q3 55 63 77q37 15 149 27l13 1q26 3 161 14q-1 14 -1 28q0 65 12 132h-11q-286 0 -315 102q-9 33 -9 57v5q3 55 65 78q39 14 156 26l13 1q72 7 217 17q165 255 492 414q304 148 600 148h12q264 -3 388 -91q96 -67 96 -145q0 -12 -2 -25q-7 -40 -45 -57 q-22 -10 -51 -10q-24 0 -54 7q-157 39 -308 39q-100 0 -197 -17q-217 -38 -513 -252q359 -7 492 -20l17 -2q253 -24 345 -76q32 -18 55 -62q22 -41 22 -75v-6q-4 -71 -91 -71h-12q-177 -12 -398 -12q-257 0 -573 16q-20 -67 -21 -130h60q248 0 477 -22l16 -2 q242 -23 330 -75q30 -19 53 -62q20 -40 20 -75v-6q-4 -71 -87 -71h-11q-147 -11 -362 -11q-193 0 -441 9q38 -89 166 -143q254 -109 565 -109q60 0 122 4q21 2 107 24q96 25 147 33q36 5 64 5q110 0 110 -79q0 -7 -1 -14q-29 -270 -458 -291q-46 -2 -91 -2q-273 0 -519 83 q-413 140 -579 503q-15 1 -34 1q-18 0 -39 -1q-32 -1 -60 -1q-112 0 -170 10q-124 21 -143 92q-9 33 -9 57z" />
<glyph unicode="&#x2122;" horiz-adv-x="1690" d="M50 2359v3q2 92 211 98q79 2 228 18q154 16 232 18q45 0 62 -32q7 -14 7 -32q0 -39 -38 -93q-23 -31 -91 -31h-28q-54 -2 -72 -23q-17 -19 -17 -84q0 -25 3 -58l3 -27q0 -11 6 -51q19 -145 19 -227q0 -17 -1 -32q-6 -98 -52 -121q-21 -10 -42 -10q-31 0 -54 23 q-54 54 -54 275v44q-1 38 -1 84q0 69 2 155q0 24 -5 29q-4 4 -24 4q-10 0 -27 -2q-8 0 -33 -4q-70 -10 -108 -10q-73 0 -104 32q-22 21 -22 54zM804 1884q0 18 2 39q8 104 69 307l10 35l2 9q55 208 142 208q31 0 61 -25q62 -52 97 -208q14 -64 24 -119q2 31 3 54q4 51 4 59 q1 7 4 36q7 89 27 128q34 70 119 70q89 -2 135 -120q26 -68 49 -227q10 -68 15 -86q4 -16 23 -61q37 -92 46 -137q4 -22 4 -41q0 -49 -26 -80q-26 -30 -58 -30q-88 0 -147 212q-15 53 -33 145q-11 -170 -38 -253q-38 -116 -117 -116q-109 0 -153 127q-25 74 -35 246v-1 q-27 -155 -47 -212q-34 -94 -94 -94q-14 0 -27 5q-61 23 -61 130z" />
<glyph unicode="&#x25fc;" horiz-adv-x="1040" d="M0 0v1040h1040v-1040h-1040z" />
</font>
</defs>
</svg>
